<svg class="marks" width="950" height="524" viewBox="0 0 475 262" version="1.1" xmlns="http://www.w3.org/2000/svg" xmlns:xlink="http://www.w3.org/1999/xlink"><rect width="475" height="262" style="fill: #ffffff;"></rect><g transform="translate(50,38)"><g class="mark-group role-frame root"><g transform="translate(0,0)"><path class="background" d="M0.5,0.5h300v200h-300Z" style="fill: none; stroke: #ddd;"></path><g><g class="mark-group role-axis"><g transform="translate(0.5,0.5)"><path class="background" d="M0,0h0v0h0Z" style="pointer-events: none; fill: none;"></path><g><g class="mark-rule role-axis-grid" style="pointer-events: none;"><line transform="translate(0,200)" x2="300" y2="0" style="fill: none; stroke: #ddd; stroke-width: 1; opacity: 1;"></line><line transform="translate(0,150)" x2="300" y2="0" style="fill: none; stroke: #ddd; stroke-width: 1; opacity: 1;"></line><line transform="translate(0,100)" x2="300" y2="0" style="fill: none; stroke: #ddd; stroke-width: 1; opacity: 1;"></line><line transform="translate(0,50)" x2="300" y2="0" style="fill: none; stroke: #ddd; stroke-width: 1; opacity: 1;"></line><line transform="translate(0,0)" x2="300" y2="0" style="fill: none; stroke: #ddd; stroke-width: 1; opacity: 1;"></line></g></g><path class="foreground" d="" style="pointer-events: none; display: none; fill: none;"></path></g></g><g class="mark-group role-axis"><g transform="translate(0.5,200.5)"><path class="background" d="M0,0h0v0h0Z" style="pointer-events: none; fill: none;"></path><g><g class="mark-rule role-axis-tick" style="pointer-events: none;"><line transform="translate(82,0)" x2="0" y2="3" style="fill: none; stroke: #888; stroke-width: 1; opacity: 1;"></line><line transform="translate(178,0)" x2="0" y2="3" style="fill: none; stroke: #888; stroke-width: 1; opacity: 1;"></line><line transform="translate(280,0)" x2="0" y2="3" style="fill: none; stroke: #888; stroke-width: 1; opacity: 1;"></line></g><g class="mark-text role-axis-label" style="pointer-events: none;"><text text-anchor="middle" transform="translate(82.45533669262483,16)" style="font-family: Benton Gothic, sans; font-size: 11.5px; font-weight: normal; fill: #000; opacity: 1;">02/01</text><text text-anchor="middle" transform="translate(178.10352725606964,16)" style="font-family: Benton Gothic, sans; font-size: 11.5px; font-weight: normal; fill: #000; opacity: 1;">03/01</text><text text-anchor="middle" transform="translate(280.21071919377005,16)" style="font-family: Benton Gothic, sans; font-size: 11.5px; font-weight: normal; fill: #000; opacity: 1;">04/01</text></g><g class="mark-rule role-axis-domain" style="pointer-events: none;"><line transform="translate(0,0)" x2="300" y2="0" style="fill: none; stroke: #888; stroke-width: 1; opacity: 1;"></line></g></g><path class="foreground" d="" style="pointer-events: none; display: none; fill: none;"></path></g></g><g class="mark-group role-axis"><g transform="translate(0.5,0.5)"><path class="background" d="M0,0h0v0h0Z" style="pointer-events: none; fill: none;"></path><g><g class="mark-rule role-axis-tick" style="pointer-events: none;"><line transform="translate(0,200)" x2="0" y2="0" style="fill: none; stroke: #888; stroke-width: 1; opacity: 1;"></line><line transform="translate(0,150)" x2="0" y2="0" style="fill: none; stroke: #888; stroke-width: 1; opacity: 1;"></line><line transform="translate(0,100)" x2="0" y2="0" style="fill: none; stroke: #888; stroke-width: 1; opacity: 1;"></line><line transform="translate(0,50)" x2="0" y2="0" style="fill: none; stroke: #888; stroke-width: 1; opacity: 1;"></line><line transform="translate(0,0)" x2="0" y2="0" style="fill: none; stroke: #888; stroke-width: 1; opacity: 1;"></line></g><g class="mark-text role-axis-label" style="pointer-events: none;"><text text-anchor="end" transform="translate(-2,203)" style="font-family: Benton Gothic, sans; font-size: 11.5px; font-weight: normal; fill: #000; opacity: 1;">0k</text><text text-anchor="end" transform="translate(-2,153)" style="font-family: Benton Gothic, sans; font-size: 11.5px; font-weight: normal; fill: #000; opacity: 1;">50k</text><text text-anchor="end" transform="translate(-2,103)" style="font-family: Benton Gothic, sans; font-size: 11.5px; font-weight: normal; fill: #000; opacity: 1;">100k</text><text text-anchor="end" transform="translate(-2,53)" style="font-family: Benton Gothic, sans; font-size: 11.5px; font-weight: normal; fill: #000; opacity: 1;">150k</text><text text-anchor="end" transform="translate(-2,3)" style="font-family: Benton Gothic, sans; font-size: 11.5px; font-weight: normal; fill: #000; opacity: 1;">200k</text></g><g class="mark-rule role-axis-domain" style="pointer-events: none;"><line transform="translate(0,200)" x2="0" y2="-200" style="fill: none; stroke: #888; stroke-opacity: 0; stroke-width: 1; opacity: 1;"></line></g></g><path class="foreground" d="" style="pointer-events: none; display: none; fill: none;"></path></g></g><g class="mark-group role-scope pathgroup"><g transform="translate(0,0)"><path class="background" d="M0,0h300v200h-300Z" style="fill: none;"></path><g><g class="mark-area role-mark marks"><path d="M0,54.796L23.087494273934954,60.976000000000006L46.17498854786991,44.262L69.26248282180485,56.157999999999994L89.05176362803482,58.18700000000001L112.13925790196976,74.468L135.22675217590472,62.82600000000001L158.3142464498397,64.13199999999999L184.69995419147963,61.41399999999999L207.6500229042602,65.18299999999999L230.73751717819516,82.72600000000001L253.8250114521301,122.64399999999999L276.91250572606504,139.27800000000002L300,142.591L300,200L276.91250572606504,200L253.8250114521301,200L230.73751717819516,200L207.6500229042602,200L184.69995419147963,200L158.3142464498397,200L135.22675217590472,200L112.13925790196976,200L89.05176362803482,200L69.26248282180485,200L46.17498854786991,200L23.087494273934954,200L0,200Z" style="fill: #ab7fb4;"></path></g></g><path class="foreground" d="" style="display: none; fill: none;"></path></g><g transform="translate(0,0)"><path class="background" d="M0,0h300v200h-300Z" style="fill: none;"></path><g><g class="mark-area role-mark marks"><path d="M0,17.62300000000001L23.087494273934954,25.50699999999999L46.17498854786991,8.329000000000008L69.26248282180485,20.189999999999998L89.05176362803482,21.29700000000001L112.13925790196976,38.461999999999996L135.22675217590472,26.248000000000005L158.3142464498397,25.90300000000001L184.69995419147963,24.342L207.6500229042602,29.641000000000005L230.73751717819516,51.879000000000005L253.8250114521301,103.857L276.91250572606504,125.397L300,131.60500000000002L300,133.432L276.91250572606504,127.808L253.8250114521301,107.612L230.73751717819516,59.48800000000001L207.6500229042602,40.75200000000001L184.69995419147963,36.917L158.3142464498397,39.23000000000001L135.22675217590472,39.473L112.13925790196976,50.367000000000004L89.05176362803482,34.18699999999999L69.26248282180485,32.142L46.17498854786991,20.195000000000007L23.087494273934954,37.11199999999999L0,30.032999999999998Z" style="fill: #3580b1;"></path></g></g><path class="foreground" d="" style="display: none; fill: none;"></path></g><g transform="translate(0,0)"><path class="background" d="M0,0h300v200h-300Z" style="fill: none;"></path><g><g class="mark-area role-mark marks"><path d="M0,30.032999999999998L23.087494273934954,37.11199999999999L46.17498854786991,20.195000000000007L69.26248282180485,32.142L89.05176362803482,34.18699999999999L112.13925790196976,50.367000000000004L135.22675217590472,39.473L158.3142464498397,39.23000000000001L184.69995419147963,36.917L207.6500229042602,40.75200000000001L230.73751717819516,59.48800000000001L253.8250114521301,107.612L276.91250572606504,127.808L300,133.432L300,142.591L276.91250572606504,139.27800000000002L253.8250114521301,122.64399999999999L230.73751717819516,82.72600000000001L207.6500229042602,65.18299999999999L184.69995419147963,61.41399999999999L158.3142464498397,64.13199999999999L135.22675217590472,62.82600000000001L112.13925790196976,74.468L89.05176362803482,58.18700000000001L69.26248282180485,56.157999999999994L46.17498854786991,44.262L23.087494273934954,60.976000000000006L0,54.796Z" style="fill: #ec8431;"></path></g></g><path class="foreground" d="" style="display: none; fill: none;"></path></g></g><g class="mark-group role-title"><g transform="translate(-45,-32)"><path class="background" d="M0,0h0v0h0Z" style="pointer-events: none; fill: none;"></path><g><g class="mark-text role-title-text" style="pointer-events: none;"><text text-anchor="start" transform="translate(0,17)" style="font-family: Benton Gothic Bold, sans; font-size: 22px; font-weight: normal; fill: #000; opacity: 1;">Global flights each Tuesday: Jan. 7 to April 7</text></g></g><path class="foreground" d="" style="pointer-events: none; display: none; fill: none;"></path></g></g></g><path class="foreground" d="" style="display: none; fill: none;"></path></g></g></g></svg>