<svg class="marks" width="750" height="470" viewBox="0 0 375 235" version="1.1" xmlns="http://www.w3.org/2000/svg" xmlns:xlink="http://www.w3.org/1999/xlink"><rect width="375" height="235" style="fill: #ffffff;"></rect><g transform="translate(50,11)"><g class="mark-group role-frame root"><g transform="translate(0,0)"><path class="background" d="M0.5,0.5h320v200h-320Z" style="fill: none; stroke: #ddd;"></path><g><g class="mark-group role-axis"><g transform="translate(0.5,0.5)"><path class="background" d="M0,0h0v0h0Z" style="pointer-events: none; fill: none;"></path><g><g class="mark-rule role-axis-grid" style="pointer-events: none;"><line transform="translate(0,200)" x2="320" y2="0" style="fill: none; stroke: #ddd; stroke-width: 1; opacity: 1;"></line><line transform="translate(0,150)" x2="320" y2="0" style="fill: none; stroke: #ddd; stroke-width: 1; opacity: 1;"></line><line transform="translate(0,100)" x2="320" y2="0" style="fill: none; stroke: #ddd; stroke-width: 1; opacity: 1;"></line><line transform="translate(0,50)" x2="320" y2="0" style="fill: none; stroke: #ddd; stroke-width: 1; opacity: 1;"></line><line transform="translate(0,0)" x2="320" y2="0" style="fill: none; stroke: #ddd; stroke-width: 1; opacity: 1;"></line></g></g><path class="foreground" d="" style="pointer-events: none; display: none; fill: none;"></path></g></g><g class="mark-group role-axis"><g transform="translate(0.5,200.5)"><path class="background" d="M0,0h0v0h0Z" style="pointer-events: none; fill: none;"></path><g><g class="mark-rule role-axis-tick" style="pointer-events: none;"><line transform="translate(88,0)" x2="0" y2="3" style="fill: none; stroke: #888; stroke-width: 1; opacity: 1;"></line><line transform="translate(190,0)" x2="0" y2="3" style="fill: none; stroke: #888; stroke-width: 1; opacity: 1;"></line><line transform="translate(299,0)" x2="0" y2="3" style="fill: none; stroke: #888; stroke-width: 1; opacity: 1;"></line></g><g class="mark-text role-axis-label" style="pointer-events: none;"><text text-anchor="middle" transform="translate(87.9523591387998,16)" style="font-family: Benton Gothic, sans; font-size: 11.5px; font-weight: normal; fill: #000; opacity: 1;">Feb. 1</text><text text-anchor="middle" transform="translate(189.9770957398076,16)" style="font-family: Benton Gothic, sans; font-size: 11.5px; font-weight: normal; fill: #000; opacity: 1;">Mar. 1</text><text text-anchor="middle" transform="translate(298.89143380668804,16)" style="font-family: Benton Gothic, sans; font-size: 11.5px; font-weight: normal; fill: #000; opacity: 1;">Apr. 1</text></g><g class="mark-rule role-axis-domain" style="pointer-events: none;"><line transform="translate(0,0)" x2="320" y2="0" style="fill: none; stroke: #888; stroke-width: 1; opacity: 1;"></line></g></g><path class="foreground" d="" style="pointer-events: none; display: none; fill: none;"></path></g></g><g class="mark-group role-axis"><g transform="translate(0.5,0.5)"><path class="background" d="M0,0h0v0h0Z" style="pointer-events: none; fill: none;"></path><g><g class="mark-rule role-axis-tick" style="pointer-events: none;"><line transform="translate(0,200)" x2="0" y2="0" style="fill: none; stroke: #888; stroke-width: 1; opacity: 1;"></line><line transform="translate(0,150)" x2="0" y2="0" style="fill: none; stroke: #888; stroke-width: 1; opacity: 1;"></line><line transform="translate(0,100)" x2="0" y2="0" style="fill: none; stroke: #888; stroke-width: 1; opacity: 1;"></line><line transform="translate(0,50)" x2="0" y2="0" style="fill: none; stroke: #888; stroke-width: 1; opacity: 1;"></line><line transform="translate(0,0)" x2="0" y2="0" style="fill: none; stroke: #888; stroke-width: 1; opacity: 1;"></line></g><g class="mark-text role-axis-label" style="pointer-events: none;"><text text-anchor="end" transform="translate(-2,203)" style="font-family: Benton Gothic, sans; font-size: 11.5px; font-weight: normal; fill: #000; opacity: 1;">0k</text><text text-anchor="end" transform="translate(-2,153)" style="font-family: Benton Gothic, sans; font-size: 11.5px; font-weight: normal; fill: #000; opacity: 1;">50k</text><text text-anchor="end" transform="translate(-2,103)" style="font-family: Benton Gothic, sans; font-size: 11.5px; font-weight: normal; fill: #000; opacity: 1;">100k</text><text text-anchor="end" transform="translate(-2,53)" style="font-family: Benton Gothic, sans; font-size: 11.5px; font-weight: normal; fill: #000; opacity: 1;">150k</text><text text-anchor="end" transform="translate(-2,3)" style="font-family: Benton Gothic, sans; font-size: 11.5px; font-weight: normal; fill: #000; opacity: 1;">200k</text></g><g class="mark-rule role-axis-domain" style="pointer-events: none;"><line transform="translate(0,200)" x2="0" y2="-200" style="fill: none; stroke: #888; stroke-opacity: 0; stroke-width: 1; opacity: 1;"></line></g></g><path class="foreground" d="" style="pointer-events: none; display: none; fill: none;"></path></g></g><g class="mark-group role-scope pathgroup"><g transform="translate(0,0)"><path class="background" d="M0,0h320v200h-320Z" style="fill: none;"></path><g><g class="mark-area role-mark marks"><path d="M0,54.732L24.62666055886395,60.94200000000001L49.2533211177279,44.201L73.87998167659185,56.115L94.9885478699038,58.13999999999999L119.61520842876774,74.415L144.2418689876317,62.778L168.86852954649567,64.084L197.0132844709116,61.364L221.4933577645442,65.13199999999999L246.12001832340815,82.67599999999999L270.74667888227214,122.603L295.37333944113607,139.24699999999999L320,142.55499999999998L320,200L295.37333944113607,200L270.74667888227214,200L246.12001832340815,200L221.4933577645442,200L197.0132844709116,200L168.86852954649567,200L144.2418689876317,200L119.61520842876774,200L94.9885478699038,200L73.87998167659185,200L49.2533211177279,200L24.62666055886395,200L0,200Z" style="fill: #a84b24;"></path></g></g><path class="foreground" d="" style="display: none; fill: none;"></path></g><g transform="translate(0,0)"><path class="background" d="M0,0h320v200h-320Z" style="fill: none;"></path><g><g class="mark-area role-mark marks"><path d="M0,17.501999999999995L24.62666055886395,25.414L49.2533211177279,8.206000000000003L73.87998167659185,20.075L94.9885478699038,21.185999999999993L119.61520842876774,38.36299999999999L144.2418689876317,26.146L168.86852954649567,25.795999999999996L197.0132844709116,24.23599999999999L221.4933577645442,29.523999999999994L246.12001832340815,51.773L270.74667888227214,103.776L295.37333944113607,125.34100000000001L320,131.537L320,133.364L295.37333944113607,127.752L270.74667888227214,107.531L246.12001832340815,59.382000000000005L221.4933577645442,40.635L197.0132844709116,36.81099999999999L168.86852954649567,39.123L144.2418689876317,39.371L119.61520842876774,50.268L94.9885478699038,34.07599999999999L73.87998167659185,32.02700000000001L49.2533211177279,20.072000000000003L24.62666055886395,37.02000000000001L0,29.912000000000006Z" style="fill: #ec862b;"></path></g></g><path class="foreground" d="" style="display: none; fill: none;"></path></g><g transform="translate(0,0)"><path class="background" d="M0,0h320v200h-320Z" style="fill: none;"></path><g><g class="mark-area role-mark marks"><path d="M0,29.912000000000006L24.62666055886395,37.02000000000001L49.2533211177279,20.072000000000003L73.87998167659185,32.02700000000001L94.9885478699038,34.07599999999999L119.61520842876774,50.268L144.2418689876317,39.371L168.86852954649567,39.123L197.0132844709116,36.81099999999999L221.4933577645442,40.635L246.12001832340815,59.382000000000005L270.74667888227214,107.531L295.37333944113607,127.752L320,133.364L320,142.55499999999998L295.37333944113607,139.24699999999999L270.74667888227214,122.603L246.12001832340815,82.67599999999999L221.4933577645442,65.13199999999999L197.0132844709116,61.364L168.86852954649567,64.084L144.2418689876317,62.778L119.61520842876774,74.415L94.9885478699038,58.13999999999999L73.87998167659185,56.115L49.2533211177279,44.201L24.62666055886395,60.94200000000001L0,54.732Z" style="fill: #fadc90;"></path></g></g><path class="foreground" d="" style="display: none; fill: none;"></path></g></g></g><path class="foreground" d="" style="display: none; fill: none;"></path></g></g></g></svg>