<svg class="marks" width="1310" height="670" viewBox="0 0 655 335" version="1.1" xmlns="http://www.w3.org/2000/svg" xmlns:xlink="http://www.w3.org/1999/xlink"><rect width="655" height="335" style="fill: #ffffff;"></rect><g transform="translate(50,11)"><g class="mark-group role-frame root"><g transform="translate(0,0)"><path class="background" d="M0.5,0.5h600v300h-600Z" style="fill: none; stroke: #ddd;"></path><g><g class="mark-group role-axis"><g transform="translate(0.5,0.5)"><path class="background" d="M0,0h0v0h0Z" style="pointer-events: none; fill: none;"></path><g><g class="mark-rule role-axis-grid" style="pointer-events: none;"><line transform="translate(0,300)" x2="600" y2="0" style="fill: none; stroke: #ddd; stroke-width: 1; opacity: 1;"></line><line transform="translate(0,225)" x2="600" y2="0" style="fill: none; stroke: #ddd; stroke-width: 1; opacity: 1;"></line><line transform="translate(0,150)" x2="600" y2="0" style="fill: none; stroke: #ddd; stroke-width: 1; opacity: 1;"></line><line transform="translate(0,75)" x2="600" y2="0" style="fill: none; stroke: #ddd; stroke-width: 1; opacity: 1;"></line><line transform="translate(0,0)" x2="600" y2="0" style="fill: none; stroke: #ddd; stroke-width: 1; opacity: 1;"></line></g></g><path class="foreground" d="" style="pointer-events: none; display: none; fill: none;"></path></g></g><g class="mark-group role-axis"><g transform="translate(0.5,300.5)"><path class="background" d="M0,0h0v0h0Z" style="pointer-events: none; fill: none;"></path><g><g class="mark-rule role-axis-tick" style="pointer-events: none;"><line transform="translate(165,0)" x2="0" y2="3" style="fill: none; stroke: #888; stroke-width: 1; opacity: 1;"></line><line transform="translate(356,0)" x2="0" y2="3" style="fill: none; stroke: #888; stroke-width: 1; opacity: 1;"></line><line transform="translate(560,0)" x2="0" y2="3" style="fill: none; stroke: #888; stroke-width: 1; opacity: 1;"></line></g><g class="mark-text role-axis-label" style="pointer-events: none;"><text text-anchor="middle" transform="translate(164.91067338524965,16)" style="font-family: Benton Gothic, sans; font-size: 11.5px; font-weight: normal; fill: #000; opacity: 1;">Feb. 1</text><text text-anchor="middle" transform="translate(356.2070545121393,16)" style="font-family: Benton Gothic, sans; font-size: 11.5px; font-weight: normal; fill: #000; opacity: 1;">Mar. 1</text><text text-anchor="middle" transform="translate(560.4214383875401,16)" style="font-family: Benton Gothic, sans; font-size: 11.5px; font-weight: normal; fill: #000; opacity: 1;">Apr. 1</text></g><g class="mark-rule role-axis-domain" style="pointer-events: none;"><line transform="translate(0,0)" x2="600" y2="0" style="fill: none; stroke: #888; stroke-width: 1; opacity: 1;"></line></g></g><path class="foreground" d="" style="pointer-events: none; display: none; fill: none;"></path></g></g><g class="mark-group role-axis"><g transform="translate(0.5,0.5)"><path class="background" d="M0,0h0v0h0Z" style="pointer-events: none; fill: none;"></path><g><g class="mark-rule role-axis-tick" style="pointer-events: none;"><line transform="translate(0,300)" x2="0" y2="0" style="fill: none; stroke: #888; stroke-width: 1; opacity: 1;"></line><line transform="translate(0,225)" x2="0" y2="0" style="fill: none; stroke: #888; stroke-width: 1; opacity: 1;"></line><line transform="translate(0,150)" x2="0" y2="0" style="fill: none; stroke: #888; stroke-width: 1; opacity: 1;"></line><line transform="translate(0,75)" x2="0" y2="0" style="fill: none; stroke: #888; stroke-width: 1; opacity: 1;"></line><line transform="translate(0,0)" x2="0" y2="0" style="fill: none; stroke: #888; stroke-width: 1; opacity: 1;"></line></g><g class="mark-text role-axis-label" style="pointer-events: none;"><text text-anchor="end" transform="translate(-2,303)" style="font-family: Benton Gothic, sans; font-size: 11.5px; font-weight: normal; fill: #000; opacity: 1;">0k</text><text text-anchor="end" transform="translate(-2,228)" style="font-family: Benton Gothic, sans; font-size: 11.5px; font-weight: normal; fill: #000; opacity: 1;">50k</text><text text-anchor="end" transform="translate(-2,153)" style="font-family: Benton Gothic, sans; font-size: 11.5px; font-weight: normal; fill: #000; opacity: 1;">100k</text><text text-anchor="end" transform="translate(-2,78)" style="font-family: Benton Gothic, sans; font-size: 11.5px; font-weight: normal; fill: #000; opacity: 1;">150k</text><text text-anchor="end" transform="translate(-2,3)" style="font-family: Benton Gothic, sans; font-size: 11.5px; font-weight: normal; fill: #000; opacity: 1;">200k</text></g><g class="mark-rule role-axis-domain" style="pointer-events: none;"><line transform="translate(0,300)" x2="0" y2="-300" style="fill: none; stroke: #888; stroke-opacity: 0; stroke-width: 1; opacity: 1;"></line></g></g><path class="foreground" d="" style="pointer-events: none; display: none; fill: none;"></path></g></g><g class="mark-group role-scope pathgroup"><g transform="translate(0,0)"><path class="background" d="M0,0h600v300h-600Z" style="fill: none;"></path><g><g class="mark-area role-mark marks"><path d="M0,82.194L46.17498854786991,91.46400000000001L92.34997709573982,66.393L138.5249656436097,84.237L178.10352725606964,87.28050000000002L224.2785158039395,111.702L270.45350435180944,94.239L316.6284928996794,96.19799999999998L369.39990838295927,92.12099999999998L415.3000458085204,97.77449999999999L461.4750343563903,124.08900000000001L507.6500229042602,183.966L553.8250114521301,208.91700000000003L600,213.8865L600,300L553.8250114521301,300L507.6500229042602,300L461.4750343563903,300L415.3000458085204,300L369.39990838295927,300L316.6284928996794,300L270.45350435180944,300L224.2785158039395,300L178.10352725606964,300L138.5249656436097,300L92.34997709573982,300L46.17498854786991,300L0,300Z" style="fill: #a84b24;"></path></g></g><path class="foreground" d="" style="display: none; fill: none;"></path></g><g transform="translate(0,0)"><path class="background" d="M0,0h600v300h-600Z" style="fill: none;"></path><g><g class="mark-area role-mark marks"><path d="M0,26.434500000000018L46.17498854786991,38.260499999999986L92.34997709573982,12.493500000000013L138.5249656436097,30.284999999999997L178.10352725606964,31.945500000000017L224.2785158039395,57.693L270.45350435180944,39.37200000000001L316.6284928996794,38.854500000000016L369.39990838295927,36.513L415.3000458085204,44.46150000000001L461.4750343563903,77.81850000000001L507.6500229042602,155.7855L553.8250114521301,188.09550000000002L600,197.40750000000003L600,200.148L553.8250114521301,191.71200000000002L507.6500229042602,161.418L461.4750343563903,89.23200000000001L415.3000458085204,61.128000000000014L369.39990838295927,55.3755L316.6284928996794,58.84500000000001L270.45350435180944,59.209500000000006L224.2785158039395,75.55050000000001L178.10352725606964,51.28049999999998L138.5249656436097,48.21300000000001L92.34997709573982,30.29250000000001L46.17498854786991,55.667999999999985L0,45.049499999999995Z" style="fill: #ec862b;"></path></g></g><path class="foreground" d="" style="display: none; fill: none;"></path></g><g transform="translate(0,0)"><path class="background" d="M0,0h600v300h-600Z" style="fill: none;"></path><g><g class="mark-area role-mark marks"><path d="M0,45.049499999999995L46.17498854786991,55.667999999999985L92.34997709573982,30.29250000000001L138.5249656436097,48.21300000000001L178.10352725606964,51.28049999999998L224.2785158039395,75.55050000000001L270.45350435180944,59.209500000000006L316.6284928996794,58.84500000000001L369.39990838295927,55.3755L415.3000458085204,61.128000000000014L461.4750343563903,89.23200000000001L507.6500229042602,161.418L553.8250114521301,191.71200000000002L600,200.148L600,213.8865L553.8250114521301,208.91700000000003L507.6500229042602,183.966L461.4750343563903,124.08900000000001L415.3000458085204,97.77449999999999L369.39990838295927,92.12099999999998L316.6284928996794,96.19799999999998L270.45350435180944,94.239L224.2785158039395,111.702L178.10352725606964,87.28050000000002L138.5249656436097,84.237L92.34997709573982,66.393L46.17498854786991,91.46400000000001L0,82.194Z" style="fill: #fadc90;"></path></g></g><path class="foreground" d="" style="display: none; fill: none;"></path></g></g></g><path class="foreground" d="" style="display: none; fill: none;"></path></g></g></g></svg>