<svg class="marks" width="750" height="470" viewBox="0 0 375 235" version="1.1" xmlns="http://www.w3.org/2000/svg" xmlns:xlink="http://www.w3.org/1999/xlink"><rect width="375" height="235" style="fill: #ffffff;"></rect><g transform="translate(50,11)"><g class="mark-group role-frame root"><g transform="translate(0,0)"><path class="background" d="M0.5,0.5h320v200h-320Z" style="fill: none; stroke: #ddd;"></path><g><g class="mark-group role-axis"><g transform="translate(0.5,0.5)"><path class="background" d="M0,0h0v0h0Z" style="pointer-events: none; fill: none;"></path><g><g class="mark-rule role-axis-grid" style="pointer-events: none;"><line transform="translate(0,200)" x2="320" y2="0" style="fill: none; stroke: #ddd; stroke-width: 1; opacity: 1;"></line><line transform="translate(0,150)" x2="320" y2="0" style="fill: none; stroke: #ddd; stroke-width: 1; opacity: 1;"></line><line transform="translate(0,100)" x2="320" y2="0" style="fill: none; stroke: #ddd; stroke-width: 1; opacity: 1;"></line><line transform="translate(0,50)" x2="320" y2="0" style="fill: none; stroke: #ddd; stroke-width: 1; opacity: 1;"></line><line transform="translate(0,0)" x2="320" y2="0" style="fill: none; stroke: #ddd; stroke-width: 1; opacity: 1;"></line></g></g><path class="foreground" d="" style="pointer-events: none; display: none; fill: none;"></path></g></g><g class="mark-group role-axis"><g transform="translate(0.5,200.5)"><path class="background" d="M0,0h0v0h0Z" style="pointer-events: none; fill: none;"></path><g><g class="mark-rule role-axis-tick" style="pointer-events: none;"><line transform="translate(88,0)" x2="0" y2="3" style="fill: none; stroke: #888; stroke-width: 1; opacity: 1;"></line><line transform="translate(190,0)" x2="0" y2="3" style="fill: none; stroke: #888; stroke-width: 1; opacity: 1;"></line><line transform="translate(299,0)" x2="0" y2="3" style="fill: none; stroke: #888; stroke-width: 1; opacity: 1;"></line></g><g class="mark-text role-axis-label" style="pointer-events: none;"><text text-anchor="middle" transform="translate(87.9523591387998,16)" style="font-family: Benton Gothic, sans; font-size: 11.5px; font-weight: normal; fill: #000; opacity: 1;">Feb. 1</text><text text-anchor="middle" transform="translate(189.9770957398076,16)" style="font-family: Benton Gothic, sans; font-size: 11.5px; font-weight: normal; fill: #000; opacity: 1;">Mar. 1</text><text text-anchor="middle" transform="translate(298.89143380668804,16)" style="font-family: Benton Gothic, sans; font-size: 11.5px; font-weight: normal; fill: #000; opacity: 1;">Apr. 1</text></g><g class="mark-rule role-axis-domain" style="pointer-events: none;"><line transform="translate(0,0)" x2="320" y2="0" style="fill: none; stroke: #888; stroke-width: 1; opacity: 1;"></line></g></g><path class="foreground" d="" style="pointer-events: none; display: none; fill: none;"></path></g></g><g class="mark-group role-axis"><g transform="translate(0.5,0.5)"><path class="background" d="M0,0h0v0h0Z" style="pointer-events: none; fill: none;"></path><g><g class="mark-rule role-axis-tick" style="pointer-events: none;"><line transform="translate(0,200)" x2="0" y2="0" style="fill: none; stroke: #888; stroke-width: 1; opacity: 1;"></line><line transform="translate(0,150)" x2="0" y2="0" style="fill: none; stroke: #888; stroke-width: 1; opacity: 1;"></line><line transform="translate(0,100)" x2="0" y2="0" style="fill: none; stroke: #888; stroke-width: 1; opacity: 1;"></line><line transform="translate(0,50)" x2="0" y2="0" style="fill: none; stroke: #888; stroke-width: 1; opacity: 1;"></line><line transform="translate(0,0)" x2="0" y2="0" style="fill: none; stroke: #888; stroke-width: 1; opacity: 1;"></line></g><g class="mark-text role-axis-label" style="pointer-events: none;"><text text-anchor="end" transform="translate(-2,203)" style="font-family: Benton Gothic, sans; font-size: 11.5px; font-weight: normal; fill: #000; opacity: 1;">0k</text><text text-anchor="end" transform="translate(-2,153)" style="font-family: Benton Gothic, sans; font-size: 11.5px; font-weight: normal; fill: #000; opacity: 1;">50k</text><text text-anchor="end" transform="translate(-2,103)" style="font-family: Benton Gothic, sans; font-size: 11.5px; font-weight: normal; fill: #000; opacity: 1;">100k</text><text text-anchor="end" transform="translate(-2,53)" style="font-family: Benton Gothic, sans; font-size: 11.5px; font-weight: normal; fill: #000; opacity: 1;">150k</text><text text-anchor="end" transform="translate(-2,3)" style="font-family: Benton Gothic, sans; font-size: 11.5px; font-weight: normal; fill: #000; opacity: 1;">200k</text></g><g class="mark-rule role-axis-domain" style="pointer-events: none;"><line transform="translate(0,200)" x2="0" y2="-200" style="fill: none; stroke: #888; stroke-opacity: 0; stroke-width: 1; opacity: 1;"></line></g></g><path class="foreground" d="" style="pointer-events: none; display: none; fill: none;"></path></g></g><g class="mark-group role-scope pathgroup"><g transform="translate(0,0)"><path class="background" d="M0,0h320v200h-320Z" style="fill: none;"></path><g><g class="mark-area role-mark marks"><path d="M0,54.796L24.62666055886395,60.976000000000006L49.2533211177279,44.262L73.87998167659185,56.157999999999994L94.9885478699038,58.18700000000001L119.61520842876774,74.468L144.2418689876317,62.82600000000001L168.86852954649567,64.13199999999999L197.0132844709116,61.41399999999999L221.4933577645442,65.18299999999999L246.12001832340815,82.72600000000001L270.74667888227214,122.64399999999999L295.37333944113607,139.27800000000002L320,142.591L320,200L295.37333944113607,200L270.74667888227214,200L246.12001832340815,200L221.4933577645442,200L197.0132844709116,200L168.86852954649567,200L144.2418689876317,200L119.61520842876774,200L94.9885478699038,200L73.87998167659185,200L49.2533211177279,200L24.62666055886395,200L0,200Z" style="fill: #a84b24;"></path></g></g><path class="foreground" d="" style="display: none; fill: none;"></path></g><g transform="translate(0,0)"><path class="background" d="M0,0h320v200h-320Z" style="fill: none;"></path><g><g class="mark-area role-mark marks"><path d="M0,17.62300000000001L24.62666055886395,25.50699999999999L49.2533211177279,8.329000000000008L73.87998167659185,20.189999999999998L94.9885478699038,21.29700000000001L119.61520842876774,38.461999999999996L144.2418689876317,26.248000000000005L168.86852954649567,25.90300000000001L197.0132844709116,24.342L221.4933577645442,29.641000000000005L246.12001832340815,51.879000000000005L270.74667888227214,103.857L295.37333944113607,125.397L320,131.60500000000002L320,133.432L295.37333944113607,127.808L270.74667888227214,107.612L246.12001832340815,59.48800000000001L221.4933577645442,40.75200000000001L197.0132844709116,36.917L168.86852954649567,39.23000000000001L144.2418689876317,39.473L119.61520842876774,50.367000000000004L94.9885478699038,34.18699999999999L73.87998167659185,32.142L49.2533211177279,20.195000000000007L24.62666055886395,37.11199999999999L0,30.032999999999998Z" style="fill: #ec862b;"></path></g></g><path class="foreground" d="" style="display: none; fill: none;"></path></g><g transform="translate(0,0)"><path class="background" d="M0,0h320v200h-320Z" style="fill: none;"></path><g><g class="mark-area role-mark marks"><path d="M0,30.032999999999998L24.62666055886395,37.11199999999999L49.2533211177279,20.195000000000007L73.87998167659185,32.142L94.9885478699038,34.18699999999999L119.61520842876774,50.367000000000004L144.2418689876317,39.473L168.86852954649567,39.23000000000001L197.0132844709116,36.917L221.4933577645442,40.75200000000001L246.12001832340815,59.48800000000001L270.74667888227214,107.612L295.37333944113607,127.808L320,133.432L320,142.591L295.37333944113607,139.27800000000002L270.74667888227214,122.64399999999999L246.12001832340815,82.72600000000001L221.4933577645442,65.18299999999999L197.0132844709116,61.41399999999999L168.86852954649567,64.13199999999999L144.2418689876317,62.82600000000001L119.61520842876774,74.468L94.9885478699038,58.18700000000001L73.87998167659185,56.157999999999994L49.2533211177279,44.262L24.62666055886395,60.976000000000006L0,54.796Z" style="fill: #fadc90;"></path></g></g><path class="foreground" d="" style="display: none; fill: none;"></path></g></g></g><path class="foreground" d="" style="display: none; fill: none;"></path></g></g></g></svg>