<svg class="marks" width="1310" height="670" viewBox="0 0 655 335" version="1.1" xmlns="http://www.w3.org/2000/svg" xmlns:xlink="http://www.w3.org/1999/xlink"><rect width="655" height="335" style="fill: #ffffff;"></rect><g transform="translate(50,11)"><g class="mark-group role-frame root"><g transform="translate(0,0)"><path class="background" d="M0.5,0.5h600v300h-600Z" style="fill: none; stroke: #ddd;"></path><g><g class="mark-group role-axis"><g transform="translate(0.5,0.5)"><path class="background" d="M0,0h0v0h0Z" style="pointer-events: none; fill: none;"></path><g><g class="mark-rule role-axis-grid" style="pointer-events: none;"><line transform="translate(0,300)" x2="600" y2="0" style="fill: none; stroke: #ddd; stroke-width: 1; opacity: 1;"></line><line transform="translate(0,225)" x2="600" y2="0" style="fill: none; stroke: #ddd; stroke-width: 1; opacity: 1;"></line><line transform="translate(0,150)" x2="600" y2="0" style="fill: none; stroke: #ddd; stroke-width: 1; opacity: 1;"></line><line transform="translate(0,75)" x2="600" y2="0" style="fill: none; stroke: #ddd; stroke-width: 1; opacity: 1;"></line><line transform="translate(0,0)" x2="600" y2="0" style="fill: none; stroke: #ddd; stroke-width: 1; opacity: 1;"></line></g></g><path class="foreground" d="" style="pointer-events: none; display: none; fill: none;"></path></g></g><g class="mark-group role-axis"><g transform="translate(0.5,300.5)"><path class="background" d="M0,0h0v0h0Z" style="pointer-events: none; fill: none;"></path><g><g class="mark-rule role-axis-tick" style="pointer-events: none;"><line transform="translate(165,0)" x2="0" y2="3" style="fill: none; stroke: #888; stroke-width: 1; opacity: 1;"></line><line transform="translate(356,0)" x2="0" y2="3" style="fill: none; stroke: #888; stroke-width: 1; opacity: 1;"></line><line transform="translate(560,0)" x2="0" y2="3" style="fill: none; stroke: #888; stroke-width: 1; opacity: 1;"></line></g><g class="mark-text role-axis-label" style="pointer-events: none;"><text text-anchor="middle" transform="translate(164.91067338524965,16)" style="font-family: Benton Gothic, sans; font-size: 11.5px; font-weight: normal; fill: #000; opacity: 1;">Feb. 1</text><text text-anchor="middle" transform="translate(356.2070545121393,16)" style="font-family: Benton Gothic, sans; font-size: 11.5px; font-weight: normal; fill: #000; opacity: 1;">Mar. 1</text><text text-anchor="middle" transform="translate(560.4214383875401,16)" style="font-family: Benton Gothic, sans; font-size: 11.5px; font-weight: normal; fill: #000; opacity: 1;">Apr. 1</text></g><g class="mark-rule role-axis-domain" style="pointer-events: none;"><line transform="translate(0,0)" x2="600" y2="0" style="fill: none; stroke: #888; stroke-width: 1; opacity: 1;"></line></g></g><path class="foreground" d="" style="pointer-events: none; display: none; fill: none;"></path></g></g><g class="mark-group role-axis"><g transform="translate(0.5,0.5)"><path class="background" d="M0,0h0v0h0Z" style="pointer-events: none; fill: none;"></path><g><g class="mark-rule role-axis-tick" style="pointer-events: none;"><line transform="translate(0,300)" x2="0" y2="0" style="fill: none; stroke: #888; stroke-width: 1; opacity: 1;"></line><line transform="translate(0,225)" x2="0" y2="0" style="fill: none; stroke: #888; stroke-width: 1; opacity: 1;"></line><line transform="translate(0,150)" x2="0" y2="0" style="fill: none; stroke: #888; stroke-width: 1; opacity: 1;"></line><line transform="translate(0,75)" x2="0" y2="0" style="fill: none; stroke: #888; stroke-width: 1; opacity: 1;"></line><line transform="translate(0,0)" x2="0" y2="0" style="fill: none; stroke: #888; stroke-width: 1; opacity: 1;"></line></g><g class="mark-text role-axis-label" style="pointer-events: none;"><text text-anchor="end" transform="translate(-2,303)" style="font-family: Benton Gothic, sans; font-size: 11.5px; font-weight: normal; fill: #000; opacity: 1;">0k</text><text text-anchor="end" transform="translate(-2,228)" style="font-family: Benton Gothic, sans; font-size: 11.5px; font-weight: normal; fill: #000; opacity: 1;">50k</text><text text-anchor="end" transform="translate(-2,153)" style="font-family: Benton Gothic, sans; font-size: 11.5px; font-weight: normal; fill: #000; opacity: 1;">100k</text><text text-anchor="end" transform="translate(-2,78)" style="font-family: Benton Gothic, sans; font-size: 11.5px; font-weight: normal; fill: #000; opacity: 1;">150k</text><text text-anchor="end" transform="translate(-2,3)" style="font-family: Benton Gothic, sans; font-size: 11.5px; font-weight: normal; fill: #000; opacity: 1;">200k</text></g><g class="mark-rule role-axis-domain" style="pointer-events: none;"><line transform="translate(0,300)" x2="0" y2="-300" style="fill: none; stroke: #888; stroke-opacity: 0; stroke-width: 1; opacity: 1;"></line></g></g><path class="foreground" d="" style="pointer-events: none; display: none; fill: none;"></path></g></g><g class="mark-group role-scope pathgroup"><g transform="translate(0,0)"><path class="background" d="M0,0h600v300h-600Z" style="fill: none;"></path><g><g class="mark-area role-mark marks"><path d="M0,82.098L46.17498854786991,91.41300000000001L92.34997709573982,66.3015L138.5249656436097,84.1725L178.10352725606964,87.21L224.2785158039395,111.62250000000002L270.45350435180944,94.167L316.6284928996794,96.126L369.39990838295927,92.04599999999999L415.3000458085204,97.69799999999998L461.4750343563903,124.014L507.6500229042602,183.90449999999998L553.8250114521301,208.8705L600,213.83249999999998L600,300L553.8250114521301,300L507.6500229042602,300L461.4750343563903,300L415.3000458085204,300L369.39990838295927,300L316.6284928996794,300L270.45350435180944,300L224.2785158039395,300L178.10352725606964,300L138.5249656436097,300L92.34997709573982,300L46.17498854786991,300L0,300Z" style="fill: #a84b24;"></path></g></g><path class="foreground" d="" style="display: none; fill: none;"></path></g><g transform="translate(0,0)"><path class="background" d="M0,0h600v300h-600Z" style="fill: none;"></path><g><g class="mark-area role-mark marks"><path d="M0,26.252999999999993L46.17498854786991,38.121L92.34997709573982,12.309000000000003L138.5249656436097,30.112499999999997L178.10352725606964,31.77899999999999L224.2785158039395,57.544499999999985L270.45350435180944,39.219L316.6284928996794,38.693999999999996L369.39990838295927,36.353999999999985L415.3000458085204,44.285999999999994L461.4750343563903,77.65950000000001L507.6500229042602,155.66400000000002L553.8250114521301,188.0115L600,197.30550000000002L600,200.046L553.8250114521301,191.628L507.6500229042602,161.2965L461.4750343563903,89.07300000000001L415.3000458085204,60.9525L369.39990838295927,55.21649999999999L316.6284928996794,58.68449999999999L270.45350435180944,59.0565L224.2785158039395,75.402L178.10352725606964,51.11399999999999L138.5249656436097,48.04050000000001L92.34997709573982,30.108000000000004L46.17498854786991,55.530000000000015L0,44.86800000000001Z" style="fill: #ec862b;"></path></g></g><path class="foreground" d="" style="display: none; fill: none;"></path></g><g transform="translate(0,0)"><path class="background" d="M0,0h600v300h-600Z" style="fill: none;"></path><g><g class="mark-area role-mark marks"><path d="M0,44.86800000000001L46.17498854786991,55.530000000000015L92.34997709573982,30.108L138.5249656436097,48.04050000000001L178.10352725606964,51.11399999999999L224.2785158039395,75.402L270.45350435180944,59.0565L316.6284928996794,58.68449999999999L369.39990838295927,55.21649999999999L415.3000458085204,60.9525L461.4750343563903,89.07300000000001L507.6500229042602,161.2965L553.8250114521301,191.628L600,200.046L600,213.83249999999998L553.8250114521301,208.8705L507.6500229042602,183.90449999999998L461.4750343563903,124.014L415.3000458085204,97.69799999999998L369.39990838295927,92.04599999999999L316.6284928996794,96.126L270.45350435180944,94.167L224.2785158039395,111.62250000000002L178.10352725606964,87.21L138.5249656436097,84.1725L92.34997709573982,66.3015L46.17498854786991,91.41300000000001L0,82.098Z" style="fill: #fadc90;"></path></g></g><path class="foreground" d="" style="display: none; fill: none;"></path></g></g></g><path class="foreground" d="" style="display: none; fill: none;"></path></g></g></g></svg>