<svg class="marks" width="1716" height="770" viewBox="0 0 858 385" version="1.1" xmlns="http://www.w3.org/2000/svg" xmlns:xlink="http://www.w3.org/1999/xlink"><rect width="858" height="385" style="fill: #ffffff;"></rect><g transform="translate(53,11)"><g class="mark-group role-frame root"><g transform="translate(0,0)"><path class="background" d="M0.5,0.5h800v350h-800Z" style="fill: none; stroke: #ddd; stroke-opacity: 0;"></path><g><g class="mark-group role-axis"><g transform="translate(0.5,0.5)"><path class="background" d="M0,0h0v0h0Z" style="pointer-events: none; fill: none;"></path><g><g class="mark-rule role-axis-grid" style="pointer-events: none;"><line transform="translate(0,350)" x2="800" y2="0" style="fill: none; stroke: #ddd; stroke-width: 1; opacity: 1;"></line><line transform="translate(0,263)" x2="800" y2="0" style="fill: none; stroke: #ddd; stroke-width: 1; opacity: 1;"></line><line transform="translate(0,175)" x2="800" y2="0" style="fill: none; stroke: #ddd; stroke-width: 1; opacity: 1;"></line><line transform="translate(0,88)" x2="800" y2="0" style="fill: none; stroke: #ddd; stroke-width: 1; opacity: 1;"></line><line transform="translate(0,0)" x2="800" y2="0" style="fill: none; stroke: #ddd; stroke-width: 1; opacity: 1;"></line></g></g><path class="foreground" d="" style="pointer-events: none; display: none; fill: none;"></path></g></g><g class="mark-group role-axis"><g transform="translate(0.5,350.5)"><path class="background" d="M0,0h0v0h0Z" style="pointer-events: none; fill: none;"></path><g><g class="mark-rule role-axis-tick" style="pointer-events: none;"><line transform="translate(220,0)" x2="0" y2="3" style="fill: none; stroke: #888; stroke-width: 1; opacity: 1;"></line><line transform="translate(475,0)" x2="0" y2="3" style="fill: none; stroke: #888; stroke-width: 1; opacity: 1;"></line><line transform="translate(747,0)" x2="0" y2="3" style="fill: none; stroke: #888; stroke-width: 1; opacity: 1;"></line></g><g class="mark-text role-axis-label" style="pointer-events: none;"><text text-anchor="middle" transform="translate(219.88089784699955,16)" style="font-family: Benton Gothic, sans; font-size: 11.5px; font-weight: normal; fill: #000; opacity: 1;">Feb. 1</text><text text-anchor="middle" transform="translate(474.942739349519,16)" style="font-family: Benton Gothic, sans; font-size: 11.5px; font-weight: normal; fill: #000; opacity: 1;">Mar. 1</text><text text-anchor="middle" transform="translate(747.2285845167202,16)" style="font-family: Benton Gothic, sans; font-size: 11.5px; font-weight: normal; fill: #000; opacity: 1;">Apr. 1</text></g><g class="mark-rule role-axis-domain" style="pointer-events: none;"><line transform="translate(0,0)" x2="800" y2="0" style="fill: none; stroke: #888; stroke-width: 1; opacity: 1;"></line></g></g><path class="foreground" d="" style="pointer-events: none; display: none; fill: none;"></path></g></g><g class="mark-group role-axis"><g transform="translate(-2.5,0.5)"><path class="background" d="M0,0h0v0h0Z" style="pointer-events: none; fill: none;"></path><g><g class="mark-rule role-axis-tick" style="pointer-events: none;"><line transform="translate(0,350)" x2="0" y2="0" style="fill: none; stroke: #888; stroke-width: 1; opacity: 1;"></line><line transform="translate(0,263)" x2="0" y2="0" style="fill: none; stroke: #888; stroke-width: 1; opacity: 1;"></line><line transform="translate(0,175)" x2="0" y2="0" style="fill: none; stroke: #888; stroke-width: 1; opacity: 1;"></line><line transform="translate(0,88)" x2="0" y2="0" style="fill: none; stroke: #888; stroke-width: 1; opacity: 1;"></line><line transform="translate(0,0)" x2="0" y2="0" style="fill: none; stroke: #888; stroke-width: 1; opacity: 1;"></line></g><g class="mark-text role-axis-label" style="pointer-events: none;"><text text-anchor="end" transform="translate(-2,353)" style="font-family: Benton Gothic, sans; font-size: 11.5px; font-weight: normal; fill: #000; opacity: 1;">0k</text><text text-anchor="end" transform="translate(-2,265.5)" style="font-family: Benton Gothic, sans; font-size: 11.5px; font-weight: normal; fill: #000; opacity: 1;">50k</text><text text-anchor="end" transform="translate(-2,178)" style="font-family: Benton Gothic, sans; font-size: 11.5px; font-weight: normal; fill: #000; opacity: 1;">100k</text><text text-anchor="end" transform="translate(-2,90.5)" style="font-family: Benton Gothic, sans; font-size: 11.5px; font-weight: normal; fill: #000; opacity: 1;">150k</text><text text-anchor="end" transform="translate(-2,3)" style="font-family: Benton Gothic, sans; font-size: 11.5px; font-weight: normal; fill: #000; opacity: 1;">200k</text></g><g class="mark-rule role-axis-domain" style="pointer-events: none;"><line transform="translate(0,350)" x2="0" y2="-350" style="fill: none; stroke: #888; stroke-opacity: 0; stroke-width: 1; opacity: 1;"></line></g></g><path class="foreground" d="" style="pointer-events: none; display: none; fill: none;"></path></g></g><g class="mark-group role-scope pathgroup"><g transform="translate(0,0)"><path class="background" d="M0,0h800v350h-800Z" style="fill: none;"></path><g><g class="mark-area role-mark marks"><path d="M0,95.781L61.56665139715988,106.64850000000001L123.13330279431976,77.35175L184.69995419147963,98.20125L237.4713696747595,101.74499999999999L299.0380210719194,130.22625000000002L360.6046724690792,109.86499999999998L422.17132386623916,112.14700000000002L492.53321117727904,107.387L553.7333944113606,113.98099999999998L615.3000458085204,144.683L676.8666972056802,214.55525L738.4333486028402,243.68224999999998L800,249.47825000000003L800,350L738.4333486028402,350L676.8666972056802,350L615.3000458085204,350L553.7333944113606,350L492.53321117727904,350L422.17132386623916,350L360.6046724690792,350L299.0380210719194,350L237.4713696747595,350L184.69995419147963,350L123.13330279431976,350L61.56665139715988,350L0,350Z" style="fill: #3996b7;"></path></g></g><path class="foreground" d="" style="display: none; fill: none;"></path></g><g transform="translate(0,0)"><path class="background" d="M0,0h800v350h-800Z" style="fill: none;"></path><g><g class="mark-area role-mark marks"><path d="M0,30.628499999999992L61.56665139715988,44.474500000000006L123.13330279431976,14.360500000000004L184.69995419147963,35.131249999999994L237.4713696747595,37.07549999999999L299.0380210719194,67.13524999999998L360.6046724690792,45.758999999999986L422.17132386623916,45.142999999999994L492.53321117727904,42.41299999999998L553.7333944113606,51.66699999999999L615.3000458085204,90.60275L676.8666972056802,181.608L738.4333486028402,219.34675000000001L800,230.19675L800,233.394L738.4333486028402,223.566L676.8666972056802,188.17925L615.3000458085204,103.91850000000001L553.7333944113606,71.11125L492.53321117727904,64.41924999999999L422.17132386623916,68.46525L360.6046724690792,68.90274999999998L299.0380210719194,87.96900000000001L237.4713696747595,59.63299999999999L184.69995419147963,56.04725000000001L123.13330279431976,35.126000000000005L61.56665139715988,64.78500000000001L0,52.34600000000001Z" style="fill: #d9eff4;"></path></g></g><path class="foreground" d="" style="display: none; fill: none;"></path></g><g transform="translate(0,0)"><path class="background" d="M0,0h800v350h-800Z" style="fill: none;"></path><g><g class="mark-area role-mark marks"><path d="M0,52.34600000000001L61.56665139715988,64.78500000000001L123.13330279431976,35.126000000000005L184.69995419147963,56.04725000000001L237.4713696747595,59.63299999999999L299.0380210719194,87.96900000000001L360.6046724690792,68.90274999999998L422.17132386623916,68.46525L492.53321117727904,64.41924999999999L553.7333944113606,71.11125L615.3000458085204,103.91850000000001L676.8666972056802,188.17925L738.4333486028402,223.566L800,233.394L800,249.47825000000003L738.4333486028402,243.68224999999998L676.8666972056802,214.55525L615.3000458085204,144.683L553.7333944113606,113.98099999999998L492.53321117727904,107.387L422.17132386623916,112.14700000000002L360.6046724690792,109.86499999999998L299.0380210719194,130.22625000000002L237.4713696747595,101.74499999999999L184.69995419147963,98.20125L123.13330279431976,77.35175L61.56665139715988,106.64850000000001L0,95.781Z" style="fill: #90d1e2;"></path></g></g><path class="foreground" d="" style="display: none; fill: none;"></path></g></g></g><path class="foreground" d="" style="display: none; fill: none;"></path></g></g></g></svg>