<svg class="marks" width="1710" height="924" viewBox="0 0 855 462" version="1.1" xmlns="http://www.w3.org/2000/svg" xmlns:xlink="http://www.w3.org/1999/xlink"><rect width="855" height="462" style="fill: #ffffff;"></rect><g transform="translate(50,38)"><g class="mark-group role-frame root"><g transform="translate(0,0)"><path class="background" d="M0.5,0.5h800v400h-800Z" style="fill: none; stroke: #ddd;"></path><g><g class="mark-group role-axis"><g transform="translate(0.5,0.5)"><path class="background" d="M0,0h0v0h0Z" style="pointer-events: none; fill: none;"></path><g><g class="mark-rule role-axis-grid" style="pointer-events: none;"><line transform="translate(0,400)" x2="800" y2="0" style="fill: none; stroke: #ddd; stroke-width: 1; opacity: 1;"></line><line transform="translate(0,300)" x2="800" y2="0" style="fill: none; stroke: #ddd; stroke-width: 1; opacity: 1;"></line><line transform="translate(0,200)" x2="800" y2="0" style="fill: none; stroke: #ddd; stroke-width: 1; opacity: 1;"></line><line transform="translate(0,100)" x2="800" y2="0" style="fill: none; stroke: #ddd; stroke-width: 1; opacity: 1;"></line><line transform="translate(0,0)" x2="800" y2="0" style="fill: none; stroke: #ddd; stroke-width: 1; opacity: 1;"></line></g></g><path class="foreground" d="" style="pointer-events: none; display: none; fill: none;"></path></g></g><g class="mark-group role-axis"><g transform="translate(0.5,400.5)"><path class="background" d="M0,0h0v0h0Z" style="pointer-events: none; fill: none;"></path><g><g class="mark-rule role-axis-tick" style="pointer-events: none;"><line transform="translate(220,0)" x2="0" y2="3" style="fill: none; stroke: #888; stroke-width: 1; opacity: 1;"></line><line transform="translate(475,0)" x2="0" y2="3" style="fill: none; stroke: #888; stroke-width: 1; opacity: 1;"></line><line transform="translate(747,0)" x2="0" y2="3" style="fill: none; stroke: #888; stroke-width: 1; opacity: 1;"></line></g><g class="mark-text role-axis-label" style="pointer-events: none;"><text text-anchor="middle" transform="translate(219.88089784699955,16)" style="font-family: Benton Gothic, sans; font-size: 11.5px; font-weight: normal; fill: #000; opacity: 1;">02/01</text><text text-anchor="middle" transform="translate(474.942739349519,16)" style="font-family: Benton Gothic, sans; font-size: 11.5px; font-weight: normal; fill: #000; opacity: 1;">03/01</text><text text-anchor="middle" transform="translate(747.2285845167202,16)" style="font-family: Benton Gothic, sans; font-size: 11.5px; font-weight: normal; fill: #000; opacity: 1;">04/01</text></g><g class="mark-rule role-axis-domain" style="pointer-events: none;"><line transform="translate(0,0)" x2="800" y2="0" style="fill: none; stroke: #888; stroke-width: 1; opacity: 1;"></line></g></g><path class="foreground" d="" style="pointer-events: none; display: none; fill: none;"></path></g></g><g class="mark-group role-axis"><g transform="translate(0.5,0.5)"><path class="background" d="M0,0h0v0h0Z" style="pointer-events: none; fill: none;"></path><g><g class="mark-rule role-axis-tick" style="pointer-events: none;"><line transform="translate(0,400)" x2="0" y2="0" style="fill: none; stroke: #888; stroke-width: 1; opacity: 1;"></line><line transform="translate(0,300)" x2="0" y2="0" style="fill: none; stroke: #888; stroke-width: 1; opacity: 1;"></line><line transform="translate(0,200)" x2="0" y2="0" style="fill: none; stroke: #888; stroke-width: 1; opacity: 1;"></line><line transform="translate(0,100)" x2="0" y2="0" style="fill: none; stroke: #888; stroke-width: 1; opacity: 1;"></line><line transform="translate(0,0)" x2="0" y2="0" style="fill: none; stroke: #888; stroke-width: 1; opacity: 1;"></line></g><g class="mark-text role-axis-label" style="pointer-events: none;"><text text-anchor="end" transform="translate(-2,403)" style="font-family: Benton Gothic, sans; font-size: 11.5px; font-weight: normal; fill: #000; opacity: 1;">0k</text><text text-anchor="end" transform="translate(-2,303)" style="font-family: Benton Gothic, sans; font-size: 11.5px; font-weight: normal; fill: #000; opacity: 1;">50k</text><text text-anchor="end" transform="translate(-2,203)" style="font-family: Benton Gothic, sans; font-size: 11.5px; font-weight: normal; fill: #000; opacity: 1;">100k</text><text text-anchor="end" transform="translate(-2,103)" style="font-family: Benton Gothic, sans; font-size: 11.5px; font-weight: normal; fill: #000; opacity: 1;">150k</text><text text-anchor="end" transform="translate(-2,3)" style="font-family: Benton Gothic, sans; font-size: 11.5px; font-weight: normal; fill: #000; opacity: 1;">200k</text></g><g class="mark-rule role-axis-domain" style="pointer-events: none;"><line transform="translate(0,400)" x2="0" y2="-400" style="fill: none; stroke: #888; stroke-opacity: 0; stroke-width: 1; opacity: 1;"></line></g></g><path class="foreground" d="" style="pointer-events: none; display: none; fill: none;"></path></g></g><g class="mark-group role-scope pathgroup"><g transform="translate(0,0)"><path class="background" d="M0,0h800v400h-800Z" style="fill: none;"></path><g><g class="mark-area role-mark marks"><path d="M0,109.592L61.56665139715988,121.95200000000001L123.13330279431976,88.524L184.69995419147963,112.31599999999999L237.4713696747595,116.37400000000002L299.0380210719194,148.936L360.6046724690792,125.65200000000002L422.17132386623916,128.26399999999998L492.53321117727904,122.82799999999997L553.7333944113606,130.36599999999999L615.3000458085204,165.45200000000003L676.8666972056802,245.28799999999998L738.4333486028402,278.55600000000004L800,285.182L800,400L738.4333486028402,400L676.8666972056802,400L615.3000458085204,400L553.7333944113606,400L492.53321117727904,400L422.17132386623916,400L360.6046724690792,400L299.0380210719194,400L237.4713696747595,400L184.69995419147963,400L123.13330279431976,400L61.56665139715988,400L0,400Z" style="fill: #ab7fb4;"></path></g></g><path class="foreground" d="" style="display: none; fill: none;"></path></g><g transform="translate(0,0)"><path class="background" d="M0,0h800v400h-800Z" style="fill: none;"></path><g><g class="mark-area role-mark marks"><path d="M0,35.24600000000002L61.56665139715988,51.01399999999998L123.13330279431976,16.658000000000015L184.69995419147963,40.379999999999995L237.4713696747595,42.59400000000002L299.0380210719194,76.92399999999999L360.6046724690792,52.49600000000001L422.17132386623916,51.80600000000002L492.53321117727904,48.684L553.7333944113606,59.28200000000001L615.3000458085204,103.75800000000001L676.8666972056802,207.714L738.4333486028402,250.794L800,263.21000000000004L800,266.864L738.4333486028402,255.616L676.8666972056802,215.224L615.3000458085204,118.97600000000001L553.7333944113606,81.50400000000002L492.53321117727904,73.834L422.17132386623916,78.46000000000002L360.6046724690792,78.946L299.0380210719194,100.73400000000001L237.4713696747595,68.37399999999998L184.69995419147963,64.284L123.13330279431976,40.390000000000015L61.56665139715988,74.22399999999998L0,60.065999999999995Z" style="fill: #3580b1;"></path></g></g><path class="foreground" d="" style="display: none; fill: none;"></path></g><g transform="translate(0,0)"><path class="background" d="M0,0h800v400h-800Z" style="fill: none;"></path><g><g class="mark-area role-mark marks"><path d="M0,60.065999999999995L61.56665139715988,74.22399999999998L123.13330279431976,40.390000000000015L184.69995419147963,64.284L237.4713696747595,68.37399999999998L299.0380210719194,100.73400000000001L360.6046724690792,78.946L422.17132386623916,78.46000000000002L492.53321117727904,73.834L553.7333944113606,81.50400000000002L615.3000458085204,118.97600000000001L676.8666972056802,215.224L738.4333486028402,255.616L800,266.864L800,285.182L738.4333486028402,278.55600000000004L676.8666972056802,245.28799999999998L615.3000458085204,165.45200000000003L553.7333944113606,130.36599999999999L492.53321117727904,122.82799999999997L422.17132386623916,128.26399999999998L360.6046724690792,125.65200000000002L299.0380210719194,148.936L237.4713696747595,116.37400000000002L184.69995419147963,112.31599999999999L123.13330279431976,88.524L61.56665139715988,121.95200000000001L0,109.592Z" style="fill: #ec8431;"></path></g></g><path class="foreground" d="" style="display: none; fill: none;"></path></g></g><g class="mark-group role-title"><g transform="translate(-45,-32)"><path class="background" d="M0,0h0v0h0Z" style="pointer-events: none; fill: none;"></path><g><g class="mark-text role-title-text" style="pointer-events: none;"><text text-anchor="start" transform="translate(0,17)" style="font-family: Benton Gothic Bold, sans; font-size: 22px; font-weight: normal; fill: #000; opacity: 1;">Global flights each Tuesday: Jan. 7 to April 7</text></g></g><path class="foreground" d="" style="pointer-events: none; display: none; fill: none;"></path></g></g></g><path class="foreground" d="" style="display: none; fill: none;"></path></g></g></g></svg>