<svg class="marks" width="1718" height="1058" viewBox="0 0 859 529" version="1.1" xmlns="http://www.w3.org/2000/svg" xmlns:xlink="http://www.w3.org/1999/xlink"><rect width="859" height="529" style="fill: #ffffff;"></rect><g transform="translate(50,5)"><g class="mark-group role-frame root"><g transform="translate(0,0)"><path class="background" d="M0.5,0.5h800v500h-800Z" style="fill: none; stroke: #ddd;"></path><g><g class="mark-group role-axis"><g transform="translate(0.5,0.5)"><path class="background" d="M0,0h0v0h0Z" style="pointer-events: none; fill: none;"></path><g><g class="mark-rule role-axis-grid" style="pointer-events: none;"><line transform="translate(0,500)" x2="800" y2="0" style="fill: none; stroke: #dddddd; stroke-width: 0.8; opacity: 1;"></line><line transform="translate(0,411)" x2="800" y2="0" style="fill: none; stroke: #dddddd; stroke-width: 0.8; opacity: 1;"></line><line transform="translate(0,321)" x2="800" y2="0" style="fill: none; stroke: #dddddd; stroke-width: 0.8; opacity: 1;"></line><line transform="translate(0,232)" x2="800" y2="0" style="fill: none; stroke: #dddddd; stroke-width: 0.8; opacity: 1;"></line><line transform="translate(0,143)" x2="800" y2="0" style="fill: none; stroke: #dddddd; stroke-width: 0.8; opacity: 1;"></line><line transform="translate(0,54)" x2="800" y2="0" style="fill: none; stroke: #dddddd; stroke-width: 0.8; opacity: 1;"></line></g></g><path class="foreground" d="" style="pointer-events: none; display: none; fill: none;"></path></g></g><g class="mark-group role-axis"><g transform="translate(0.5,500.5)"><path class="background" d="M0,0h0v0h0Z" style="pointer-events: none; fill: none;"></path><g><g class="mark-rule role-axis-tick" style="pointer-events: none;"><line transform="translate(0,0)" x2="0" y2="3" style="fill: none; stroke: #888; stroke-width: 1; opacity: 1;"></line><line transform="translate(140,0)" x2="0" y2="3" style="fill: none; stroke: #888; stroke-width: 1; opacity: 1;"></line><line transform="translate(279,0)" x2="0" y2="3" style="fill: none; stroke: #888; stroke-width: 1; opacity: 1;"></line><line transform="translate(420,0)" x2="0" y2="3" style="fill: none; stroke: #888; stroke-width: 1; opacity: 1;"></line><line transform="translate(560,0)" x2="0" y2="3" style="fill: none; stroke: #888; stroke-width: 1; opacity: 1;"></line><line transform="translate(700,0)" x2="0" y2="3" style="fill: none; stroke: #888; stroke-width: 1; opacity: 1;"></line></g><g class="mark-text role-axis-label" style="pointer-events: none;"><text text-anchor="middle" transform="translate(0,16)" style="font-family: Benton Gothic, sans; font-size: 11.5px; font-weight: normal; fill: #000; opacity: 1;">Mar 01</text><text text-anchor="middle" transform="translate(140.14598540145985,16)" style="font-family: Benton Gothic, sans; font-size: 11.5px; font-weight: normal; fill: #000; opacity: 1;">Mar 08</text><text text-anchor="middle" transform="translate(279.4577685088634,16)" style="font-family: Benton Gothic, sans; font-size: 11.5px; font-weight: normal; fill: #000; opacity: 1;">Mar 15</text><text text-anchor="middle" transform="translate(419.6037539103233,16)" style="font-family: Benton Gothic, sans; font-size: 11.5px; font-weight: normal; fill: #000; opacity: 1;">Mar 22</text><text text-anchor="middle" transform="translate(559.7497393117832,16)" style="font-family: Benton Gothic, sans; font-size: 11.5px; font-weight: normal; fill: #000; opacity: 1;">Mar 29</text><text text-anchor="middle" transform="translate(699.895724713243,16)" style="font-family: Benton Gothic, sans; font-size: 11.5px; font-weight: normal; fill: #000; opacity: 1;">Apr 05</text></g><g class="mark-rule role-axis-domain" style="pointer-events: none;"><line transform="translate(0,0)" x2="800" y2="0" style="fill: none; stroke: #888; stroke-width: 1; opacity: 1;"></line></g></g><path class="foreground" d="" style="pointer-events: none; display: none; fill: none;"></path></g></g><g class="mark-group role-axis"><g transform="translate(0.5,0.5)"><path class="background" d="M0,0h0v0h0Z" style="pointer-events: none; fill: none;"></path><g><g class="mark-rule role-axis-tick" style="pointer-events: none;"><line transform="translate(0,500)" x2="-2" y2="0" style="fill: none; stroke: #888; stroke-width: 1; opacity: 1;"></line><line transform="translate(0,411)" x2="-2" y2="0" style="fill: none; stroke: #888; stroke-width: 1; opacity: 1;"></line><line transform="translate(0,321)" x2="-2" y2="0" style="fill: none; stroke: #888; stroke-width: 1; opacity: 1;"></line><line transform="translate(0,232)" x2="-2" y2="0" style="fill: none; stroke: #888; stroke-width: 1; opacity: 1;"></line><line transform="translate(0,143)" x2="-2" y2="0" style="fill: none; stroke: #888; stroke-width: 1; opacity: 1;"></line><line transform="translate(0,54)" x2="-2" y2="0" style="fill: none; stroke: #888; stroke-width: 1; opacity: 1;"></line></g><g class="mark-text role-axis-label" style="pointer-events: none;"><text text-anchor="end" transform="translate(-4,503)" style="font-family: Benton Gothic, sans; font-size: 11.5px; font-weight: normal; fill: #000; opacity: 1;">0.0M</text><text text-anchor="end" transform="translate(-4,413.7142857142857)" style="font-family: Benton Gothic, sans; font-size: 11.5px; font-weight: normal; fill: #000; opacity: 1;">0.5M</text><text text-anchor="end" transform="translate(-4,324.4285714285714)" style="font-family: Benton Gothic, sans; font-size: 11.5px; font-weight: normal; fill: #000; opacity: 1;">1.0M</text><text text-anchor="end" transform="translate(-4,235.14285714285714)" style="font-family: Benton Gothic, sans; font-size: 11.5px; font-weight: normal; fill: #000; opacity: 1;">1.5M</text><text text-anchor="end" transform="translate(-4,145.85714285714286)" style="font-family: Benton Gothic, sans; font-size: 11.5px; font-weight: normal; fill: #000; opacity: 1;">2.0M</text><text text-anchor="end" transform="translate(-4,56.57142857142855)" style="font-family: Benton Gothic, sans; font-size: 11.5px; font-weight: normal; fill: #000; opacity: 1;">2.5M</text></g><g class="mark-rule role-axis-domain" style="pointer-events: none;"><line transform="translate(0,500)" x2="0" y2="-500" style="fill: none; stroke: #888; stroke-width: 1; opacity: 1;"></line></g></g><path class="foreground" d="" style="pointer-events: none; display: none; fill: none;"></path></g></g><g class="mark-group role-scope pathgroup"><g transform="translate(0,0)"><path class="background" d="M0,0h800v500h-800Z" style="fill: none;"></path><g><g class="mark-line role-mark marks"><path d="M0,92.76392857142856L20.020855057351408,126.84982142857143L40.041710114702816,189.92982142857144L60.06256517205423,164.7498214285714L80.08342022940563,119.64017857142856L100.10427528675704,107.40767857142858L120.12513034410846,170.56946428571428L140.14598540145985,121.45232142857142L159.33263816475497,159.04232142857146L179.35349322210635,211.21071428571432L199.37434827945776,195.94892857142858L219.39520333680917,180.63285714285715L239.41605839416061,193.86214285714289L259.436913451512,234.7226785714286L279.4577685088634,228.7157142857143L299.4786235662148,275.38874999999996L319.49947862356623,329.69660714285715L339.5203336809176,360.78017857142856L359.54118873826906,389.1280357142857L379.5620437956204,394.07732142857145L399.5828988529718,402.11928571428575L419.6037539103233,418.83642857142854L439.62460896767465,440.81589285714284L459.64546402502606,450.1753571428572L479.6663190823775,457.27964285714285L499.6871741397289,463.5967857142857L519.7080291970802,464.3492857142857L539.7288842544317,467.1380357142857L559.7497393117832,467.8567857142857L579.7705943691345,472.48571428571427L599.7914494264859,473.86642857142857L619.8123044838374,475.71017857142857L639.8331595411887,477.85339285714286L659.8540145985402,476.8280357142857L679.8748696558915,478.8746428571429L699.895724713243,478.20910714285714L719.9165797705944,480.65892857142853L739.9374348279457,482.6553571428571L759.9582898852972,483.04803571428573L779.9791449426486,481.4125L800,480.53982142857143" style="fill: none; stroke: #82C6DF; stroke-width: 4;"></path></g></g><path class="foreground" d="" style="display: none; fill: none;"></path></g><g transform="translate(0,0)"><path class="background" d="M0,0h800v500h-800Z" style="fill: none;"></path><g><g class="mark-line role-mark marks"><path d="M0,89.02874999999999L20.020855057351408,96.8L40.041710114702816,146.50750000000002L60.06256517205423,117.21089285714287L80.08342022940563,70.94785714285712L100.10427528675704,45.76982142857145L120.12513034410846,114.95321428571431L140.14598540145985,56.17321428571431L159.33263816475497,75.23696428571431L179.35349322210635,120.91107142857143L199.37434827945776,109.41107142857143L219.39520333680917,52.87071428571427L239.41605839416061,29.604464285714283L259.436913451512,93.81107142857142L279.4577685088634,45.40321428571431L299.4786235662148,59.69482142857141L319.49947862356623,111.08410714285716L339.5203336809176,85.55625L359.54118873826906,51.20875000000002L379.5620437956204,42.98089285714285L399.5828988529718,102.28910714285716L419.6037539103233,45.95660714285715L439.62460896767465,65.29107142857143L459.64546402502606,115.72982142857141L479.6663190823775,93.96232142857141L499.6871741397289,55.86392857142858L519.7080291970802,46.717142857142846L539.7288842544317,111.97857142857143L559.7497393117832,51.73321428571431L579.7705943691345,78.56196428571427L599.7914494264859,138.16857142857143L619.8123044838374,115.78107142857141L639.8331595411887,69.37500000000001L659.8540145985402,57.69928571428573L679.8748696558915,140.76517857142855L699.895724713243,60.191249999999975L719.9165797705944,74.26946428571429L739.9374348279457,126.59714285714286L759.9582898852972,101.91499999999998L779.9791449426486,55.821785714285696L800,37.41089285714283" style="fill: none; stroke: #006D8F; stroke-width: 4;"></path></g></g><path class="foreground" d="" style="display: none; fill: none;"></path></g></g></g><path class="foreground" d="" style="display: none; fill: none;"></path></g></g></g></svg>