<svg class="marks" width="762" height="558" viewBox="0 0 381 279" version="1.1" xmlns="http://www.w3.org/2000/svg" xmlns:xlink="http://www.w3.org/1999/xlink"><rect width="381" height="279" style="fill: #ffffff;"></rect><g transform="translate(53,5)"><g class="mark-group role-frame root"><g transform="translate(0,0)"><path class="background" d="M0.5,0.5h320v250h-320Z" style="fill: none; stroke: #ddd; stroke-opacity: 0;"></path><g><g class="mark-group role-axis"><g transform="translate(0.5,0.5)"><path class="background" d="M0,0h0v0h0Z" style="pointer-events: none; fill: none;"></path><g><g class="mark-rule role-axis-grid" style="pointer-events: none;"><line transform="translate(0,250)" x2="320" y2="0" style="fill: none; stroke: #dddddd; stroke-width: 0.6; opacity: 1;"></line><line transform="translate(0,205)" x2="320" y2="0" style="fill: none; stroke: #dddddd; stroke-width: 0.6; opacity: 1;"></line><line transform="translate(0,161)" x2="320" y2="0" style="fill: none; stroke: #dddddd; stroke-width: 0.6; opacity: 1;"></line><line transform="translate(0,116)" x2="320" y2="0" style="fill: none; stroke: #dddddd; stroke-width: 0.6; opacity: 1;"></line><line transform="translate(0,71)" x2="320" y2="0" style="fill: none; stroke: #dddddd; stroke-width: 0.6; opacity: 1;"></line><line transform="translate(0,27)" x2="320" y2="0" style="fill: none; stroke: #dddddd; stroke-width: 0.6; opacity: 1;"></line></g></g><path class="foreground" d="" style="pointer-events: none; display: none; fill: none;"></path></g></g><g class="mark-group role-axis"><g transform="translate(0.5,250.5)"><path class="background" d="M0,0h0v0h0Z" style="pointer-events: none; fill: none;"></path><g><g class="mark-rule role-axis-tick" style="pointer-events: none;"><line transform="translate(0,0)" x2="0" y2="3" style="fill: none; stroke: #888; stroke-width: 1; opacity: 1;"></line><line transform="translate(211,0)" x2="0" y2="3" style="fill: none; stroke: #888; stroke-width: 1; opacity: 1;"></line></g><g class="mark-text role-axis-label" style="pointer-events: none;"><text text-anchor="middle" transform="translate(0,16)" style="font-family: Benton Gothic, sans; font-size: 11.5px; font-weight: normal; fill: #000; opacity: 1;">Mar. 1</text><text text-anchor="middle" transform="translate(210.96716947648622,16)" style="font-family: Benton Gothic, sans; font-size: 11.5px; font-weight: normal; fill: #000; opacity: 1;">Apr. 1</text></g><g class="mark-rule role-axis-domain" style="pointer-events: none;"><line transform="translate(0,0)" x2="320" y2="0" style="fill: none; stroke: #888; stroke-width: 1; opacity: 1;"></line></g></g><path class="foreground" d="" style="pointer-events: none; display: none; fill: none;"></path></g></g><g class="mark-group role-axis"><g transform="translate(-2.5,0.5)"><path class="background" d="M0,0h0v0h0Z" style="pointer-events: none; fill: none;"></path><g><g class="mark-rule role-axis-tick" style="pointer-events: none;"><line transform="translate(0,250)" x2="0" y2="0" style="fill: none; stroke: #888; stroke-width: 1; opacity: 1;"></line><line transform="translate(0,205)" x2="0" y2="0" style="fill: none; stroke: #888; stroke-width: 1; opacity: 1;"></line><line transform="translate(0,161)" x2="0" y2="0" style="fill: none; stroke: #888; stroke-width: 1; opacity: 1;"></line><line transform="translate(0,116)" x2="0" y2="0" style="fill: none; stroke: #888; stroke-width: 1; opacity: 1;"></line><line transform="translate(0,71)" x2="0" y2="0" style="fill: none; stroke: #888; stroke-width: 1; opacity: 1;"></line><line transform="translate(0,27)" x2="0" y2="0" style="fill: none; stroke: #888; stroke-width: 1; opacity: 1;"></line></g><g class="mark-text role-axis-label" style="pointer-events: none;"><text text-anchor="end" transform="translate(-2,253)" style="font-family: Benton Gothic, sans; font-size: 11.5px; font-weight: normal; fill: #000; opacity: 1;">0.0M</text><text text-anchor="end" transform="translate(-2,208.35714285714286)" style="font-family: Benton Gothic, sans; font-size: 11.5px; font-weight: normal; fill: #000; opacity: 1;">0.5M</text><text text-anchor="end" transform="translate(-2,163.7142857142857)" style="font-family: Benton Gothic, sans; font-size: 11.5px; font-weight: normal; fill: #000; opacity: 1;">1.0M</text><text text-anchor="end" transform="translate(-2,119.07142857142857)" style="font-family: Benton Gothic, sans; font-size: 11.5px; font-weight: normal; fill: #000; opacity: 1;">1.5M</text><text text-anchor="end" transform="translate(-2,74.42857142857143)" style="font-family: Benton Gothic, sans; font-size: 11.5px; font-weight: normal; fill: #000; opacity: 1;">2.0M</text><text text-anchor="end" transform="translate(-2,29.785714285714274)" style="font-family: Benton Gothic, sans; font-size: 11.5px; font-weight: normal; fill: #000; opacity: 1;">2.5M</text></g><g class="mark-rule role-axis-domain" style="pointer-events: none;"><line transform="translate(0,250)" x2="0" y2="-250" style="fill: none; stroke: #888; stroke-opacity: 0; stroke-width: 1; opacity: 1;"></line></g></g><path class="foreground" d="" style="pointer-events: none; display: none; fill: none;"></path></g></g><g class="mark-group role-scope pathgroup"><g transform="translate(0,0)"><path class="background" d="M0,0h320v250h-320Z" style="fill: none;"></path><g><g class="mark-line role-mark marks"><path d="M0,46.38196428571428L6.8145519077196095,63.424910714285716L13.629103815439219,94.96491071428572L20.443655723158827,82.3749107142857L27.258207630878438,59.82008928571428L34.07275953859805,53.70383928571429L40.88731144631765,85.28473214285714L47.70186335403727,60.72616071428571L54.232475598935224,79.52116071428573L61.04702750665483,105.60535714285716L67.86157941437445,97.97446428571429L74.67613132209405,90.31642857142857L81.49068322981365,96.93107142857144L88.30523513753327,117.3613392857143L95.11978704525289,114.35785714285716L101.93433895297248,137.69437499999998L108.7488908606921,164.84830357142857L115.56344276841172,180.39008928571428L122.37799467613132,194.56401785714286L129.1925465838509,197.03866071428573L136.00709849157053,201.05964285714288L142.82165039929015,209.41821428571427L149.63620230700974,220.40794642857142L156.45075421472936,225.0876785714286L163.26530612244898,228.63982142857142L170.07985803016857,231.79839285714286L176.8944099378882,232.17464285714286L183.7089618456078,233.56901785714285L190.5235137533274,233.92839285714285L197.33806566104704,236.24285714285713L204.15261756876663,236.93321428571429L210.96716947648622,237.85508928571429L217.78172138420587,238.92669642857143L224.59627329192546,238.41401785714285L231.41082519964505,239.43732142857144L238.2253771073647,239.10455357142857L245.03992901508428,240.32946428571427L251.85448092280387,241.32767857142855L258.6690328305235,241.52401785714287L265.4835847382431,240.70625L272.29813664596276,240.26991071428571L279.11268855368235,241.63883928571428L285.92724046140194,241.91875L292.7417923691216,240.87642857142856L299.5563442768412,242.18446428571428L306.37089618456076,241.89428571428573L313.1854480922804,241.51026785714285L320,240.5013392857143" style="fill: none; stroke: #c2dfe4; stroke-width: 3;"></path></g></g><path class="foreground" d="" style="display: none; fill: none;"></path></g><g transform="translate(0,0)"><path class="background" d="M0,0h320v250h-320Z" style="fill: none;"></path><g><g class="mark-line role-mark marks"><path d="M0,44.514374999999994L6.8145519077196095,48.4L13.629103815439219,73.25375000000001L20.443655723158827,58.60544642857143L27.258207630878438,35.47392857142856L34.07275953859805,22.884910714285724L40.88731144631765,57.476607142857155L47.70186335403727,28.086607142857154L54.232475598935224,37.618482142857154L61.04702750665483,60.455535714285716L67.86157941437445,54.705535714285716L74.67613132209405,26.435357142857136L81.49068322981365,14.802232142857141L88.30523513753327,46.90553571428571L95.11978704525289,22.701607142857156L101.93433895297248,29.847410714285704L108.7488908606921,55.54205357142858L115.56344276841172,42.778125L122.37799467613132,25.60437500000001L129.1925465838509,21.490446428571424L136.00709849157053,51.14455357142858L142.82165039929015,22.978303571428576L149.63620230700974,32.645535714285714L156.45075421472936,57.864910714285706L163.26530612244898,46.98116071428571L170.07985803016857,27.93196428571429L176.8944099378882,23.358571428571423L183.7089618456078,55.989285714285714L190.5235137533274,25.866607142857156L197.33806566104704,39.280982142857134L204.15261756876663,69.08428571428571L210.96716947648622,57.890535714285704L217.78172138420587,34.68750000000001L224.59627329192546,28.849642857142864L231.41082519964505,70.38258928571427L238.2253771073647,30.095624999999988L245.03992901508428,37.134732142857146L251.85448092280387,63.29857142857143L258.6690328305235,50.95749999999999L265.4835847382431,27.910892857142848L272.29813664596276,18.705446428571413L279.11268855368235,66.14803571428571L285.92724046140194,31.53562500000001L292.7417923691216,28.16250000000001L299.5563442768412,52.79571428571428L306.37089618456076,43.09098214285714L313.1854480922804,16.414464285714274L320,30.61312499999999" style="fill: none; stroke: #065360; stroke-width: 3;"></path></g></g><path class="foreground" d="" style="display: none; fill: none;"></path></g></g></g><path class="foreground" d="" style="display: none; fill: none;"></path></g></g></g></svg>