<svg class="marks" width="1754" height="958" viewBox="0 0 877 479" version="1.1" xmlns="http://www.w3.org/2000/svg" xmlns:xlink="http://www.w3.org/1999/xlink"><rect width="877" height="479" style="fill: #ffffff;"></rect><g transform="translate(53,5)"><g class="mark-group role-frame root"><g transform="translate(0,0)"><path class="background" d="M0.5,0.5h800v450h-800Z" style="fill: none; stroke: #ddd; stroke-opacity: 0;"></path><g><g class="mark-group role-axis"><g transform="translate(0.5,0.5)"><path class="background" d="M0,0h0v0h0Z" style="pointer-events: none; fill: none;"></path><g><g class="mark-rule role-axis-grid" style="pointer-events: none;"><line transform="translate(0,450)" x2="800" y2="0" style="fill: none; stroke: #dddddd; stroke-width: 0.6; opacity: 1;"></line><line transform="translate(0,370)" x2="800" y2="0" style="fill: none; stroke: #dddddd; stroke-width: 0.6; opacity: 1;"></line><line transform="translate(0,289)" x2="800" y2="0" style="fill: none; stroke: #dddddd; stroke-width: 0.6; opacity: 1;"></line><line transform="translate(0,209)" x2="800" y2="0" style="fill: none; stroke: #dddddd; stroke-width: 0.6; opacity: 1;"></line><line transform="translate(0,129)" x2="800" y2="0" style="fill: none; stroke: #dddddd; stroke-width: 0.6; opacity: 1;"></line><line transform="translate(0,48)" x2="800" y2="0" style="fill: none; stroke: #dddddd; stroke-width: 0.6; opacity: 1;"></line></g></g><path class="foreground" d="" style="pointer-events: none; display: none; fill: none;"></path></g></g><g class="mark-group role-axis"><g transform="translate(0.5,450.5)"><path class="background" d="M0,0h0v0h0Z" style="pointer-events: none; fill: none;"></path><g><g class="mark-rule role-axis-tick" style="pointer-events: none;"><line transform="translate(0,0)" x2="0" y2="3" style="fill: none; stroke: #888; stroke-width: 1; opacity: 1;"></line><line transform="translate(100,0)" x2="0" y2="3" style="fill: none; stroke: #888; stroke-width: 1; opacity: 1;"></line><line transform="translate(200,0)" x2="0" y2="3" style="fill: none; stroke: #888; stroke-width: 1; opacity: 1;"></line><line transform="translate(300,0)" x2="0" y2="3" style="fill: none; stroke: #888; stroke-width: 1; opacity: 1;"></line><line transform="translate(400,0)" x2="0" y2="3" style="fill: none; stroke: #888; stroke-width: 1; opacity: 1;"></line><line transform="translate(500,0)" x2="0" y2="3" style="fill: none; stroke: #888; stroke-width: 1; opacity: 1;"></line><line transform="translate(600,0)" x2="0" y2="3" style="fill: none; stroke: #888; stroke-width: 1; opacity: 1;"></line><line transform="translate(700,0)" x2="0" y2="3" style="fill: none; stroke: #888; stroke-width: 1; opacity: 1;"></line><line transform="translate(800,0)" x2="0" y2="3" style="fill: none; stroke: #888; stroke-width: 1; opacity: 1;"></line></g><g class="mark-text role-axis-label" style="pointer-events: none;"><text text-anchor="middle" transform="translate(0,16)" style="font-family: Benton Gothic, sans; font-size: 11.5px; font-weight: normal; fill: #000; opacity: 1;">Mar. 1</text><text text-anchor="middle" transform="translate(100.07446016381236,16)" style="font-family: Benton Gothic, sans; font-size: 11.5px; font-weight: normal; fill: #000; opacity: 1;">Mar. 8</text><text text-anchor="middle" transform="translate(199.55323901712583,16)" style="font-family: Benton Gothic, sans; font-size: 11.5px; font-weight: normal; fill: #000; opacity: 1;">Mar. 15</text><text text-anchor="middle" transform="translate(299.62769918093824,16)" style="font-family: Benton Gothic, sans; font-size: 11.5px; font-weight: normal; fill: #000; opacity: 1;">Mar. 22</text><text text-anchor="middle" transform="translate(399.70215934475056,16)" style="font-family: Benton Gothic, sans; font-size: 11.5px; font-weight: normal; fill: #000; opacity: 1;">Mar. 29</text><text text-anchor="middle" transform="translate(499.7766195085629,16)" style="font-family: Benton Gothic, sans; font-size: 11.5px; font-weight: normal; fill: #000; opacity: 1;">Apr. 5</text><text text-anchor="middle" transform="translate(599.8510796723754,16)" style="font-family: Benton Gothic, sans; font-size: 11.5px; font-weight: normal; fill: #000; opacity: 1;">Apr. 12</text><text text-anchor="middle" transform="translate(699.9255398361877,16)" style="font-family: Benton Gothic, sans; font-size: 11.5px; font-weight: normal; fill: #000; opacity: 1;">Apr. 19</text><text text-anchor="middle" transform="translate(800,16)" style="font-family: Benton Gothic, sans; font-size: 11.5px; font-weight: normal; fill: #000; opacity: 1;">Apr. 26</text></g><g class="mark-rule role-axis-domain" style="pointer-events: none;"><line transform="translate(0,0)" x2="800" y2="0" style="fill: none; stroke: #888; stroke-width: 1; opacity: 1;"></line></g></g><path class="foreground" d="" style="pointer-events: none; display: none; fill: none;"></path></g></g><g class="mark-group role-axis"><g transform="translate(-2.5,0.5)"><path class="background" d="M0,0h0v0h0Z" style="pointer-events: none; fill: none;"></path><g><g class="mark-rule role-axis-tick" style="pointer-events: none;"><line transform="translate(0,450)" x2="0" y2="0" style="fill: none; stroke: #888; stroke-width: 1; opacity: 1;"></line><line transform="translate(0,370)" x2="0" y2="0" style="fill: none; stroke: #888; stroke-width: 1; opacity: 1;"></line><line transform="translate(0,289)" x2="0" y2="0" style="fill: none; stroke: #888; stroke-width: 1; opacity: 1;"></line><line transform="translate(0,209)" x2="0" y2="0" style="fill: none; stroke: #888; stroke-width: 1; opacity: 1;"></line><line transform="translate(0,129)" x2="0" y2="0" style="fill: none; stroke: #888; stroke-width: 1; opacity: 1;"></line><line transform="translate(0,48)" x2="0" y2="0" style="fill: none; stroke: #888; stroke-width: 1; opacity: 1;"></line></g><g class="mark-text role-axis-label" style="pointer-events: none;"><text text-anchor="end" transform="translate(-2,453)" style="font-family: Benton Gothic, sans; font-size: 11.5px; font-weight: normal; fill: #000; opacity: 1;">0.0M</text><text text-anchor="end" transform="translate(-2,372.6428571428571)" style="font-family: Benton Gothic, sans; font-size: 11.5px; font-weight: normal; fill: #000; opacity: 1;">0.5M</text><text text-anchor="end" transform="translate(-2,292.2857142857143)" style="font-family: Benton Gothic, sans; font-size: 11.5px; font-weight: normal; fill: #000; opacity: 1;">1.0M</text><text text-anchor="end" transform="translate(-2,211.92857142857144)" style="font-family: Benton Gothic, sans; font-size: 11.5px; font-weight: normal; fill: #000; opacity: 1;">1.5M</text><text text-anchor="end" transform="translate(-2,131.57142857142856)" style="font-family: Benton Gothic, sans; font-size: 11.5px; font-weight: normal; fill: #000; opacity: 1;">2.0M</text><text text-anchor="end" transform="translate(-2,51.214285714285694)" style="font-family: Benton Gothic, sans; font-size: 11.5px; font-weight: normal; fill: #000; opacity: 1;">2.5M</text></g><g class="mark-rule role-axis-domain" style="pointer-events: none;"><line transform="translate(0,450)" x2="0" y2="-450" style="fill: none; stroke: #888; stroke-opacity: 0; stroke-width: 1; opacity: 1;"></line></g></g><path class="foreground" d="" style="pointer-events: none; display: none; fill: none;"></path></g></g><g class="mark-group role-scope layer_0_pathgroup"><g transform="translate(0,0)"><path class="background" d="M0,0h800v450h-800Z" style="fill: none;"></path><g><g class="mark-line role-mark layer_0_marks"><path d="M0,83.48753571428571L14.296351451973194,114.1648392857143L28.59270290394639,170.9368392857143L42.88905435591958,148.27483928571428L57.18540580789278,107.6761607142857L71.48175725986597,96.66691071428572L85.77810871183917,153.51251785714285L100.07446016381236,109.30708928571428L113.77513030528668,143.1380892857143L128.07148175725987,190.08964285714288L142.36783320923305,176.35403571428574L156.66418466120626,162.56957142857144L170.96053611317944,174.4759285714286L185.25688756515265,211.25041071428572L199.55323901712583,205.84414285714286L213.84959046909904,247.84987499999997L228.14594192107225,296.7269464285714L242.4422933730454,324.7021607142857L256.73864482501864,350.21523214285713L271.0349962769918,354.66958928571427L285.331347728965,361.90735714285717L299.62769918093824,376.9527857142857L313.92405063291136,396.73430357142854L328.2204020848846,405.1578214285714L342.5167535368578,411.55167857142857L356.81310498883096,417.23710714285716L371.1094564408042,417.9143571428571L385.4058078927774,420.42423214285714L399.70215934475056,421.0711071428571L413.99851079672374,425.2371428571429L428.294862248697,426.4797857142857L442.59121370067015,428.1391607142857L456.88756515264333,430.06805357142855L471.18391660461657,429.14523214285714L485.48026805658975,430.98717857142856L499.7766195085629,430.3881964285714L514.0729709605362,432.5930357142857L528.3693224125093,434.3898214285714L542.6656738644825,434.74323214285715L556.9620253164558,433.27125L571.2583767684289,432.4858392857143L585.554728220402,434.9499107142857L599.8510796723754,435.45374999999996L614.1474311243485,433.57757142857145L628.4437825763216,435.9320357142857L642.7401340282948,435.4097142857143L657.0364854802681,434.71848214285717L671.3328369322412,432.90241071428574L685.6291883842144,434.3727857142857L699.9255398361877,433.06360714285717L714.2218912881608,434.034L728.518242740134,435.0762321428571L742.8145941921073,434.0944285714286L757.1109456440804,432.05994642857144L771.4072970960535,430.15757142857143L785.7036485480269,431.6048035714286L800,429.2879464285714" style="fill: none; stroke: #C7733E; stroke-width: 3;"></path></g></g><path class="foreground" d="" style="display: none; fill: none;"></path></g><g transform="translate(0,0)"><path class="background" d="M0,0h800v450h-800Z" style="fill: none;"></path><g><g class="mark-line role-mark layer_0_marks"><path d="M0,80.125875L14.296351451973194,87.12L28.59270290394639,131.85675L42.88905435591958,105.48980357142858L57.18540580789278,63.853071428571404L71.48175725986597,41.1928392857143L85.77810871183917,103.45789285714288L100.07446016381236,50.55589285714288L113.77513030528668,67.71326785714287L128.07148175725987,108.81996428571429L142.36783320923305,98.46996428571428L156.66418466120626,47.58364285714284L170.96053611317944,26.644017857142856L185.25688756515265,84.42996428571428L199.55323901712583,40.86289285714288L213.84959046909904,53.72533928571427L228.14594192107225,99.97569642857144L242.4422933730454,77.000625L256.73864482501864,46.087875000000025L271.0349962769918,38.682803571428565L285.331347728965,92.06019642857144L299.62769918093824,41.36094642857144L313.92405063291136,58.76196428571429L328.2204020848846,104.15683928571427L342.5167535368578,84.56608928571427L356.81310498883096,50.27753571428572L371.1094564408042,42.04542857142856L385.4058078927774,100.78071428571428L399.70215934475056,46.559892857142884L413.99851079672374,70.70576785714285L428.294862248697,124.35171428571428L442.59121370067015,104.20296428571427L456.88756515264333,62.43750000000002L471.18391660461657,51.92935714285716L485.48026805658975,126.6886607142857L499.7766195085629,54.17212499999998L514.0729709605362,66.84251785714287L528.3693224125093,113.93742857142857L542.6656738644825,91.72349999999997L556.9620253164558,50.23960714285713L571.2583767684289,33.669803571428545L585.554728220402,119.06646428571428L599.8510796723754,56.76412500000002L614.1474311243485,50.69250000000001L628.4437825763216,95.0322857142857L642.7401340282948,77.56376785714286L657.0364854802681,29.546035714285697L671.3328369322412,55.10362499999999L685.6291883842144,130.46705357142858L699.9255398361877,71.22825L714.2218912881608,33.079660714285716L728.518242740134,92.01294642857144L742.8145941921073,87.71641071428574L757.1109456440804,43.881267857142866L771.4072970960535,44.69512499999999L785.7036485480269,130.104L800,47.119982142857125" style="fill: none; stroke: #C4C1B3; stroke-width: 3;"></path></g></g><path class="foreground" d="" style="display: none; fill: none;"></path></g></g><g class="mark-line role-mark layer_1_marks"><path d="M170.96053611317944,174.4759285714286Z" style="fill: none; stroke: #000000; stroke-width: 3;"></path></g><g class="mark-text role-mark layer_2_marks"><text text-anchor="middle" transform="translate(312.96053611317944,158.4759285714286)" style="font-family: Benton Gothic; font-size: 13px; fill: #000000;">March 13: National emergency declaration</text></g></g><path class="foreground" d="" style="display: none; fill: none;"></path></g></g></g></svg>