<svg class="marks" width="762" height="558" viewBox="0 0 381 279" version="1.1" xmlns="http://www.w3.org/2000/svg" xmlns:xlink="http://www.w3.org/1999/xlink"><rect width="381" height="279" style="fill: #ffffff;"></rect><g transform="translate(53,5)"><g class="mark-group role-frame root"><g transform="translate(0,0)"><path class="background" d="M0.5,0.5h320v250h-320Z" style="fill: none; stroke: #ddd; stroke-opacity: 0;"></path><g><g class="mark-group role-axis"><g transform="translate(0.5,0.5)"><path class="background" d="M0,0h0v0h0Z" style="pointer-events: none; fill: none;"></path><g><g class="mark-rule role-axis-grid" style="pointer-events: none;"><line transform="translate(0,250)" x2="320" y2="0" style="fill: none; stroke: #dddddd; stroke-width: 0.6; opacity: 1;"></line><line transform="translate(0,205)" x2="320" y2="0" style="fill: none; stroke: #dddddd; stroke-width: 0.6; opacity: 1;"></line><line transform="translate(0,161)" x2="320" y2="0" style="fill: none; stroke: #dddddd; stroke-width: 0.6; opacity: 1;"></line><line transform="translate(0,116)" x2="320" y2="0" style="fill: none; stroke: #dddddd; stroke-width: 0.6; opacity: 1;"></line><line transform="translate(0,71)" x2="320" y2="0" style="fill: none; stroke: #dddddd; stroke-width: 0.6; opacity: 1;"></line><line transform="translate(0,27)" x2="320" y2="0" style="fill: none; stroke: #dddddd; stroke-width: 0.6; opacity: 1;"></line></g></g><path class="foreground" d="" style="pointer-events: none; display: none; fill: none;"></path></g></g><g class="mark-group role-axis"><g transform="translate(0.5,250.5)"><path class="background" d="M0,0h0v0h0Z" style="pointer-events: none; fill: none;"></path><g><g class="mark-rule role-axis-tick" style="pointer-events: none;"><line transform="translate(0,0)" x2="0" y2="3" style="fill: none; stroke: #888; stroke-width: 1; opacity: 1;"></line><line transform="translate(202,0)" x2="0" y2="3" style="fill: none; stroke: #888; stroke-width: 1; opacity: 1;"></line></g><g class="mark-text role-axis-label" style="pointer-events: none;"><text text-anchor="middle" transform="translate(0,16)" style="font-family: Benton Gothic, sans; font-size: 11.5px; font-weight: normal; fill: #000; opacity: 1;">Mar. 1</text><text text-anchor="middle" transform="translate(202.34893617021277,16)" style="font-family: Benton Gothic, sans; font-size: 11.5px; font-weight: normal; fill: #000; opacity: 1;">Apr. 1</text></g><g class="mark-rule role-axis-domain" style="pointer-events: none;"><line transform="translate(0,0)" x2="320" y2="0" style="fill: none; stroke: #888; stroke-width: 1; opacity: 1;"></line></g></g><path class="foreground" d="" style="pointer-events: none; display: none; fill: none;"></path></g></g><g class="mark-group role-axis"><g transform="translate(-2.5,0.5)"><path class="background" d="M0,0h0v0h0Z" style="pointer-events: none; fill: none;"></path><g><g class="mark-rule role-axis-tick" style="pointer-events: none;"><line transform="translate(0,250)" x2="0" y2="0" style="fill: none; stroke: #888; stroke-width: 1; opacity: 1;"></line><line transform="translate(0,205)" x2="0" y2="0" style="fill: none; stroke: #888; stroke-width: 1; opacity: 1;"></line><line transform="translate(0,161)" x2="0" y2="0" style="fill: none; stroke: #888; stroke-width: 1; opacity: 1;"></line><line transform="translate(0,116)" x2="0" y2="0" style="fill: none; stroke: #888; stroke-width: 1; opacity: 1;"></line><line transform="translate(0,71)" x2="0" y2="0" style="fill: none; stroke: #888; stroke-width: 1; opacity: 1;"></line><line transform="translate(0,27)" x2="0" y2="0" style="fill: none; stroke: #888; stroke-width: 1; opacity: 1;"></line></g><g class="mark-text role-axis-label" style="pointer-events: none;"><text text-anchor="end" transform="translate(-2,253)" style="font-family: Benton Gothic, sans; font-size: 11.5px; font-weight: normal; fill: #000; opacity: 1;">0.0M</text><text text-anchor="end" transform="translate(-2,208.35714285714286)" style="font-family: Benton Gothic, sans; font-size: 11.5px; font-weight: normal; fill: #000; opacity: 1;">0.5M</text><text text-anchor="end" transform="translate(-2,163.7142857142857)" style="font-family: Benton Gothic, sans; font-size: 11.5px; font-weight: normal; fill: #000; opacity: 1;">1.0M</text><text text-anchor="end" transform="translate(-2,119.07142857142857)" style="font-family: Benton Gothic, sans; font-size: 11.5px; font-weight: normal; fill: #000; opacity: 1;">1.5M</text><text text-anchor="end" transform="translate(-2,74.42857142857143)" style="font-family: Benton Gothic, sans; font-size: 11.5px; font-weight: normal; fill: #000; opacity: 1;">2.0M</text><text text-anchor="end" transform="translate(-2,29.785714285714274)" style="font-family: Benton Gothic, sans; font-size: 11.5px; font-weight: normal; fill: #000; opacity: 1;">2.5M</text></g><g class="mark-rule role-axis-domain" style="pointer-events: none;"><line transform="translate(0,250)" x2="0" y2="-250" style="fill: none; stroke: #888; stroke-opacity: 0; stroke-width: 1; opacity: 1;"></line></g></g><path class="foreground" d="" style="pointer-events: none; display: none; fill: none;"></path></g></g><g class="mark-group role-scope pathgroup"><g transform="translate(0,0)"><path class="background" d="M0,0h320v250h-320Z" style="fill: none;"></path><g><g class="mark-line role-mark marks"><path d="M0,46.38196428571428L6.536170212765957,63.424910714285716L13.072340425531914,94.96491071428572L19.608510638297872,82.3749107142857L26.14468085106383,59.82008928571428L32.680851063829785,53.70383928571429L39.217021276595744,85.28473214285714L45.753191489361704,60.72616071428571L52.01702127659574,79.52116071428573L58.553191489361694,105.60535714285716L65.08936170212766,97.97446428571429L71.62553191489363,90.31642857142857L78.16170212765957,96.93107142857144L84.69787234042553,117.3613392857143L91.2340425531915,114.35785714285716L97.77021276595745,137.69437499999998L104.3063829787234,164.84830357142857L110.84255319148936,180.39008928571428L117.37872340425533,194.56401785714286L123.91489361702128,197.03866071428573L130.45106382978724,201.05964285714288L136.98723404255318,209.41821428571427L143.52340425531915,220.40794642857142L150.05957446808512,225.0876785714286L156.59574468085106,228.63982142857142L163.13191489361702,231.79839285714286L169.668085106383,232.17464285714286L176.20425531914893,233.56901785714285L182.7404255319149,233.92839285714285L189.27659574468083,236.24285714285713L195.8127659574468,236.93321428571429L202.34893617021277,237.85508928571429L208.88510638297873,238.92669642857143L215.4212765957447,238.41401785714285L221.95744680851064,239.43732142857144L228.49361702127658,239.10455357142857L235.02978723404254,240.32946428571427L241.5659574468085,241.32767857142855L248.10212765957448,241.52401785714287L254.63829787234044,240.70625L261.1744680851064,240.26991071428571L267.7106382978723,241.63883928571428L274.2468085106383,241.91875L280.78297872340426,240.87642857142856L287.3191489361702,242.18446428571428L293.85531914893613,241.89428571428573L300.39148936170216,241.51026785714285L306.92765957446807,240.5013392857143L313.46382978723403,241.31821428571428L320,240.59089285714285" style="fill: none; stroke: #c2dfe4; stroke-width: 3;"></path></g></g><path class="foreground" d="" style="display: none; fill: none;"></path></g><g transform="translate(0,0)"><path class="background" d="M0,0h320v250h-320Z" style="fill: none;"></path><g><g class="mark-line role-mark marks"><path d="M0,44.514374999999994L6.536170212765957,48.4L13.072340425531914,73.25375000000001L19.608510638297872,58.60544642857143L26.14468085106383,35.47392857142856L32.680851063829785,22.884910714285724L39.217021276595744,57.476607142857155L45.753191489361704,28.086607142857154L52.01702127659574,37.618482142857154L58.553191489361694,60.455535714285716L65.08936170212766,54.705535714285716L71.62553191489363,26.435357142857136L78.16170212765957,14.802232142857141L84.69787234042553,46.90553571428571L91.2340425531915,22.701607142857156L97.77021276595745,29.847410714285704L104.3063829787234,55.54205357142858L110.84255319148936,42.778125L117.37872340425533,25.60437500000001L123.91489361702128,21.490446428571424L130.45106382978724,51.14455357142858L136.98723404255318,22.978303571428576L143.52340425531915,32.645535714285714L150.05957446808512,57.864910714285706L156.59574468085106,46.98116071428571L163.13191489361702,27.93196428571429L169.668085106383,23.358571428571423L176.20425531914893,55.989285714285714L182.7404255319149,25.866607142857156L189.27659574468083,39.280982142857134L195.8127659574468,69.08428571428571L202.34893617021277,57.890535714285704L208.88510638297873,34.68750000000001L215.4212765957447,28.849642857142864L221.95744680851064,70.38258928571427L228.49361702127658,30.095624999999988L235.02978723404254,37.134732142857146L241.5659574468085,63.29857142857143L248.10212765957448,50.95749999999999L254.63829787234044,27.910892857142848L261.1744680851064,18.705446428571413L267.7106382978723,66.14803571428571L274.2468085106383,31.53562500000001L280.78297872340426,28.16250000000001L287.3191489361702,52.79571428571428L293.85531914893613,43.09098214285714L300.39148936170216,16.414464285714274L306.92765957446807,30.61312499999999L313.46382978723403,72.48169642857144L320,39.57125" style="fill: none; stroke: #065360; stroke-width: 3;"></path></g></g><path class="foreground" d="" style="display: none; fill: none;"></path></g></g></g><path class="foreground" d="" style="display: none; fill: none;"></path></g></g></g></svg>