<svg class="marks" width="1322" height="758" viewBox="0 0 661 379" version="1.1" xmlns="http://www.w3.org/2000/svg" xmlns:xlink="http://www.w3.org/1999/xlink"><rect width="661" height="379" style="fill: #ffffff;"></rect><g transform="translate(53,5)"><g class="mark-group role-frame root"><g transform="translate(0,0)"><path class="background" d="M0.5,0.5h600v350h-600Z" style="fill: none; stroke: #ddd; stroke-opacity: 0;"></path><g><g class="mark-group role-axis"><g transform="translate(0.5,0.5)"><path class="background" d="M0,0h0v0h0Z" style="pointer-events: none; fill: none;"></path><g><g class="mark-rule role-axis-grid" style="pointer-events: none;"><line transform="translate(0,350)" x2="600" y2="0" style="fill: none; stroke: #dddddd; stroke-width: 0.6; opacity: 1;"></line><line transform="translate(0,288)" x2="600" y2="0" style="fill: none; stroke: #dddddd; stroke-width: 0.6; opacity: 1;"></line><line transform="translate(0,225)" x2="600" y2="0" style="fill: none; stroke: #dddddd; stroke-width: 0.6; opacity: 1;"></line><line transform="translate(0,163)" x2="600" y2="0" style="fill: none; stroke: #dddddd; stroke-width: 0.6; opacity: 1;"></line><line transform="translate(0,100)" x2="600" y2="0" style="fill: none; stroke: #dddddd; stroke-width: 0.6; opacity: 1;"></line><line transform="translate(0,37)" x2="600" y2="0" style="fill: none; stroke: #dddddd; stroke-width: 0.6; opacity: 1;"></line></g></g><path class="foreground" d="" style="pointer-events: none; display: none; fill: none;"></path></g></g><g class="mark-group role-axis"><g transform="translate(0.5,350.5)"><path class="background" d="M0,0h0v0h0Z" style="pointer-events: none; fill: none;"></path><g><g class="mark-rule role-axis-tick" style="pointer-events: none;"><line transform="translate(0,0)" x2="0" y2="3" style="fill: none; stroke: #888; stroke-width: 1; opacity: 1;"></line><line transform="translate(82,0)" x2="0" y2="3" style="fill: none; stroke: #888; stroke-width: 1; opacity: 1;"></line><line transform="translate(164,0)" x2="0" y2="3" style="fill: none; stroke: #888; stroke-width: 1; opacity: 1;"></line><line transform="translate(247,0)" x2="0" y2="3" style="fill: none; stroke: #888; stroke-width: 1; opacity: 1;"></line><line transform="translate(329,0)" x2="0" y2="3" style="fill: none; stroke: #888; stroke-width: 1; opacity: 1;"></line><line transform="translate(412,0)" x2="0" y2="3" style="fill: none; stroke: #888; stroke-width: 1; opacity: 1;"></line><line transform="translate(494,0)" x2="0" y2="3" style="fill: none; stroke: #888; stroke-width: 1; opacity: 1;"></line><line transform="translate(576,0)" x2="0" y2="3" style="fill: none; stroke: #888; stroke-width: 1; opacity: 1;"></line></g><g class="mark-text role-axis-label" style="pointer-events: none;"><text text-anchor="middle" transform="translate(0,16)" style="font-family: Benton Gothic, sans; font-size: 11.5px; font-weight: normal; fill: #000; opacity: 1;">Mar. 1</text><text text-anchor="middle" transform="translate(82.42027800490597,16)" style="font-family: Benton Gothic, sans; font-size: 11.5px; font-weight: normal; fill: #000; opacity: 1;">Mar. 8</text><text text-anchor="middle" transform="translate(164.3499591169256,16)" style="font-family: Benton Gothic, sans; font-size: 11.5px; font-weight: normal; fill: #000; opacity: 1;">Mar. 15</text><text text-anchor="middle" transform="translate(246.77023712183157,16)" style="font-family: Benton Gothic, sans; font-size: 11.5px; font-weight: normal; fill: #000; opacity: 1;">Mar. 22</text><text text-anchor="middle" transform="translate(329.1905151267375,16)" style="font-family: Benton Gothic, sans; font-size: 11.5px; font-weight: normal; fill: #000; opacity: 1;">Mar. 29</text><text text-anchor="middle" transform="translate(411.6107931316435,16)" style="font-family: Benton Gothic, sans; font-size: 11.5px; font-weight: normal; fill: #000; opacity: 1;">Apr. 5</text><text text-anchor="middle" transform="translate(494.0310711365495,16)" style="font-family: Benton Gothic, sans; font-size: 11.5px; font-weight: normal; fill: #000; opacity: 1;">Apr. 12</text><text text-anchor="middle" transform="translate(576.4513491414555,16)" style="font-family: Benton Gothic, sans; font-size: 11.5px; font-weight: normal; fill: #000; opacity: 1;">Apr. 19</text></g><g class="mark-rule role-axis-domain" style="pointer-events: none;"><line transform="translate(0,0)" x2="600" y2="0" style="fill: none; stroke: #888; stroke-width: 1; opacity: 1;"></line></g></g><path class="foreground" d="" style="pointer-events: none; display: none; fill: none;"></path></g></g><g class="mark-group role-axis"><g transform="translate(-2.5,0.5)"><path class="background" d="M0,0h0v0h0Z" style="pointer-events: none; fill: none;"></path><g><g class="mark-rule role-axis-tick" style="pointer-events: none;"><line transform="translate(0,350)" x2="0" y2="0" style="fill: none; stroke: #888; stroke-width: 1; opacity: 1;"></line><line transform="translate(0,288)" x2="0" y2="0" style="fill: none; stroke: #888; stroke-width: 1; opacity: 1;"></line><line transform="translate(0,225)" x2="0" y2="0" style="fill: none; stroke: #888; stroke-width: 1; opacity: 1;"></line><line transform="translate(0,163)" x2="0" y2="0" style="fill: none; stroke: #888; stroke-width: 1; opacity: 1;"></line><line transform="translate(0,100)" x2="0" y2="0" style="fill: none; stroke: #888; stroke-width: 1; opacity: 1;"></line><line transform="translate(0,37)" x2="0" y2="0" style="fill: none; stroke: #888; stroke-width: 1; opacity: 1;"></line></g><g class="mark-text role-axis-label" style="pointer-events: none;"><text text-anchor="end" transform="translate(-2,353)" style="font-family: Benton Gothic, sans; font-size: 11.5px; font-weight: normal; fill: #000; opacity: 1;">0.0M</text><text text-anchor="end" transform="translate(-2,290.5)" style="font-family: Benton Gothic, sans; font-size: 11.5px; font-weight: normal; fill: #000; opacity: 1;">0.5M</text><text text-anchor="end" transform="translate(-2,227.99999999999997)" style="font-family: Benton Gothic, sans; font-size: 11.5px; font-weight: normal; fill: #000; opacity: 1;">1.0M</text><text text-anchor="end" transform="translate(-2,165.5)" style="font-family: Benton Gothic, sans; font-size: 11.5px; font-weight: normal; fill: #000; opacity: 1;">1.5M</text><text text-anchor="end" transform="translate(-2,103)" style="font-family: Benton Gothic, sans; font-size: 11.5px; font-weight: normal; fill: #000; opacity: 1;">2.0M</text><text text-anchor="end" transform="translate(-2,40.499999999999986)" style="font-family: Benton Gothic, sans; font-size: 11.5px; font-weight: normal; fill: #000; opacity: 1;">2.5M</text></g><g class="mark-rule role-axis-domain" style="pointer-events: none;"><line transform="translate(0,350)" x2="0" y2="-350" style="fill: none; stroke: #888; stroke-opacity: 0; stroke-width: 1; opacity: 1;"></line></g></g><path class="foreground" d="" style="pointer-events: none; display: none; fill: none;"></path></g></g><g class="mark-group role-scope pathgroup"><g transform="translate(0,0)"><path class="background" d="M0,0h600v350h-600Z" style="fill: none;"></path><g><g class="mark-line role-mark marks"><path d="M0,64.93475L11.774325429272281,88.794875L23.548650858544562,132.95087500000002L35.32297628781684,115.32487499999999L47.097301717089124,83.74812499999999L58.87162714636141,75.18537500000001L70.64595257563369,119.39862500000001L82.42027800490597,85.016625L93.7040065412919,111.32962500000001L105.47833197056418,147.84750000000003L117.25265739983648,137.16425L129.02698282910876,126.44300000000001L140.80130825838103,135.70350000000002L152.5756336876533,164.30587500000001L164.3499591169256,160.101L176.12428454619788,192.77212499999996L187.89860997547015,230.787625L199.67293540474245,252.54612500000002L211.44726083401474,272.389625L223.22158626328698,275.854125L234.99591169255928,281.4835L246.77023712183157,293.1855L258.5445625511038,308.571125L270.31888798037613,315.12275L282.0932134096484,320.09575L293.86753883892067,324.51775L305.641864268193,325.04449999999997L317.41618969746526,326.996625L329.1905151267375,327.49975L340.96484055600985,330.74L352.7391659852821,331.7065L364.5134914145544,332.997125L376.2878168438267,334.497375L388.06214227309897,333.779625L399.8364677023712,335.21225000000004L411.6107931316435,334.746375L423.38511856091577,336.46125L435.15944399018804,337.85875L446.93376941946036,338.133625L458.7080948487326,336.98875000000004L470.4824202780049,336.377875L482.2567457072772,338.294375L494.0310711365495,338.68625L505.80539656582175,337.22700000000003L517.579721995094,339.05825L529.3540474243663,338.65200000000004L541.1283728536386,338.114375L552.9026982829109,336.70187500000003L564.6770237121832,337.8455L576.4513491414555,336.82725L588.2256745707277,337.582L600,338.392625" style="fill: none; stroke: #f29d49; stroke-width: 3;"></path></g></g><path class="foreground" d="" style="display: none; fill: none;"></path></g><g transform="translate(0,0)"><path class="background" d="M0,0h600v350h-600Z" style="fill: none;"></path><g><g class="mark-line role-mark marks"><path d="M0,62.32012499999999L11.774325429272281,67.75999999999999L23.548650858544562,102.55525000000002L35.32297628781684,82.04762500000001L47.097301717089124,49.663499999999985L58.87162714636141,32.03887500000001L70.64595257563369,80.46725000000002L82.42027800490597,39.32125000000002L93.7040065412919,52.665875000000014L105.47833197056418,84.63775000000001L117.25265739983648,76.58775L129.02698282910876,37.00949999999999L140.80130825838103,20.723124999999996L152.5756336876533,65.66775L164.3499591169256,31.78225000000002L176.12428454619788,41.786374999999985L187.89860997547015,77.75887500000002L199.67293540474245,59.889375L211.44726083401474,35.846125000000015L223.22158626328698,30.086624999999994L234.99591169255928,71.60237500000001L246.77023712183157,32.16962500000001L258.5445625511038,45.70375000000001L270.31888798037613,81.01087499999998L282.0932134096484,65.773625L293.86753883892067,39.10475L305.641864268193,32.70199999999999L317.41618969746526,78.385L329.1905151267375,36.213250000000016L340.96484055600985,54.993374999999986L352.7391659852821,96.71799999999999L364.5134914145544,81.04674999999999L376.2878168438267,48.562500000000014L388.06214227309897,40.38950000000001L399.8364677023712,98.535625L411.6107931316435,42.13387499999998L423.38511856091577,51.988625000000006L435.15944399018804,88.618L446.93376941946036,71.34049999999999L458.7080948487326,39.07524999999999L470.4824202780049,26.187624999999983L482.2567457072772,92.60725L494.0310711365495,44.149875000000016L505.80539656582175,39.42750000000001L517.579721995094,73.91399999999999L529.3540474243663,60.327374999999996L541.1283728536386,22.980249999999984L552.9026982829109,42.85837499999999L564.6770237121832,101.47437500000002L576.4513491414555,55.399750000000004L588.2256745707277,25.728625L600,71.56562500000001" style="fill: none; stroke: #b65a27; stroke-width: 3;"></path></g></g><path class="foreground" d="" style="display: none; fill: none;"></path></g></g></g><path class="foreground" d="" style="display: none; fill: none;"></path></g></g></g></svg>