<svg class="marks" width="1318" height="758" viewBox="0 0 659 379" version="1.1" xmlns="http://www.w3.org/2000/svg" xmlns:xlink="http://www.w3.org/1999/xlink"><rect width="659" height="379" style="fill: #ffffff;"></rect><g transform="translate(50,5)"><g class="mark-group role-frame root"><g transform="translate(0,0)"><path class="background" d="M0.5,0.5h600v350h-600Z" style="fill: none; stroke: #ddd; stroke-opacity: 0;"></path><g><g class="mark-group role-axis"><g transform="translate(0.5,0.5)"><path class="background" d="M0,0h0v0h0Z" style="pointer-events: none; fill: none;"></path><g><g class="mark-rule role-axis-grid" style="pointer-events: none;"><line transform="translate(0,350)" x2="600" y2="0" style="fill: none; stroke: #dddddd; stroke-width: 0.8; opacity: 1;"></line><line transform="translate(0,288)" x2="600" y2="0" style="fill: none; stroke: #dddddd; stroke-width: 0.8; opacity: 1;"></line><line transform="translate(0,225)" x2="600" y2="0" style="fill: none; stroke: #dddddd; stroke-width: 0.8; opacity: 1;"></line><line transform="translate(0,163)" x2="600" y2="0" style="fill: none; stroke: #dddddd; stroke-width: 0.8; opacity: 1;"></line><line transform="translate(0,100)" x2="600" y2="0" style="fill: none; stroke: #dddddd; stroke-width: 0.8; opacity: 1;"></line><line transform="translate(0,37)" x2="600" y2="0" style="fill: none; stroke: #dddddd; stroke-width: 0.8; opacity: 1;"></line></g></g><path class="foreground" d="" style="pointer-events: none; display: none; fill: none;"></path></g></g><g class="mark-group role-axis"><g transform="translate(0.5,350.5)"><path class="background" d="M0,0h0v0h0Z" style="pointer-events: none; fill: none;"></path><g><g class="mark-rule role-axis-tick" style="pointer-events: none;"><line transform="translate(0,0)" x2="0" y2="3" style="fill: none; stroke: #888; stroke-width: 1; opacity: 1;"></line><line transform="translate(91,0)" x2="0" y2="3" style="fill: none; stroke: #888; stroke-width: 1; opacity: 1;"></line><line transform="translate(182,0)" x2="0" y2="3" style="fill: none; stroke: #888; stroke-width: 1; opacity: 1;"></line><line transform="translate(274,0)" x2="0" y2="3" style="fill: none; stroke: #888; stroke-width: 1; opacity: 1;"></line><line transform="translate(365,0)" x2="0" y2="3" style="fill: none; stroke: #888; stroke-width: 1; opacity: 1;"></line><line transform="translate(456,0)" x2="0" y2="3" style="fill: none; stroke: #888; stroke-width: 1; opacity: 1;"></line><line transform="translate(548,0)" x2="0" y2="3" style="fill: none; stroke: #888; stroke-width: 1; opacity: 1;"></line></g><g class="mark-text role-axis-label" style="pointer-events: none;"><text text-anchor="middle" transform="translate(0,16)" style="font-family: Benton Gothic, sans; font-size: 11.5px; font-weight: normal; fill: #000; opacity: 1;">Mar. 1</text><text text-anchor="middle" transform="translate(91.3871260199456,16)" style="font-family: Benton Gothic, sans; font-size: 11.5px; font-weight: normal; fill: #000; opacity: 1;">Mar. 8</text><text text-anchor="middle" transform="translate(182.23028105167725,16)" style="font-family: Benton Gothic, sans; font-size: 11.5px; font-weight: normal; fill: #000; opacity: 1;">Mar. 15</text><text text-anchor="middle" transform="translate(273.61740707162284,16)" style="font-family: Benton Gothic, sans; font-size: 11.5px; font-weight: normal; fill: #000; opacity: 1;">Mar. 22</text><text text-anchor="middle" transform="translate(365.0045330915684,16)" style="font-family: Benton Gothic, sans; font-size: 11.5px; font-weight: normal; fill: #000; opacity: 1;">Mar. 29</text><text text-anchor="middle" transform="translate(456.39165911151406,16)" style="font-family: Benton Gothic, sans; font-size: 11.5px; font-weight: normal; fill: #000; opacity: 1;">Apr. 5</text><text text-anchor="middle" transform="translate(547.7787851314597,16)" style="font-family: Benton Gothic, sans; font-size: 11.5px; font-weight: normal; fill: #000; opacity: 1;">Apr. 12</text></g><g class="mark-rule role-axis-domain" style="pointer-events: none;"><line transform="translate(0,0)" x2="600" y2="0" style="fill: none; stroke: #888; stroke-width: 1; opacity: 1;"></line></g></g><path class="foreground" d="" style="pointer-events: none; display: none; fill: none;"></path></g></g><g class="mark-group role-axis"><g transform="translate(0.5,0.5)"><path class="background" d="M0,0h0v0h0Z" style="pointer-events: none; fill: none;"></path><g><g class="mark-rule role-axis-tick" style="pointer-events: none;"><line transform="translate(0,350)" x2="0" y2="0" style="fill: none; stroke: #888; stroke-width: 1; opacity: 1;"></line><line transform="translate(0,288)" x2="0" y2="0" style="fill: none; stroke: #888; stroke-width: 1; opacity: 1;"></line><line transform="translate(0,225)" x2="0" y2="0" style="fill: none; stroke: #888; stroke-width: 1; opacity: 1;"></line><line transform="translate(0,163)" x2="0" y2="0" style="fill: none; stroke: #888; stroke-width: 1; opacity: 1;"></line><line transform="translate(0,100)" x2="0" y2="0" style="fill: none; stroke: #888; stroke-width: 1; opacity: 1;"></line><line transform="translate(0,37)" x2="0" y2="0" style="fill: none; stroke: #888; stroke-width: 1; opacity: 1;"></line></g><g class="mark-text role-axis-label" style="pointer-events: none;"><text text-anchor="end" transform="translate(-2,353)" style="font-family: Benton Gothic, sans; font-size: 11.5px; font-weight: normal; fill: #000; opacity: 1;">0.0M</text><text text-anchor="end" transform="translate(-2,290.5)" style="font-family: Benton Gothic, sans; font-size: 11.5px; font-weight: normal; fill: #000; opacity: 1;">0.5M</text><text text-anchor="end" transform="translate(-2,227.99999999999997)" style="font-family: Benton Gothic, sans; font-size: 11.5px; font-weight: normal; fill: #000; opacity: 1;">1.0M</text><text text-anchor="end" transform="translate(-2,165.5)" style="font-family: Benton Gothic, sans; font-size: 11.5px; font-weight: normal; fill: #000; opacity: 1;">1.5M</text><text text-anchor="end" transform="translate(-2,103)" style="font-family: Benton Gothic, sans; font-size: 11.5px; font-weight: normal; fill: #000; opacity: 1;">2.0M</text><text text-anchor="end" transform="translate(-2,40.499999999999986)" style="font-family: Benton Gothic, sans; font-size: 11.5px; font-weight: normal; fill: #000; opacity: 1;">2.5M</text></g><g class="mark-rule role-axis-domain" style="pointer-events: none;"><line transform="translate(0,350)" x2="0" y2="-350" style="fill: none; stroke: #888; stroke-opacity: 0; stroke-width: 1; opacity: 1;"></line></g></g><path class="foreground" d="" style="pointer-events: none; display: none; fill: none;"></path></g></g><g class="mark-group role-scope pathgroup"><g transform="translate(0,0)"><path class="background" d="M0,0h600v350h-600Z" style="fill: none;"></path><g><g class="mark-line role-mark marks"><path d="M0,64.93475L13.055303717135086,88.794875L26.11060743427017,132.95087500000002L39.16591115140526,115.32487499999999L52.22121486854034,83.74812499999999L65.27651858567543,75.18537500000001L78.33182230281052,119.39862500000001L91.3871260199456,85.016625L103.89845874886673,111.32962500000001L116.95376246600182,147.84750000000003L130.0090661831369,137.16425L143.064369900272,126.44300000000001L156.11967361740707,135.70350000000002L169.17497733454215,164.30587500000001L182.23028105167725,160.101L195.28558476881233,192.77212499999996L208.34088848594743,230.787625L221.39619220308248,252.54612500000002L234.45149592021758,272.389625L247.50679963735266,275.854125L260.56210335448776,281.4835L273.61740707162284,293.1855L286.6727107887579,308.571125L299.728014505893,315.12275L312.78331822302806,320.09575L325.8386219401632,324.51775L338.89392565729827,325.04449999999997L351.9492293744334,326.996625L365.0045330915684,327.49975L378.0598368087035,330.74L391.1151405258386,331.7065L404.1704442429737,332.997125L417.2257479601088,334.497375L430.28105167724385,333.779625L443.336355394379,335.21225000000004L456.39165911151406,334.746375L469.44696282864913,336.46125L482.5022665457842,337.85875L495.5575702629193,338.133625L508.6128739800544,336.98875000000004L521.6681776971894,336.377875L534.7234814143245,338.294375L547.7787851314597,338.68625L560.8340888485948,337.22700000000003L573.8893925657298,339.05825L586.9446962828649,338.65200000000004L600,338.114375" style="fill: none; stroke: #c2dfe4; stroke-width: 4;"></path></g></g><path class="foreground" d="" style="display: none; fill: none;"></path></g><g transform="translate(0,0)"><path class="background" d="M0,0h600v350h-600Z" style="fill: none;"></path><g><g class="mark-line role-mark marks"><path d="M0,62.32012499999999L13.055303717135086,67.75999999999999L26.11060743427017,102.55525000000002L39.16591115140526,82.04762500000001L52.22121486854034,49.663499999999985L65.27651858567543,32.03887500000001L78.33182230281052,80.46725000000002L91.3871260199456,39.32125000000002L103.89845874886673,52.665875000000014L116.95376246600182,84.63775000000001L130.0090661831369,76.58775L143.064369900272,37.00949999999999L156.11967361740707,20.723124999999996L169.17497733454215,65.66775L182.23028105167725,31.78225000000002L195.28558476881233,41.786374999999985L208.34088848594743,77.75887500000002L221.39619220308248,59.889375L234.45149592021758,35.846125000000015L247.50679963735266,30.086624999999994L260.56210335448776,71.60237500000001L273.61740707162284,32.16962500000001L286.6727107887579,45.70375000000001L299.728014505893,81.01087499999998L312.78331822302806,65.773625L325.8386219401632,39.10475L338.89392565729827,32.70199999999999L351.9492293744334,78.385L365.0045330915684,36.213250000000016L378.0598368087035,54.993374999999986L391.1151405258386,96.71799999999999L404.1704442429737,81.04674999999999L417.2257479601088,48.562500000000014L430.28105167724385,40.38950000000001L443.336355394379,98.535625L456.39165911151406,42.13387499999998L469.44696282864913,51.988625000000006L482.5022665457842,88.618L495.5575702629193,71.34049999999999L508.6128739800544,39.07524999999999L521.6681776971894,26.187624999999983L534.7234814143245,92.60725L547.7787851314597,44.149875000000016L560.8340888485948,39.42750000000001L573.8893925657298,73.91399999999999L586.9446962828649,60.327374999999996L600,22.980249999999984" style="fill: none; stroke: #065360; stroke-width: 4;"></path></g></g><path class="foreground" d="" style="display: none; fill: none;"></path></g></g></g><path class="foreground" d="" style="display: none; fill: none;"></path></g></g></g></svg>