<svg class="marks" width="758" height="558" viewBox="0 0 379 279" version="1.1" xmlns="http://www.w3.org/2000/svg" xmlns:xlink="http://www.w3.org/1999/xlink"><rect width="379" height="279" style="fill: #ffffff;"></rect><g transform="translate(50,5)"><g class="mark-group role-frame root"><g transform="translate(0,0)"><path class="background" d="M0.5,0.5h320v250h-320Z" style="fill: none; stroke: #ddd; stroke-opacity: 0;"></path><g><g class="mark-group role-axis"><g transform="translate(0.5,0.5)"><path class="background" d="M0,0h0v0h0Z" style="pointer-events: none; fill: none;"></path><g><g class="mark-rule role-axis-grid" style="pointer-events: none;"><line transform="translate(0,250)" x2="320" y2="0" style="fill: none; stroke: #dddddd; stroke-width: 0.8; opacity: 1;"></line><line transform="translate(0,205)" x2="320" y2="0" style="fill: none; stroke: #dddddd; stroke-width: 0.8; opacity: 1;"></line><line transform="translate(0,161)" x2="320" y2="0" style="fill: none; stroke: #dddddd; stroke-width: 0.8; opacity: 1;"></line><line transform="translate(0,116)" x2="320" y2="0" style="fill: none; stroke: #dddddd; stroke-width: 0.8; opacity: 1;"></line><line transform="translate(0,71)" x2="320" y2="0" style="fill: none; stroke: #dddddd; stroke-width: 0.8; opacity: 1;"></line><line transform="translate(0,27)" x2="320" y2="0" style="fill: none; stroke: #dddddd; stroke-width: 0.8; opacity: 1;"></line></g></g><path class="foreground" d="" style="pointer-events: none; display: none; fill: none;"></path></g></g><g class="mark-group role-axis"><g transform="translate(0.5,250.5)"><path class="background" d="M0,0h0v0h0Z" style="pointer-events: none; fill: none;"></path><g><g class="mark-rule role-axis-tick" style="pointer-events: none;"><line transform="translate(0,0)" x2="0" y2="3" style="fill: none; stroke: #888; stroke-width: 1; opacity: 1;"></line><line transform="translate(216,0)" x2="0" y2="3" style="fill: none; stroke: #888; stroke-width: 1; opacity: 1;"></line></g><g class="mark-text role-axis-label" style="pointer-events: none;"><text text-anchor="middle" transform="translate(0,16)" style="font-family: Benton Gothic, sans; font-size: 11.5px; font-weight: normal; fill: #000; opacity: 1;">Mar. 1</text><text text-anchor="middle" transform="translate(215.5575702629193,16)" style="font-family: Benton Gothic, sans; font-size: 11.5px; font-weight: normal; fill: #000; opacity: 1;">Apr. 1</text></g><g class="mark-rule role-axis-domain" style="pointer-events: none;"><line transform="translate(0,0)" x2="320" y2="0" style="fill: none; stroke: #888; stroke-width: 1; opacity: 1;"></line></g></g><path class="foreground" d="" style="pointer-events: none; display: none; fill: none;"></path></g></g><g class="mark-group role-axis"><g transform="translate(0.5,0.5)"><path class="background" d="M0,0h0v0h0Z" style="pointer-events: none; fill: none;"></path><g><g class="mark-rule role-axis-tick" style="pointer-events: none;"><line transform="translate(0,250)" x2="0" y2="0" style="fill: none; stroke: #888; stroke-width: 1; opacity: 1;"></line><line transform="translate(0,205)" x2="0" y2="0" style="fill: none; stroke: #888; stroke-width: 1; opacity: 1;"></line><line transform="translate(0,161)" x2="0" y2="0" style="fill: none; stroke: #888; stroke-width: 1; opacity: 1;"></line><line transform="translate(0,116)" x2="0" y2="0" style="fill: none; stroke: #888; stroke-width: 1; opacity: 1;"></line><line transform="translate(0,71)" x2="0" y2="0" style="fill: none; stroke: #888; stroke-width: 1; opacity: 1;"></line><line transform="translate(0,27)" x2="0" y2="0" style="fill: none; stroke: #888; stroke-width: 1; opacity: 1;"></line></g><g class="mark-text role-axis-label" style="pointer-events: none;"><text text-anchor="end" transform="translate(-2,253)" style="font-family: Benton Gothic, sans; font-size: 11.5px; font-weight: normal; fill: #000; opacity: 1;">0.0M</text><text text-anchor="end" transform="translate(-2,208.35714285714286)" style="font-family: Benton Gothic, sans; font-size: 11.5px; font-weight: normal; fill: #000; opacity: 1;">0.5M</text><text text-anchor="end" transform="translate(-2,163.7142857142857)" style="font-family: Benton Gothic, sans; font-size: 11.5px; font-weight: normal; fill: #000; opacity: 1;">1.0M</text><text text-anchor="end" transform="translate(-2,119.07142857142857)" style="font-family: Benton Gothic, sans; font-size: 11.5px; font-weight: normal; fill: #000; opacity: 1;">1.5M</text><text text-anchor="end" transform="translate(-2,74.42857142857143)" style="font-family: Benton Gothic, sans; font-size: 11.5px; font-weight: normal; fill: #000; opacity: 1;">2.0M</text><text text-anchor="end" transform="translate(-2,29.785714285714274)" style="font-family: Benton Gothic, sans; font-size: 11.5px; font-weight: normal; fill: #000; opacity: 1;">2.5M</text></g><g class="mark-rule role-axis-domain" style="pointer-events: none;"><line transform="translate(0,250)" x2="0" y2="-250" style="fill: none; stroke: #888; stroke-opacity: 0; stroke-width: 1; opacity: 1;"></line></g></g><path class="foreground" d="" style="pointer-events: none; display: none; fill: none;"></path></g></g><g class="mark-group role-scope pathgroup"><g transform="translate(0,0)"><path class="background" d="M0,0h320v250h-320Z" style="fill: none;"></path><g><g class="mark-line role-mark marks"><path d="M0,46.38196428571428L6.962828649138713,63.424910714285716L13.925657298277425,94.96491071428572L20.888485947416136,82.3749107142857L27.85131459655485,59.82008928571428L34.814143245693565,53.70383928571429L41.77697189483227,85.28473214285714L48.739800543970986,60.72616071428571L55.412511332728926,79.52116071428573L62.37533998186763,105.60535714285716L69.33816863100634,97.97446428571429L76.30099728014505,90.31642857142857L83.26382592928377,96.93107142857144L90.22665457842248,117.3613392857143L97.1894832275612,114.35785714285716L104.1523118766999,137.69437499999998L111.11514052583863,164.84830357142857L118.07796917497733,180.39008928571428L125.04079782411605,194.56401785714286L132.00362647325474,197.03866071428573L138.96645512239348,201.05964285714288L145.92928377153217,209.41821428571427L152.8921124206709,220.40794642857142L159.8549410698096,225.0876785714286L166.8177697189483,228.63982142857142L173.78059836808703,231.79839285714286L180.74342701722574,232.17464285714286L187.70625566636448,233.56901785714285L194.66908431550314,233.92839285714285L201.63191296464188,236.24285714285713L208.5947416137806,236.93321428571429L215.5575702629193,237.85508928571429L222.520398912058,238.92669642857143L229.4832275611967,238.41401785714285L236.44605621033546,239.43732142857144L243.40888485947417,239.10455357142857L250.37171350861286,240.32946428571427L257.33454215775157,241.32767857142855L264.2973708068903,241.52401785714287L271.260199456029,240.70625L278.2230281051677,240.26991071428571L285.1858567543064,241.63883928571428L292.14868540344514,241.91875L299.11151405258386,240.87642857142856L306.07434270172257,242.18446428571428L313.0371713508613,241.89428571428573L320,241.51026785714285" style="fill: none; stroke: #c2dfe4; stroke-width: 4;"></path></g></g><path class="foreground" d="" style="display: none; fill: none;"></path></g><g transform="translate(0,0)"><path class="background" d="M0,0h320v250h-320Z" style="fill: none;"></path><g><g class="mark-line role-mark marks"><path d="M0,44.514374999999994L6.962828649138713,48.4L13.925657298277425,73.25375000000001L20.888485947416136,58.60544642857143L27.85131459655485,35.47392857142856L34.814143245693565,22.884910714285724L41.77697189483227,57.476607142857155L48.739800543970986,28.086607142857154L55.412511332728926,37.618482142857154L62.37533998186763,60.455535714285716L69.33816863100634,54.705535714285716L76.30099728014505,26.435357142857136L83.26382592928377,14.802232142857141L90.22665457842248,46.90553571428571L97.1894832275612,22.701607142857156L104.1523118766999,29.847410714285704L111.11514052583863,55.54205357142858L118.07796917497733,42.778125L125.04079782411605,25.60437500000001L132.00362647325474,21.490446428571424L138.96645512239348,51.14455357142858L145.92928377153217,22.978303571428576L152.8921124206709,32.645535714285714L159.8549410698096,57.864910714285706L166.8177697189483,46.98116071428571L173.78059836808703,27.93196428571429L180.74342701722574,23.358571428571423L187.70625566636448,55.989285714285714L194.66908431550314,25.866607142857156L201.63191296464188,39.280982142857134L208.5947416137806,69.08428571428571L215.5575702629193,57.890535714285704L222.520398912058,34.68750000000001L229.4832275611967,28.849642857142864L236.44605621033546,70.38258928571427L243.40888485947417,30.095624999999988L250.37171350861286,37.134732142857146L257.33454215775157,63.29857142857143L264.2973708068903,50.95749999999999L271.260199456029,27.910892857142848L278.2230281051677,18.705446428571413L285.1858567543064,66.14803571428571L292.14868540344514,31.53562500000001L299.11151405258386,28.16250000000001L306.07434270172257,52.79571428571428L313.0371713508613,43.09098214285714L320,16.414464285714274" style="fill: none; stroke: #065360; stroke-width: 4;"></path></g></g><path class="foreground" d="" style="display: none; fill: none;"></path></g></g></g><path class="foreground" d="" style="display: none; fill: none;"></path></g></g></g></svg>