<svg class="marks" width="1718" height="1058" viewBox="0 0 859 529" version="1.1" xmlns="http://www.w3.org/2000/svg" xmlns:xlink="http://www.w3.org/1999/xlink"><rect width="859" height="529" style="fill: #ffffff;"></rect><g transform="translate(50,5)"><g class="mark-group role-frame root"><g transform="translate(0,0)"><path class="background" d="M0.5,0.5h800v500h-800Z" style="fill: none; stroke: #ddd; stroke-opacity: 0;"></path><g><g class="mark-group role-axis"><g transform="translate(0.5,0.5)"><path class="background" d="M0,0h0v0h0Z" style="pointer-events: none; fill: none;"></path><g><g class="mark-rule role-axis-grid" style="pointer-events: none;"><line transform="translate(0,500)" x2="800" y2="0" style="fill: none; stroke: #dddddd; stroke-width: 0.8; opacity: 1;"></line><line transform="translate(0,411)" x2="800" y2="0" style="fill: none; stroke: #dddddd; stroke-width: 0.8; opacity: 1;"></line><line transform="translate(0,321)" x2="800" y2="0" style="fill: none; stroke: #dddddd; stroke-width: 0.8; opacity: 1;"></line><line transform="translate(0,232)" x2="800" y2="0" style="fill: none; stroke: #dddddd; stroke-width: 0.8; opacity: 1;"></line><line transform="translate(0,143)" x2="800" y2="0" style="fill: none; stroke: #dddddd; stroke-width: 0.8; opacity: 1;"></line><line transform="translate(0,54)" x2="800" y2="0" style="fill: none; stroke: #dddddd; stroke-width: 0.8; opacity: 1;"></line></g></g><path class="foreground" d="" style="pointer-events: none; display: none; fill: none;"></path></g></g><g class="mark-group role-axis"><g transform="translate(0.5,500.5)"><path class="background" d="M0,0h0v0h0Z" style="pointer-events: none; fill: none;"></path><g><g class="mark-rule role-axis-tick" style="pointer-events: none;"><line transform="translate(0,0)" x2="0" y2="3" style="fill: none; stroke: #888; stroke-width: 1; opacity: 1;"></line><line transform="translate(127,0)" x2="0" y2="3" style="fill: none; stroke: #888; stroke-width: 1; opacity: 1;"></line><line transform="translate(254,0)" x2="0" y2="3" style="fill: none; stroke: #888; stroke-width: 1; opacity: 1;"></line><line transform="translate(381,0)" x2="0" y2="3" style="fill: none; stroke: #888; stroke-width: 1; opacity: 1;"></line><line transform="translate(509,0)" x2="0" y2="3" style="fill: none; stroke: #888; stroke-width: 1; opacity: 1;"></line><line transform="translate(636,0)" x2="0" y2="3" style="fill: none; stroke: #888; stroke-width: 1; opacity: 1;"></line><line transform="translate(764,0)" x2="0" y2="3" style="fill: none; stroke: #888; stroke-width: 1; opacity: 1;"></line></g><g class="mark-text role-axis-label" style="pointer-events: none;"><text text-anchor="middle" transform="translate(0,16)" style="font-family: Benton Gothic, sans; font-size: 11.5px; font-weight: normal; fill: #000; opacity: 1;">Mar 01</text><text text-anchor="middle" transform="translate(127.39336492890996,16)" style="font-family: Benton Gothic, sans; font-size: 11.5px; font-weight: normal; fill: #000; opacity: 1;">Mar 08</text><text text-anchor="middle" transform="translate(254.02843601895734,16)" style="font-family: Benton Gothic, sans; font-size: 11.5px; font-weight: normal; fill: #000; opacity: 1;">Mar 15</text><text text-anchor="middle" transform="translate(381.42180094786727,16)" style="font-family: Benton Gothic, sans; font-size: 11.5px; font-weight: normal; fill: #000; opacity: 1;">Mar 22</text><text text-anchor="middle" transform="translate(508.81516587677726,16)" style="font-family: Benton Gothic, sans; font-size: 11.5px; font-weight: normal; fill: #000; opacity: 1;">Mar 29</text><text text-anchor="middle" transform="translate(636.2085308056872,16)" style="font-family: Benton Gothic, sans; font-size: 11.5px; font-weight: normal; fill: #000; opacity: 1;">Apr 05</text><text text-anchor="middle" transform="translate(763.6018957345972,16)" style="font-family: Benton Gothic, sans; font-size: 11.5px; font-weight: normal; fill: #000; opacity: 1;">Apr 12</text></g><g class="mark-rule role-axis-domain" style="pointer-events: none;"><line transform="translate(0,0)" x2="800" y2="0" style="fill: none; stroke: #888; stroke-width: 1; opacity: 1;"></line></g></g><path class="foreground" d="" style="pointer-events: none; display: none; fill: none;"></path></g></g><g class="mark-group role-axis"><g transform="translate(0.5,0.5)"><path class="background" d="M0,0h0v0h0Z" style="pointer-events: none; fill: none;"></path><g><g class="mark-rule role-axis-tick" style="pointer-events: none;"><line transform="translate(0,500)" x2="0" y2="0" style="fill: none; stroke: #888; stroke-width: 1; opacity: 1;"></line><line transform="translate(0,411)" x2="0" y2="0" style="fill: none; stroke: #888; stroke-width: 1; opacity: 1;"></line><line transform="translate(0,321)" x2="0" y2="0" style="fill: none; stroke: #888; stroke-width: 1; opacity: 1;"></line><line transform="translate(0,232)" x2="0" y2="0" style="fill: none; stroke: #888; stroke-width: 1; opacity: 1;"></line><line transform="translate(0,143)" x2="0" y2="0" style="fill: none; stroke: #888; stroke-width: 1; opacity: 1;"></line><line transform="translate(0,54)" x2="0" y2="0" style="fill: none; stroke: #888; stroke-width: 1; opacity: 1;"></line></g><g class="mark-text role-axis-label" style="pointer-events: none;"><text text-anchor="end" transform="translate(-2,503)" style="font-family: Benton Gothic, sans; font-size: 11.5px; font-weight: normal; fill: #000; opacity: 1;">0.0M</text><text text-anchor="end" transform="translate(-2,413.7142857142857)" style="font-family: Benton Gothic, sans; font-size: 11.5px; font-weight: normal; fill: #000; opacity: 1;">0.5M</text><text text-anchor="end" transform="translate(-2,324.4285714285714)" style="font-family: Benton Gothic, sans; font-size: 11.5px; font-weight: normal; fill: #000; opacity: 1;">1.0M</text><text text-anchor="end" transform="translate(-2,235.14285714285714)" style="font-family: Benton Gothic, sans; font-size: 11.5px; font-weight: normal; fill: #000; opacity: 1;">1.5M</text><text text-anchor="end" transform="translate(-2,145.85714285714286)" style="font-family: Benton Gothic, sans; font-size: 11.5px; font-weight: normal; fill: #000; opacity: 1;">2.0M</text><text text-anchor="end" transform="translate(-2,56.57142857142855)" style="font-family: Benton Gothic, sans; font-size: 11.5px; font-weight: normal; fill: #000; opacity: 1;">2.5M</text></g><g class="mark-rule role-axis-domain" style="pointer-events: none;"><line transform="translate(0,500)" x2="0" y2="-500" style="fill: none; stroke: #888; stroke-opacity: 0; stroke-width: 1; opacity: 1;"></line></g></g><path class="foreground" d="" style="pointer-events: none; display: none; fill: none;"></path></g></g><g class="mark-group role-scope pathgroup"><g transform="translate(0,0)"><path class="background" d="M0,0h800v500h-800Z" style="fill: none;"></path><g><g class="mark-line role-mark marks"><path d="M0,92.76392857142856L18.19905213270142,126.84982142857143L36.39810426540284,189.92982142857144L54.59715639810426,164.7498214285714L72.79620853080569,119.64017857142856L90.99526066350711,107.40767857142858L109.19431279620852,170.56946428571428L127.39336492890996,121.45232142857142L144.83412322274881,159.04232142857146L163.03317535545023,211.21071428571432L181.23222748815166,195.94892857142858L199.43127962085308,180.63285714285715L217.6303317535545,193.86214285714289L235.82938388625593,234.7226785714286L254.02843601895734,228.7157142857143L272.2274881516588,275.38874999999996L290.42654028436016,329.69660714285715L308.6255924170616,360.78017857142856L326.82464454976304,389.1280357142857L345.02369668246445,394.07732142857145L363.2227488151659,402.11928571428575L381.42180094786727,418.83642857142854L399.62085308056874,440.81589285714284L417.8199052132701,450.1753571428572L436.01895734597156,457.27964285714285L454.21800947867297,463.5967857142857L472.4170616113744,464.3492857142857L490.61611374407585,467.1380357142857L508.81516587677726,467.8567857142857L527.0142180094787,472.48571428571427L545.2132701421801,473.86642857142857L563.4123222748816,475.71017857142857L581.611374407583,477.85339285714286L599.8104265402843,476.8280357142857L618.0094786729858,478.8746428571429L636.2085308056872,478.20910714285714L654.4075829383886,480.65892857142853L672.6066350710901,482.6553571428571L690.8056872037915,483.04803571428573L709.0047393364929,481.4125L727.2037914691942,480.53982142857143L745.4028436018957,483.27767857142857L763.6018957345972,483.8375L781.8009478672985,481.7528571428571L800,484.36892857142857" style="fill: none; stroke: #82C6DF; stroke-width: 4;"></path></g></g><path class="foreground" d="" style="display: none; fill: none;"></path></g><g transform="translate(0,0)"><path class="background" d="M0,0h800v500h-800Z" style="fill: none;"></path><g><g class="mark-line role-mark marks"><path d="M0,89.02874999999999L18.19905213270142,96.8L36.39810426540284,146.50750000000002L54.59715639810426,117.21089285714287L72.79620853080569,70.94785714285712L90.99526066350711,45.76982142857145L109.19431279620852,114.95321428571431L127.39336492890996,56.17321428571431L144.83412322274881,75.23696428571431L163.03317535545023,120.91107142857143L181.23222748815166,109.41107142857143L199.43127962085308,52.87071428571427L217.6303317535545,29.604464285714283L235.82938388625593,93.81107142857142L254.02843601895734,45.40321428571431L272.2274881516588,59.69482142857141L290.42654028436016,111.08410714285716L308.6255924170616,85.55625L326.82464454976304,51.20875000000002L345.02369668246445,42.98089285714285L363.2227488151659,102.28910714285716L381.42180094786727,45.95660714285715L399.62085308056874,65.29107142857143L417.8199052132701,115.72982142857141L436.01895734597156,93.96232142857141L454.21800947867297,55.86392857142858L472.4170616113744,46.717142857142846L490.61611374407585,111.97857142857143L508.81516587677726,51.73321428571431L527.0142180094787,78.56196428571427L545.2132701421801,138.16857142857143L563.4123222748816,115.78107142857141L581.611374407583,69.37500000000001L599.8104265402843,57.69928571428573L618.0094786729858,140.76517857142855L636.2085308056872,60.191249999999975L654.4075829383886,74.26946428571429L672.6066350710901,126.59714285714286L690.8056872037915,101.91499999999998L709.0047393364929,55.821785714285696L727.2037914691942,37.41089285714283L745.4028436018957,132.29607142857142L763.6018957345972,63.07125000000002L781.8009478672985,56.32500000000002L800,105.59142857142857" style="fill: none; stroke: #006D8F; stroke-width: 4;"></path></g></g><path class="foreground" d="" style="display: none; fill: none;"></path></g></g></g><path class="foreground" d="" style="display: none; fill: none;"></path></g></g></g></svg>