<svg class="marks" width="718" height="658" viewBox="0 0 359 329" version="1.1" xmlns="http://www.w3.org/2000/svg" xmlns:xlink="http://www.w3.org/1999/xlink"><rect width="359" height="329" style="fill: #ffffff;"></rect><g transform="translate(50,5)"><g class="mark-group role-frame root"><g transform="translate(0,0)"><path class="background" d="M0.5,0.5h300v300h-300Z" style="fill: none; stroke: #ddd;"></path><g><g class="mark-group role-axis"><g transform="translate(0.5,0.5)"><path class="background" d="M0,0h0v0h0Z" style="pointer-events: none; fill: none;"></path><g><g class="mark-rule role-axis-grid" style="pointer-events: none;"><line transform="translate(0,300)" x2="300" y2="0" style="fill: none; stroke: #dddddd; stroke-width: 0.8; opacity: 1;"></line><line transform="translate(0,246)" x2="300" y2="0" style="fill: none; stroke: #dddddd; stroke-width: 0.8; opacity: 1;"></line><line transform="translate(0,193)" x2="300" y2="0" style="fill: none; stroke: #dddddd; stroke-width: 0.8; opacity: 1;"></line><line transform="translate(0,139)" x2="300" y2="0" style="fill: none; stroke: #dddddd; stroke-width: 0.8; opacity: 1;"></line><line transform="translate(0,86)" x2="300" y2="0" style="fill: none; stroke: #dddddd; stroke-width: 0.8; opacity: 1;"></line><line transform="translate(0,32)" x2="300" y2="0" style="fill: none; stroke: #dddddd; stroke-width: 0.8; opacity: 1;"></line></g></g><path class="foreground" d="" style="pointer-events: none; display: none; fill: none;"></path></g></g><g class="mark-group role-axis"><g transform="translate(0.5,300.5)"><path class="background" d="M0,0h0v0h0Z" style="pointer-events: none; fill: none;"></path><g><g class="mark-rule role-axis-tick" style="pointer-events: none;"><line transform="translate(0,0)" x2="0" y2="3" style="fill: none; stroke: #888; stroke-width: 1; opacity: 1;"></line><line transform="translate(53,0)" x2="0" y2="3" style="fill: none; stroke: #888; stroke-width: 1; opacity: 1;"></line><line transform="translate(105,0)" x2="0" y2="3" style="fill: none; stroke: #888; stroke-width: 1; opacity: 1;"></line><line transform="translate(157,0)" x2="0" y2="3" style="fill: none; stroke: #888; stroke-width: 1; opacity: 1;"></line><line transform="translate(210,0)" x2="0" y2="3" style="fill: none; stroke: #888; stroke-width: 1; opacity: 1;"></line><line transform="translate(262,0)" x2="0" y2="3" style="fill: none; stroke: #888; stroke-width: 1; opacity: 1;"></line></g><g class="mark-text role-axis-label" style="pointer-events: none;"><text text-anchor="middle" transform="translate(0,16)" style="font-family: Benton Gothic, sans; font-size: 11.5px; font-weight: normal; fill: #000; opacity: 1;">Mar 01</text><text text-anchor="middle" transform="translate(52.55474452554745,16)" style="font-family: Benton Gothic, sans; font-size: 11.5px; font-weight: normal; fill: #000; opacity: 1;">Mar 08</text><text text-anchor="middle" transform="translate(104.79666319082378,16)" style="font-family: Benton Gothic, sans; font-size: 11.5px; font-weight: normal; fill: #000; opacity: 1;">Mar 15</text><text text-anchor="middle" transform="translate(157.35140771637123,16)" style="font-family: Benton Gothic, sans; font-size: 11.5px; font-weight: normal; fill: #000; opacity: 1;">Mar 22</text><text text-anchor="middle" transform="translate(209.90615224191868,16)" style="font-family: Benton Gothic, sans; font-size: 11.5px; font-weight: normal; fill: #000; opacity: 1;">Mar 29</text><text text-anchor="middle" transform="translate(262.4608967674661,16)" style="font-family: Benton Gothic, sans; font-size: 11.5px; font-weight: normal; fill: #000; opacity: 1;">Apr 05</text></g><g class="mark-rule role-axis-domain" style="pointer-events: none;"><line transform="translate(0,0)" x2="300" y2="0" style="fill: none; stroke: #888; stroke-width: 1; opacity: 1;"></line></g></g><path class="foreground" d="" style="pointer-events: none; display: none; fill: none;"></path></g></g><g class="mark-group role-axis"><g transform="translate(0.5,0.5)"><path class="background" d="M0,0h0v0h0Z" style="pointer-events: none; fill: none;"></path><g><g class="mark-rule role-axis-tick" style="pointer-events: none;"><line transform="translate(0,300)" x2="-2" y2="0" style="fill: none; stroke: #888; stroke-width: 1; opacity: 1;"></line><line transform="translate(0,246)" x2="-2" y2="0" style="fill: none; stroke: #888; stroke-width: 1; opacity: 1;"></line><line transform="translate(0,193)" x2="-2" y2="0" style="fill: none; stroke: #888; stroke-width: 1; opacity: 1;"></line><line transform="translate(0,139)" x2="-2" y2="0" style="fill: none; stroke: #888; stroke-width: 1; opacity: 1;"></line><line transform="translate(0,86)" x2="-2" y2="0" style="fill: none; stroke: #888; stroke-width: 1; opacity: 1;"></line><line transform="translate(0,32)" x2="-2" y2="0" style="fill: none; stroke: #888; stroke-width: 1; opacity: 1;"></line></g><g class="mark-text role-axis-label" style="pointer-events: none;"><text text-anchor="end" transform="translate(-4,303)" style="font-family: Benton Gothic, sans; font-size: 11.5px; font-weight: normal; fill: #000; opacity: 1;">0.0M</text><text text-anchor="end" transform="translate(-4,249.42857142857142)" style="font-family: Benton Gothic, sans; font-size: 11.5px; font-weight: normal; fill: #000; opacity: 1;">0.5M</text><text text-anchor="end" transform="translate(-4,195.85714285714283)" style="font-family: Benton Gothic, sans; font-size: 11.5px; font-weight: normal; fill: #000; opacity: 1;">1.0M</text><text text-anchor="end" transform="translate(-4,142.28571428571428)" style="font-family: Benton Gothic, sans; font-size: 11.5px; font-weight: normal; fill: #000; opacity: 1;">1.5M</text><text text-anchor="end" transform="translate(-4,88.71428571428571)" style="font-family: Benton Gothic, sans; font-size: 11.5px; font-weight: normal; fill: #000; opacity: 1;">2.0M</text><text text-anchor="end" transform="translate(-4,35.14285714285713)" style="font-family: Benton Gothic, sans; font-size: 11.5px; font-weight: normal; fill: #000; opacity: 1;">2.5M</text></g><g class="mark-rule role-axis-domain" style="pointer-events: none;"><line transform="translate(0,300)" x2="0" y2="-300" style="fill: none; stroke: #888; stroke-width: 1; opacity: 1;"></line></g></g><path class="foreground" d="" style="pointer-events: none; display: none; fill: none;"></path></g></g><g class="mark-group role-scope pathgroup"><g transform="translate(0,0)"><path class="background" d="M0,0h300v300h-300Z" style="fill: none;"></path><g><g class="mark-line role-mark marks"><path d="M0,55.65835714285714L7.5078206465067785,76.10989285714285L15.015641293013557,113.95789285714287L22.523461939520335,98.84989285714285L30.031282586027114,71.78410714285714L37.5391032325339,64.44460714285715L45.04692387904067,102.34167857142857L52.55474452554745,72.87139285714287L59.74973931178311,95.42539285714287L67.25755995828989,126.72642857142858L74.76538060479666,117.56935714285716L82.27320125130345,108.37971428571429L89.78102189781022,116.31728571428572L97.28884254431699,140.83360714285715L104.79666319082378,137.22942857142857L112.30448383733055,165.23324999999997L119.81230448383734,197.81796428571428L127.32012513034411,216.46810714285715L134.8279457768509,233.47682142857144L142.33576642335765,236.44639285714285L149.84358706986444,241.27157142857143L157.35140771637123,251.30185714285713L164.85922836287799,264.4895357142857L172.36704900938477,270.1052142857143L179.87486965589156,274.36778571428573L187.38269030239834,278.1580714285714L194.8905109489051,278.6095714285714L202.39833159541186,280.2828214285714L209.90615224191868,280.7140714285714L217.41397288842543,283.49142857142857L224.92179353493222,284.31985714285713L232.429614181439,285.4261071428571L239.9374348279458,286.7120357142857L247.44525547445255,286.09682142857145L254.9530761209593,287.3247857142857L262.4608967674661,286.92546428571427L269.9687174139729,288.3953571428571L277.47653806047964,289.5932142857143L284.9843587069864,289.8288214285714L292.4921793534932,288.8475L300,288.3238928571429" style="fill: none; stroke: #82C6DF; stroke-width: 4;"></path></g></g><path class="foreground" d="" style="display: none; fill: none;"></path></g><g transform="translate(0,0)"><path class="background" d="M0,0h300v300h-300Z" style="fill: none;"></path><g><g class="mark-line role-mark marks"><path d="M0,53.417249999999996L7.5078206465067785,58.08L15.015641293013557,87.90450000000001L22.523461939520335,70.32653571428573L30.031282586027114,42.56871428571427L37.5391032325339,27.461892857142868L45.04692387904067,68.97192857142859L52.55474452554745,33.70392857142859L59.74973931178311,45.14217857142858L67.25755995828989,72.54664285714286L74.76538060479666,65.64664285714285L82.27320125130345,31.722428571428562L89.78102189781022,17.76267857142857L97.28884254431699,56.28664285714285L104.79666319082378,27.241928571428588L112.30448383733055,35.81689285714285L119.81230448383734,66.65046428571429L127.32012513034411,51.33375L134.8279457768509,30.725250000000017L142.33576642335765,25.78853571428571L149.84358706986444,61.3734642857143L157.35140771637123,27.573964285714293L164.85922836287799,39.174642857142864L172.36704900938477,69.43789285714284L179.87486965589156,56.37739285714285L187.38269030239834,33.51835714285715L194.8905109489051,28.030285714285707L202.39833159541186,67.18714285714286L209.90615224191868,31.03992857142859L217.41397288842543,47.137178571428564L224.92179353493222,82.90114285714284L232.429614181439,69.46864285714285L239.9374348279458,41.625000000000014L247.44525547445255,34.61957142857144L254.9530761209593,84.45910714285714L262.4608967674661,36.11474999999999L269.9687174139729,44.56167857142857L277.47653806047964,75.95828571428571L284.9843587069864,61.14899999999999L292.4921793534932,33.49307142857142L300,22.446535714285698" style="fill: none; stroke: #006D8F; stroke-width: 4;"></path></g></g><path class="foreground" d="" style="display: none; fill: none;"></path></g></g></g><path class="foreground" d="" style="display: none; fill: none;"></path></g></g></g></svg>