<svg class="marks" width="1008" height="957" viewBox="0 0 336 319" version="1.1" xmlns="http://www.w3.org/2000/svg" xmlns:xlink="http://www.w3.org/1999/xlink"><rect width="336" height="319" style="fill: #ffffff;"></rect><g transform="translate(33,0)"><g class="mark-group role-frame root"><g transform="translate(0,0)"><path class="background" d="M0.5,0.5h300v300h-300Z" style="fill: none; stroke: #ddd; stroke-opacity: 0;"></path><g><g class="mark-group role-axis"><g transform="translate(0.5,0.5)"><path class="background" d="M0,0h0v0h0Z" style="pointer-events: none; fill: none;"></path><g><g class="mark-rule role-axis-grid" style="pointer-events: none;"><line transform="translate(0,300)" x2="300" y2="0" style="fill: none; stroke: #dddddd; stroke-width: 0.6; opacity: 1;"></line><line transform="translate(0,246)" x2="300" y2="0" style="fill: none; stroke: #dddddd; stroke-width: 0.6; opacity: 1;"></line><line transform="translate(0,193)" x2="300" y2="0" style="fill: none; stroke: #dddddd; stroke-width: 0.6; opacity: 1;"></line><line transform="translate(0,139)" x2="300" y2="0" style="fill: none; stroke: #dddddd; stroke-width: 0.6; opacity: 1;"></line><line transform="translate(0,86)" x2="300" y2="0" style="fill: none; stroke: #dddddd; stroke-width: 0.6; opacity: 1;"></line><line transform="translate(0,32)" x2="300" y2="0" style="fill: none; stroke: #dddddd; stroke-width: 0.6; opacity: 1;"></line></g></g><path class="foreground" d="" style="pointer-events: none; display: none; fill: none;"></path></g></g><g class="mark-group role-axis"><g transform="translate(0.5,300.5)"><path class="background" d="M0,0h0v0h0Z" style="pointer-events: none; fill: none;"></path><g><g class="mark-rule role-axis-tick" style="pointer-events: none;"><line transform="translate(0,0)" x2="0" y2="3" style="fill: none; stroke: #888; stroke-width: 1; opacity: 1;"></line><line transform="translate(166,0)" x2="0" y2="3" style="fill: none; stroke: #888; stroke-width: 1; opacity: 1;"></line></g><g class="mark-text role-axis-label" style="pointer-events: none;"><text text-anchor="middle" transform="translate(0,16)" style="font-family: Benton Gothic, sans; font-size: 11.5px; font-weight: normal; fill: #000; opacity: 1;">Mar. 1</text><text text-anchor="middle" transform="translate(165.97170513775131,16)" style="font-family: Benton Gothic, sans; font-size: 11.5px; font-weight: normal; fill: #000; opacity: 1;">Apr. 1</text></g><g class="mark-rule role-axis-domain" style="pointer-events: none;"><line transform="translate(0,0)" x2="300" y2="0" style="fill: none; stroke: #888; stroke-width: 1; opacity: 1;"></line></g></g><path class="foreground" d="" style="pointer-events: none; display: none; fill: none;"></path></g></g><g class="mark-group role-axis"><g transform="translate(-2.5,0.5)"><path class="background" d="M0,0h0v0h0Z" style="pointer-events: none; fill: none;"></path><g><g class="mark-rule role-axis-tick" style="pointer-events: none;"><line transform="translate(0,300)" x2="0" y2="0" style="fill: none; stroke: #888; stroke-width: 1; opacity: 1;"></line><line transform="translate(0,246)" x2="0" y2="0" style="fill: none; stroke: #888; stroke-width: 1; opacity: 1;"></line><line transform="translate(0,193)" x2="0" y2="0" style="fill: none; stroke: #888; stroke-width: 1; opacity: 1;"></line><line transform="translate(0,139)" x2="0" y2="0" style="fill: none; stroke: #888; stroke-width: 1; opacity: 1;"></line><line transform="translate(0,86)" x2="0" y2="0" style="fill: none; stroke: #888; stroke-width: 1; opacity: 1;"></line><line transform="translate(0,32)" x2="0" y2="0" style="fill: none; stroke: #888; stroke-width: 1; opacity: 1;"></line></g><g class="mark-text role-axis-label" style="pointer-events: none;"><text text-anchor="end" transform="translate(-2,303)" style="font-family: Benton Gothic, sans; font-size: 11.5px; font-weight: normal; fill: #000; opacity: 1;">0.0M</text><text text-anchor="end" transform="translate(-2,249.42857142857142)" style="font-family: Benton Gothic, sans; font-size: 11.5px; font-weight: normal; fill: #000; opacity: 1;">0.5M</text><text text-anchor="end" transform="translate(-2,195.85714285714283)" style="font-family: Benton Gothic, sans; font-size: 11.5px; font-weight: normal; fill: #000; opacity: 1;">1.0M</text><text text-anchor="end" transform="translate(-2,142.28571428571428)" style="font-family: Benton Gothic, sans; font-size: 11.5px; font-weight: normal; fill: #000; opacity: 1;">1.5M</text><text text-anchor="end" transform="translate(-2,88.71428571428571)" style="font-family: Benton Gothic, sans; font-size: 11.5px; font-weight: normal; fill: #000; opacity: 1;">2.0M</text><text text-anchor="end" transform="translate(-2,35.14285714285713)" style="font-family: Benton Gothic, sans; font-size: 11.5px; font-weight: normal; fill: #000; opacity: 1;">2.5M</text></g><g class="mark-rule role-axis-domain" style="pointer-events: none;"><line transform="translate(0,300)" x2="0" y2="-300" style="fill: none; stroke: #888; stroke-opacity: 0; stroke-width: 1; opacity: 1;"></line></g></g><path class="foreground" d="" style="pointer-events: none; display: none; fill: none;"></path></g></g><g class="mark-group role-scope pathgroup"><g transform="translate(0,0)"><path class="background" d="M0,0h300v300h-300Z" style="fill: none;"></path><g><g class="mark-line role-mark marks"><path d="M0,55.65835714285714L5.361131794489948,76.10989285714285L10.722263588979896,113.95789285714287L16.083395383469842,98.84989285714285L21.44452717795979,71.78410714285714L26.80565897244974,64.44460714285715L32.166790766939684,102.34167857142857L37.527922561429634,72.87139285714287L42.66567386448251,95.42539285714287L48.02680565897245,126.72642857142858L53.38793745346239,117.56935714285716L58.74906924795235,108.37971428571429L64.1102010424423,116.31728571428572L69.47133283693223,140.83360714285715L74.83246463142218,137.22942857142857L80.19359642591213,165.23324999999997L85.5547282204021,197.81796428571428L90.91586001489203,216.46810714285715L96.27699180938198,233.47682142857144L101.63812360387192,236.44639285714285L106.99925539836188,241.27157142857143L112.36038719285183,251.30185714285713L117.72151898734177,264.4895357142857L123.08265078183172,270.1052142857143L128.44378257632167,274.36778571428573L133.80491437081162,278.1580714285714L139.16604616530157,278.6095714285714L144.52717795979152,280.2828214285714L149.88830975428147,280.7140714285714L155.2494415487714,283.49142857142857L160.61057334326136,284.31985714285713L165.97170513775131,285.4261071428571L171.33283693224124,286.7120357142857L176.6939687267312,286.09682142857145L182.05510052122114,287.3247857142857L187.41623231571108,286.92546428571427L192.77736411020106,288.3953571428571L198.13849590469098,289.5932142857143L203.49962769918093,289.8288214285714L208.8607594936709,288.8475L214.22189128816083,288.3238928571429L219.58302308265078,289.96660714285713L224.94415487714073,290.3025L230.30528667163068,289.0517142857143L235.66641846612063,290.6213571428571L241.02755026061055,290.2731428571429L246.38868205510053,289.8123214285714L251.74981384959045,288.6016071428572L257.1109456440804,289.58185714285713L262.47207743857035,288.7090714285714L267.8332092330603,289.356L273.19434102755025,290.05082142857145L278.5554728220402,289.3962857142857L283.91660461653015,288.0399642857143L289.2777364110201,286.77171428571427L294.63886820551005,287.7365357142857L300,286.1919642857143" style="fill: none; stroke: #C7733E; stroke-width: 3;"></path></g></g><path class="foreground" d="" style="display: none; fill: none;"></path></g><g transform="translate(0,0)"><path class="background" d="M0,0h300v300h-300Z" style="fill: none;"></path><g><g class="mark-line role-mark marks"><path d="M0,53.417249999999996L5.361131794489948,58.08L10.722263588979896,87.90450000000001L16.083395383469842,70.32653571428573L21.44452717795979,42.56871428571427L26.80565897244974,27.461892857142868L32.166790766939684,68.97192857142859L37.527922561429634,33.70392857142859L42.66567386448251,45.14217857142858L48.02680565897245,72.54664285714286L53.38793745346239,65.64664285714285L58.74906924795235,31.722428571428562L64.1102010424423,17.76267857142857L69.47133283693223,56.28664285714285L74.83246463142218,27.241928571428588L80.19359642591213,35.81689285714285L85.5547282204021,66.65046428571429L90.91586001489203,51.33375L96.27699180938198,30.725250000000017L101.63812360387192,25.78853571428571L106.99925539836188,61.3734642857143L112.36038719285183,27.573964285714293L117.72151898734177,39.174642857142864L123.08265078183172,69.43789285714284L128.44378257632167,56.37739285714285L133.80491437081162,33.51835714285715L139.16604616530157,28.030285714285707L144.52717795979152,67.18714285714286L149.88830975428147,31.03992857142859L155.2494415487714,47.137178571428564L160.61057334326136,82.90114285714284L165.97170513775131,69.46864285714285L171.33283693224124,41.625000000000014L176.6939687267312,34.61957142857144L182.05510052122114,84.45910714285714L187.41623231571108,36.11474999999999L192.77736411020106,44.56167857142857L198.13849590469098,75.95828571428571L203.49962769918093,61.14899999999999L208.8607594936709,33.49307142857142L214.22189128816083,22.446535714285698L219.58302308265078,79.37764285714285L224.94415487714073,37.84275000000002L230.30528667163068,33.79500000000001L235.66641846612063,63.354857142857135L241.02755026061055,51.70917857142857L246.38868205510053,19.69735714285713L251.74981384959045,36.73574999999999L257.1109456440804,86.97803571428572L262.47207743857035,47.4855L267.8332092330603,22.053107142857144L273.19434102755025,61.34196428571429L278.5554728220402,58.47760714285716L283.91660461653015,29.25417857142858L289.2777364110201,29.796749999999996L294.63886820551005,86.73600000000002L300,31.413321428571418" style="fill: none; stroke: #C4C1B3; stroke-width: 3;"></path></g></g><path class="foreground" d="" style="display: none; fill: none;"></path></g></g></g><path class="foreground" d="" style="display: none; fill: none;"></path></g></g></g></svg>