<svg class="marks" width="2548" height="1058" viewBox="0 0 1274 529" version="1.1" xmlns="http://www.w3.org/2000/svg" xmlns:xlink="http://www.w3.org/1999/xlink"><rect width="1274" height="529" style="fill: #ffffff;"></rect><g transform="translate(50,5)"><g class="mark-group role-frame root"><g transform="translate(0,0)"><path class="background" d="M0.5,0.5h1200v500h-1200Z" style="fill: none; stroke: #ddd;"></path><g><g class="mark-group role-axis"><g transform="translate(0.5,0.5)"><path class="background" d="M0,0h0v0h0Z" style="pointer-events: none; fill: none;"></path><g><g class="mark-rule role-axis-grid" style="pointer-events: none;"><line transform="translate(0,500)" x2="1200" y2="0" style="fill: none; stroke: #dddddd; stroke-width: 0.8; opacity: 1;"></line><line transform="translate(0,411)" x2="1200" y2="0" style="fill: none; stroke: #dddddd; stroke-width: 0.8; opacity: 1;"></line><line transform="translate(0,321)" x2="1200" y2="0" style="fill: none; stroke: #dddddd; stroke-width: 0.8; opacity: 1;"></line><line transform="translate(0,232)" x2="1200" y2="0" style="fill: none; stroke: #dddddd; stroke-width: 0.8; opacity: 1;"></line><line transform="translate(0,143)" x2="1200" y2="0" style="fill: none; stroke: #dddddd; stroke-width: 0.8; opacity: 1;"></line><line transform="translate(0,54)" x2="1200" y2="0" style="fill: none; stroke: #dddddd; stroke-width: 0.8; opacity: 1;"></line></g></g><path class="foreground" d="" style="pointer-events: none; display: none; fill: none;"></path></g></g><g class="mark-group role-axis"><g transform="translate(0.5,500.5)"><path class="background" d="M0,0h0v0h0Z" style="pointer-events: none; fill: none;"></path><g><g class="mark-rule role-axis-tick" style="pointer-events: none;"><line transform="translate(0,0)" x2="0" y2="3" style="fill: none; stroke: #888; stroke-width: 1; opacity: 1;"></line><line transform="translate(86,0)" x2="0" y2="3" style="fill: none; stroke: #888; stroke-width: 1; opacity: 1;"></line><line transform="translate(172,0)" x2="0" y2="3" style="fill: none; stroke: #888; stroke-width: 1; opacity: 1;"></line><line transform="translate(258,0)" x2="0" y2="3" style="fill: none; stroke: #888; stroke-width: 1; opacity: 1;"></line><line transform="translate(342,0)" x2="0" y2="3" style="fill: none; stroke: #888; stroke-width: 1; opacity: 1;"></line><line transform="translate(427,0)" x2="0" y2="3" style="fill: none; stroke: #888; stroke-width: 1; opacity: 1;"></line><line transform="translate(513,0)" x2="0" y2="3" style="fill: none; stroke: #888; stroke-width: 1; opacity: 1;"></line><line transform="translate(599,0)" x2="0" y2="3" style="fill: none; stroke: #888; stroke-width: 1; opacity: 1;"></line><line transform="translate(685,0)" x2="0" y2="3" style="fill: none; stroke: #888; stroke-width: 1; opacity: 1;"></line><line transform="translate(771,0)" x2="0" y2="3" style="fill: none; stroke: #888; stroke-width: 1; opacity: 1;"></line><line transform="translate(857,0)" x2="0" y2="3" style="fill: none; stroke: #888; stroke-width: 1; opacity: 1;"></line><line transform="translate(942,0)" x2="0" y2="3" style="fill: none; stroke: #888; stroke-width: 1; opacity: 1;"></line><line transform="translate(1028,0)" x2="0" y2="3" style="fill: none; stroke: #888; stroke-width: 1; opacity: 1;"></line><line transform="translate(1114,0)" x2="0" y2="3" style="fill: none; stroke: #888; stroke-width: 1; opacity: 1;"></line><line transform="translate(1200,0)" x2="0" y2="3" style="fill: none; stroke: #888; stroke-width: 1; opacity: 1;"></line></g><g class="mark-text role-axis-label" style="pointer-events: none;"><text text-anchor="middle" transform="translate(0,16)" style="font-family: Benton Gothic, sans; font-size: 11.5px; font-weight: normal; fill: #000; opacity: 1;">Mar 01</text><text text-anchor="middle" transform="translate(85.84202682563338,16)" style="font-family: Benton Gothic, sans; font-size: 11.5px; font-weight: normal; fill: #000; opacity: 1;">Mar 03</text><text text-anchor="middle" transform="translate(171.68405365126677,16)" style="font-family: Benton Gothic, sans; font-size: 11.5px; font-weight: normal; fill: #000; opacity: 1;">Mar 05</text><text text-anchor="middle" transform="translate(257.5260804769002,16)" style="font-family: Benton Gothic, sans; font-size: 11.5px; font-weight: normal; fill: #000; opacity: 1;">Mar 07</text><text text-anchor="middle" transform="translate(341.5797317436661,16)" style="font-family: Benton Gothic, sans; font-size: 11.5px; font-weight: normal; fill: #000; opacity: 1;">Mar 09</text><text text-anchor="middle" transform="translate(427.4217585692995,16)" style="font-family: Benton Gothic, sans; font-size: 11.5px; font-weight: normal; fill: #000; opacity: 1;">Mar 11</text><text text-anchor="middle" transform="translate(513.2637853949329,16)" style="font-family: Benton Gothic, sans; font-size: 11.5px; font-weight: normal; fill: #000; opacity: 1;">Mar 13</text><text text-anchor="middle" transform="translate(599.1058122205663,16)" style="font-family: Benton Gothic, sans; font-size: 11.5px; font-weight: normal; fill: #000; opacity: 1;">Mar 15</text><text text-anchor="middle" transform="translate(684.9478390461998,16)" style="font-family: Benton Gothic, sans; font-size: 11.5px; font-weight: normal; fill: #000; opacity: 1;">Mar 17</text><text text-anchor="middle" transform="translate(770.7898658718331,16)" style="font-family: Benton Gothic, sans; font-size: 11.5px; font-weight: normal; fill: #000; opacity: 1;">Mar 19</text><text text-anchor="middle" transform="translate(856.6318926974664,16)" style="font-family: Benton Gothic, sans; font-size: 11.5px; font-weight: normal; fill: #000; opacity: 1;">Mar 21</text><text text-anchor="middle" transform="translate(942.4739195230999,16)" style="font-family: Benton Gothic, sans; font-size: 11.5px; font-weight: normal; fill: #000; opacity: 1;">Mar 23</text><text text-anchor="middle" transform="translate(1028.3159463487332,16)" style="font-family: Benton Gothic, sans; font-size: 11.5px; font-weight: normal; fill: #000; opacity: 1;">Mar 25</text><text text-anchor="middle" transform="translate(1114.1579731743666,16)" style="font-family: Benton Gothic, sans; font-size: 11.5px; font-weight: normal; fill: #000; opacity: 1;">Mar 27</text><text text-anchor="middle" transform="translate(1200,16)" style="font-family: Benton Gothic, sans; font-size: 11.5px; font-weight: normal; fill: #000; opacity: 1;">Mar 29</text></g><g class="mark-rule role-axis-domain" style="pointer-events: none;"><line transform="translate(0,0)" x2="1200" y2="0" style="fill: none; stroke: #888; stroke-width: 1; opacity: 1;"></line></g></g><path class="foreground" d="" style="pointer-events: none; display: none; fill: none;"></path></g></g><g class="mark-group role-axis"><g transform="translate(0.5,0.5)"><path class="background" d="M0,0h0v0h0Z" style="pointer-events: none; fill: none;"></path><g><g class="mark-rule role-axis-tick" style="pointer-events: none;"><line transform="translate(0,500)" x2="-2" y2="0" style="fill: none; stroke: #888; stroke-width: 1; opacity: 1;"></line><line transform="translate(0,411)" x2="-2" y2="0" style="fill: none; stroke: #888; stroke-width: 1; opacity: 1;"></line><line transform="translate(0,321)" x2="-2" y2="0" style="fill: none; stroke: #888; stroke-width: 1; opacity: 1;"></line><line transform="translate(0,232)" x2="-2" y2="0" style="fill: none; stroke: #888; stroke-width: 1; opacity: 1;"></line><line transform="translate(0,143)" x2="-2" y2="0" style="fill: none; stroke: #888; stroke-width: 1; opacity: 1;"></line><line transform="translate(0,54)" x2="-2" y2="0" style="fill: none; stroke: #888; stroke-width: 1; opacity: 1;"></line></g><g class="mark-text role-axis-label" style="pointer-events: none;"><text text-anchor="end" transform="translate(-4,503)" style="font-family: Benton Gothic, sans; font-size: 11.5px; font-weight: normal; fill: #000; opacity: 1;">0.0M</text><text text-anchor="end" transform="translate(-4,413.7142857142857)" style="font-family: Benton Gothic, sans; font-size: 11.5px; font-weight: normal; fill: #000; opacity: 1;">0.5M</text><text text-anchor="end" transform="translate(-4,324.4285714285714)" style="font-family: Benton Gothic, sans; font-size: 11.5px; font-weight: normal; fill: #000; opacity: 1;">1.0M</text><text text-anchor="end" transform="translate(-4,235.14285714285714)" style="font-family: Benton Gothic, sans; font-size: 11.5px; font-weight: normal; fill: #000; opacity: 1;">1.5M</text><text text-anchor="end" transform="translate(-4,145.85714285714286)" style="font-family: Benton Gothic, sans; font-size: 11.5px; font-weight: normal; fill: #000; opacity: 1;">2.0M</text><text text-anchor="end" transform="translate(-4,56.57142857142855)" style="font-family: Benton Gothic, sans; font-size: 11.5px; font-weight: normal; fill: #000; opacity: 1;">2.5M</text></g><g class="mark-rule role-axis-domain" style="pointer-events: none;"><line transform="translate(0,500)" x2="0" y2="-500" style="fill: none; stroke: #888; stroke-width: 1; opacity: 1;"></line></g></g><path class="foreground" d="" style="pointer-events: none; display: none; fill: none;"></path></g></g><g class="mark-group role-scope pathgroup"><g transform="translate(0,0)"><path class="background" d="M0,0h1200v500h-1200Z" style="fill: none;"></path><g><g class="mark-line role-mark marks"><path d="M0,92.76392857142856L42.92101341281669,126.84982142857143L85.84202682563338,189.92982142857144L128.7630402384501,164.7498214285714L171.68405365126677,119.64017857142856L214.60506706408347,107.40767857142858L257.5260804769002,170.56946428571428L300.4470938897169,121.45232142857142L341.5797317436661,159.04232142857146L384.5007451564829,211.21071428571432L427.4217585692995,195.94892857142858L470.3427719821163,180.63285714285715L513.2637853949329,193.86214285714289L556.1847988077496,234.7226785714286L599.1058122205663,228.7157142857143L642.026825633383,275.38874999999996L684.9478390461998,329.69660714285715L727.8688524590164,360.78017857142856L770.7898658718331,389.1280357142857L813.7108792846498,394.07732142857145L856.6318926974664,402.11928571428575L899.5529061102832,418.83642857142854L942.4739195230999,440.81589285714284L985.3949329359166,450.1753571428572L1028.3159463487332,457.27964285714285L1071.2369597615498,463.5967857142857L1114.1579731743666,464.3492857142857L1157.0789865871834,467.1380357142857L1200,467.8567857142857" style="fill: none; stroke: #82C6DF; stroke-width: 4;"></path></g></g><path class="foreground" d="" style="display: none; fill: none;"></path></g><g transform="translate(0,0)"><path class="background" d="M0,0h1200v500h-1200Z" style="fill: none;"></path><g><g class="mark-line role-mark marks"><path d="M0,89.02874999999999L42.92101341281669,96.8L85.84202682563338,146.50750000000002L128.7630402384501,117.21089285714287L171.68405365126677,70.94785714285712L214.60506706408347,45.76982142857145L257.5260804769002,114.95321428571431L300.4470938897169,56.17321428571431L341.5797317436661,75.23696428571431L384.5007451564829,120.91107142857143L427.4217585692995,109.41107142857143L470.3427719821163,52.87071428571427L513.2637853949329,29.604464285714283L556.1847988077496,93.81107142857142L599.1058122205663,45.40321428571431L642.026825633383,59.69482142857141L684.9478390461998,111.08410714285716L727.8688524590164,85.55625L770.7898658718331,51.20875000000002L813.7108792846498,42.98089285714285L856.6318926974664,102.28910714285716L899.5529061102832,45.95660714285715L942.4739195230999,65.29107142857143L985.3949329359166,115.72982142857141L1028.3159463487332,93.96232142857141L1071.2369597615498,55.86392857142858L1114.1579731743666,46.717142857142846L1157.0789865871834,111.97857142857143L1200,51.73321428571431" style="fill: none; stroke: #006D8F; stroke-width: 4;"></path></g></g><path class="foreground" d="" style="display: none; fill: none;"></path></g></g></g><path class="foreground" d="" style="display: none; fill: none;"></path></g></g></g></svg>