<svg class="marks" width="1008" height="957" viewBox="0 0 336 319" version="1.1" xmlns="http://www.w3.org/2000/svg" xmlns:xlink="http://www.w3.org/1999/xlink"><rect width="336" height="319" style="fill: #ffffff;"></rect><g transform="translate(33,0)"><g class="mark-group role-frame root"><g transform="translate(0,0)"><path class="background" d="M0.5,0.5h300v300h-300Z" style="fill: none; stroke: #ddd; stroke-opacity: 0;"></path><g><g class="mark-group role-axis"><g transform="translate(0.5,0.5)"><path class="background" d="M0,0h0v0h0Z" style="pointer-events: none; fill: none;"></path><g><g class="mark-rule role-axis-grid" style="pointer-events: none;"><line transform="translate(0,300)" x2="300" y2="0" style="fill: none; stroke: #dddddd; stroke-width: 0.6; opacity: 1;"></line><line transform="translate(0,246)" x2="300" y2="0" style="fill: none; stroke: #dddddd; stroke-width: 0.6; opacity: 1;"></line><line transform="translate(0,193)" x2="300" y2="0" style="fill: none; stroke: #dddddd; stroke-width: 0.6; opacity: 1;"></line><line transform="translate(0,139)" x2="300" y2="0" style="fill: none; stroke: #dddddd; stroke-width: 0.6; opacity: 1;"></line><line transform="translate(0,86)" x2="300" y2="0" style="fill: none; stroke: #dddddd; stroke-width: 0.6; opacity: 1;"></line><line transform="translate(0,32)" x2="300" y2="0" style="fill: none; stroke: #dddddd; stroke-width: 0.6; opacity: 1;"></line></g></g><path class="foreground" d="" style="pointer-events: none; display: none; fill: none;"></path></g></g><g class="mark-group role-axis"><g transform="translate(0.5,300.5)"><path class="background" d="M0,0h0v0h0Z" style="pointer-events: none; fill: none;"></path><g><g class="mark-rule role-axis-tick" style="pointer-events: none;"><line transform="translate(0,0)" x2="0" y2="3" style="fill: none; stroke: #888; stroke-width: 1; opacity: 1;"></line><line transform="translate(175,0)" x2="0" y2="3" style="fill: none; stroke: #888; stroke-width: 1; opacity: 1;"></line></g><g class="mark-text role-axis-label" style="pointer-events: none;"><text text-anchor="middle" transform="translate(0,16)" style="font-family: Benton Gothic, sans; font-size: 11.5px; font-weight: normal; fill: #000; opacity: 1;">Mar. 1</text><text text-anchor="middle" transform="translate(175.37372147915028,16)" style="font-family: Benton Gothic, sans; font-size: 11.5px; font-weight: normal; fill: #000; opacity: 1;">Apr. 1</text></g><g class="mark-rule role-axis-domain" style="pointer-events: none;"><line transform="translate(0,0)" x2="300" y2="0" style="fill: none; stroke: #888; stroke-width: 1; opacity: 1;"></line></g></g><path class="foreground" d="" style="pointer-events: none; display: none; fill: none;"></path></g></g><g class="mark-group role-axis"><g transform="translate(-2.5,0.5)"><path class="background" d="M0,0h0v0h0Z" style="pointer-events: none; fill: none;"></path><g><g class="mark-rule role-axis-tick" style="pointer-events: none;"><line transform="translate(0,300)" x2="0" y2="0" style="fill: none; stroke: #888; stroke-width: 1; opacity: 1;"></line><line transform="translate(0,246)" x2="0" y2="0" style="fill: none; stroke: #888; stroke-width: 1; opacity: 1;"></line><line transform="translate(0,193)" x2="0" y2="0" style="fill: none; stroke: #888; stroke-width: 1; opacity: 1;"></line><line transform="translate(0,139)" x2="0" y2="0" style="fill: none; stroke: #888; stroke-width: 1; opacity: 1;"></line><line transform="translate(0,86)" x2="0" y2="0" style="fill: none; stroke: #888; stroke-width: 1; opacity: 1;"></line><line transform="translate(0,32)" x2="0" y2="0" style="fill: none; stroke: #888; stroke-width: 1; opacity: 1;"></line></g><g class="mark-text role-axis-label" style="pointer-events: none;"><text text-anchor="end" transform="translate(-2,303)" style="font-family: Benton Gothic, sans; font-size: 11.5px; font-weight: normal; fill: #000; opacity: 1;">0.0M</text><text text-anchor="end" transform="translate(-2,249.42857142857142)" style="font-family: Benton Gothic, sans; font-size: 11.5px; font-weight: normal; fill: #000; opacity: 1;">0.5M</text><text text-anchor="end" transform="translate(-2,195.85714285714283)" style="font-family: Benton Gothic, sans; font-size: 11.5px; font-weight: normal; fill: #000; opacity: 1;">1.0M</text><text text-anchor="end" transform="translate(-2,142.28571428571428)" style="font-family: Benton Gothic, sans; font-size: 11.5px; font-weight: normal; fill: #000; opacity: 1;">1.5M</text><text text-anchor="end" transform="translate(-2,88.71428571428571)" style="font-family: Benton Gothic, sans; font-size: 11.5px; font-weight: normal; fill: #000; opacity: 1;">2.0M</text><text text-anchor="end" transform="translate(-2,35.14285714285713)" style="font-family: Benton Gothic, sans; font-size: 11.5px; font-weight: normal; fill: #000; opacity: 1;">2.5M</text></g><g class="mark-rule role-axis-domain" style="pointer-events: none;"><line transform="translate(0,300)" x2="0" y2="-300" style="fill: none; stroke: #888; stroke-opacity: 0; stroke-width: 1; opacity: 1;"></line></g></g><path class="foreground" d="" style="pointer-events: none; display: none; fill: none;"></path></g></g><g class="mark-group role-scope pathgroup"><g transform="translate(0,0)"><path class="background" d="M0,0h300v300h-300Z" style="fill: none;"></path><g><g class="mark-line role-mark marks"><path d="M0,55.65835714285714L5.664830841856806,76.10989285714285L11.329661683713612,113.95789285714287L16.99449252557042,98.84989285714285L22.659323367427223,71.78410714285714L28.324154209284032,64.44460714285715L33.98898505114084,102.34167857142857L39.653815892997635,72.87139285714287L45.08261211644374,95.42539285714287L50.74744295830055,126.72642857142858L56.41227380015736,117.56935714285716L62.077104642014156,108.37971428571429L67.74193548387096,116.31728571428572L73.40676632572777,140.83360714285715L79.07159716758457,137.22942857142857L84.73642800944138,165.23324999999997L90.4012588512982,197.81796428571428L96.06608969315499,216.46810714285715L101.7309205350118,233.47682142857144L107.3957513768686,236.44639285714285L113.06058221872541,241.27157142857143L118.72541306058221,251.30185714285713L124.39024390243902,264.4895357142857L130.05507474429584,270.1052142857143L135.71990558615263,274.36778571428573L141.38473642800943,278.1580714285714L147.04956726986626,278.6095714285714L152.71439811172306,280.2828214285714L158.37922895357985,280.7140714285714L164.04405979543665,283.49142857142857L169.70889063729345,284.31985714285713L175.37372147915028,285.4261071428571L181.0385523210071,286.7120357142857L186.70338316286387,286.09682142857145L192.3682140047207,287.3247857142857L198.03304484657752,286.92546428571427L203.6978756884343,288.3953571428571L209.36270653029112,289.5932142857143L215.02753737214792,289.8288214285714L220.69236821400472,288.8475L226.3571990558615,288.3238928571429L232.02202989771834,289.96660714285713L237.6868607395751,290.3025L243.35169158143194,289.0517142857143L249.01652242328876,290.6213571428571L254.68135326514553,290.2731428571429L260.34618410700233,289.8123214285714L266.01101494885916,288.6016071428572L271.675845790716,289.58185714285713L277.34067663257275,288.7090714285714L283.0055074744296,289.356L288.6703383162864,290.05082142857145L294.3351691581432,289.3962857142857L300,288.0399642857143" style="fill: none; stroke: #C7733E; stroke-width: 3;"></path></g></g><path class="foreground" d="" style="display: none; fill: none;"></path></g><g transform="translate(0,0)"><path class="background" d="M0,0h300v300h-300Z" style="fill: none;"></path><g><g class="mark-line role-mark marks"><path d="M0,53.417249999999996L5.664830841856806,58.08L11.329661683713612,87.90450000000001L16.99449252557042,70.32653571428573L22.659323367427223,42.56871428571427L28.324154209284032,27.461892857142868L33.98898505114084,68.97192857142859L39.653815892997635,33.70392857142859L45.08261211644374,45.14217857142858L50.74744295830055,72.54664285714286L56.41227380015736,65.64664285714285L62.077104642014156,31.722428571428562L67.74193548387096,17.76267857142857L73.40676632572777,56.28664285714285L79.07159716758457,27.241928571428588L84.73642800944138,35.81689285714285L90.4012588512982,66.65046428571429L96.06608969315499,51.33375L101.7309205350118,30.725250000000017L107.3957513768686,25.78853571428571L113.06058221872541,61.3734642857143L118.72541306058221,27.573964285714293L124.39024390243902,39.174642857142864L130.05507474429584,69.43789285714284L135.71990558615263,56.37739285714285L141.38473642800943,33.51835714285715L147.04956726986626,28.030285714285707L152.71439811172306,67.18714285714286L158.37922895357985,31.03992857142859L164.04405979543665,47.137178571428564L169.70889063729345,82.90114285714284L175.37372147915028,69.46864285714285L181.0385523210071,41.625000000000014L186.70338316286387,34.61957142857144L192.3682140047207,84.45910714285714L198.03304484657752,36.11474999999999L203.6978756884343,44.56167857142857L209.36270653029112,75.95828571428571L215.02753737214792,61.14899999999999L220.69236821400472,33.49307142857142L226.3571990558615,22.446535714285698L232.02202989771834,79.37764285714285L237.6868607395751,37.84275000000002L243.35169158143194,33.79500000000001L249.01652242328876,63.354857142857135L254.68135326514553,51.70917857142857L260.34618410700233,19.69735714285713L266.01101494885916,36.73574999999999L271.675845790716,86.97803571428572L277.34067663257275,47.4855L283.0055074744296,22.053107142857144L288.6703383162864,61.34196428571429L294.3351691581432,58.47760714285716L300,29.25417857142858" style="fill: none; stroke: #C4C1B3; stroke-width: 3;"></path></g></g><path class="foreground" d="" style="display: none; fill: none;"></path></g></g></g><path class="foreground" d="" style="display: none; fill: none;"></path></g></g></g></svg>