<svg class="marks" width="748" height="658" viewBox="0 0 374 329" version="1.1" xmlns="http://www.w3.org/2000/svg" xmlns:xlink="http://www.w3.org/1999/xlink"><rect width="374" height="329" style="fill: #ffffff;"></rect><g transform="translate(50,5)"><g class="mark-group role-frame root"><g transform="translate(0,0)"><path class="background" d="M0.5,0.5h300v300h-300Z" style="fill: none; stroke: #ddd;"></path><g><g class="mark-group role-axis"><g transform="translate(0.5,0.5)"><path class="background" d="M0,0h0v0h0Z" style="pointer-events: none; fill: none;"></path><g><g class="mark-rule role-axis-grid" style="pointer-events: none;"><line transform="translate(0,300)" x2="300" y2="0" style="fill: none; stroke: #dddddd; stroke-width: 0.8; opacity: 1;"></line><line transform="translate(0,246)" x2="300" y2="0" style="fill: none; stroke: #dddddd; stroke-width: 0.8; opacity: 1;"></line><line transform="translate(0,193)" x2="300" y2="0" style="fill: none; stroke: #dddddd; stroke-width: 0.8; opacity: 1;"></line><line transform="translate(0,139)" x2="300" y2="0" style="fill: none; stroke: #dddddd; stroke-width: 0.8; opacity: 1;"></line><line transform="translate(0,86)" x2="300" y2="0" style="fill: none; stroke: #dddddd; stroke-width: 0.8; opacity: 1;"></line><line transform="translate(0,32)" x2="300" y2="0" style="fill: none; stroke: #dddddd; stroke-width: 0.8; opacity: 1;"></line></g></g><path class="foreground" d="" style="pointer-events: none; display: none; fill: none;"></path></g></g><g class="mark-group role-axis"><g transform="translate(0.5,300.5)"><path class="background" d="M0,0h0v0h0Z" style="pointer-events: none; fill: none;"></path><g><g class="mark-rule role-axis-tick" style="pointer-events: none;"><line transform="translate(0,0)" x2="0" y2="3" style="fill: none; stroke: #888; stroke-width: 1; opacity: 1;"></line><line transform="translate(21,0)" x2="0" y2="3" style="fill: none; stroke: #888; stroke-width: 1; opacity: 1;"></line><line transform="translate(43,0)" x2="0" y2="3" style="fill: none; stroke: #888; stroke-width: 1; opacity: 1;"></line><line transform="translate(64,0)" x2="0" y2="3" style="fill: none; stroke: #888; stroke-width: 1; opacity: 1;"></line><line transform="translate(85,0)" x2="0" y2="3" style="fill: none; stroke: #888; stroke-width: 1; opacity: 1;"></line><line transform="translate(107,0)" x2="0" y2="3" style="fill: none; stroke: #888; stroke-width: 1; opacity: 1;"></line><line transform="translate(128,0)" x2="0" y2="3" style="fill: none; stroke: #888; stroke-width: 1; opacity: 1;"></line><line transform="translate(150,0)" x2="0" y2="3" style="fill: none; stroke: #888; stroke-width: 1; opacity: 1;"></line><line transform="translate(171,0)" x2="0" y2="3" style="fill: none; stroke: #888; stroke-width: 1; opacity: 1;"></line><line transform="translate(193,0)" x2="0" y2="3" style="fill: none; stroke: #888; stroke-width: 1; opacity: 1;"></line><line transform="translate(214,0)" x2="0" y2="3" style="fill: none; stroke: #888; stroke-width: 1; opacity: 1;"></line><line transform="translate(236,0)" x2="0" y2="3" style="fill: none; stroke: #888; stroke-width: 1; opacity: 1;"></line><line transform="translate(257,0)" x2="0" y2="3" style="fill: none; stroke: #888; stroke-width: 1; opacity: 1;"></line><line transform="translate(279,0)" x2="0" y2="3" style="fill: none; stroke: #888; stroke-width: 1; opacity: 1;"></line><line transform="translate(300,0)" x2="0" y2="3" style="fill: none; stroke: #888; stroke-width: 1; opacity: 1;"></line></g><g class="mark-text role-axis-label" style="pointer-events: none;"><text text-anchor="middle" transform="translate(0,16)" style="font-family: Benton Gothic, sans; font-size: 11.5px; font-weight: normal; fill: #000; opacity: 1;">Mar 01</text><text text-anchor="middle" transform="translate(21.460506706408346,16)" style="font-family: Benton Gothic, sans; font-size: 11.5px; font-weight: normal; fill: #000; opacity: 0;">Mar 03</text><text text-anchor="middle" transform="translate(42.92101341281669,16)" style="font-family: Benton Gothic, sans; font-size: 11.5px; font-weight: normal; fill: #000; opacity: 1;">Mar 05</text><text text-anchor="middle" transform="translate(64.38152011922504,16)" style="font-family: Benton Gothic, sans; font-size: 11.5px; font-weight: normal; fill: #000; opacity: 0;">Mar 07</text><text text-anchor="middle" transform="translate(85.39493293591653,16)" style="font-family: Benton Gothic, sans; font-size: 11.5px; font-weight: normal; fill: #000; opacity: 1;">Mar 09</text><text text-anchor="middle" transform="translate(106.85543964232488,16)" style="font-family: Benton Gothic, sans; font-size: 11.5px; font-weight: normal; fill: #000; opacity: 0;">Mar 11</text><text text-anchor="middle" transform="translate(128.31594634873323,16)" style="font-family: Benton Gothic, sans; font-size: 11.5px; font-weight: normal; fill: #000; opacity: 1;">Mar 13</text><text text-anchor="middle" transform="translate(149.7764530551416,16)" style="font-family: Benton Gothic, sans; font-size: 11.5px; font-weight: normal; fill: #000; opacity: 0;">Mar 15</text><text text-anchor="middle" transform="translate(171.23695976154994,16)" style="font-family: Benton Gothic, sans; font-size: 11.5px; font-weight: normal; fill: #000; opacity: 1;">Mar 17</text><text text-anchor="middle" transform="translate(192.69746646795826,16)" style="font-family: Benton Gothic, sans; font-size: 11.5px; font-weight: normal; fill: #000; opacity: 0;">Mar 19</text><text text-anchor="middle" transform="translate(214.1579731743666,16)" style="font-family: Benton Gothic, sans; font-size: 11.5px; font-weight: normal; fill: #000; opacity: 1;">Mar 21</text><text text-anchor="middle" transform="translate(235.61847988077497,16)" style="font-family: Benton Gothic, sans; font-size: 11.5px; font-weight: normal; fill: #000; opacity: 0;">Mar 23</text><text text-anchor="middle" transform="translate(257.0789865871833,16)" style="font-family: Benton Gothic, sans; font-size: 11.5px; font-weight: normal; fill: #000; opacity: 1;">Mar 25</text><text text-anchor="middle" transform="translate(278.53949329359165,16)" style="font-family: Benton Gothic, sans; font-size: 11.5px; font-weight: normal; fill: #000; opacity: 0;">Mar 27</text><text text-anchor="middle" transform="translate(300,16)" style="font-family: Benton Gothic, sans; font-size: 11.5px; font-weight: normal; fill: #000; opacity: 1;">Mar 29</text></g><g class="mark-rule role-axis-domain" style="pointer-events: none;"><line transform="translate(0,0)" x2="300" y2="0" style="fill: none; stroke: #888; stroke-width: 1; opacity: 1;"></line></g></g><path class="foreground" d="" style="pointer-events: none; display: none; fill: none;"></path></g></g><g class="mark-group role-axis"><g transform="translate(0.5,0.5)"><path class="background" d="M0,0h0v0h0Z" style="pointer-events: none; fill: none;"></path><g><g class="mark-rule role-axis-tick" style="pointer-events: none;"><line transform="translate(0,300)" x2="-2" y2="0" style="fill: none; stroke: #888; stroke-width: 1; opacity: 1;"></line><line transform="translate(0,246)" x2="-2" y2="0" style="fill: none; stroke: #888; stroke-width: 1; opacity: 1;"></line><line transform="translate(0,193)" x2="-2" y2="0" style="fill: none; stroke: #888; stroke-width: 1; opacity: 1;"></line><line transform="translate(0,139)" x2="-2" y2="0" style="fill: none; stroke: #888; stroke-width: 1; opacity: 1;"></line><line transform="translate(0,86)" x2="-2" y2="0" style="fill: none; stroke: #888; stroke-width: 1; opacity: 1;"></line><line transform="translate(0,32)" x2="-2" y2="0" style="fill: none; stroke: #888; stroke-width: 1; opacity: 1;"></line></g><g class="mark-text role-axis-label" style="pointer-events: none;"><text text-anchor="end" transform="translate(-4,303)" style="font-family: Benton Gothic, sans; font-size: 11.5px; font-weight: normal; fill: #000; opacity: 1;">0.0M</text><text text-anchor="end" transform="translate(-4,249.42857142857142)" style="font-family: Benton Gothic, sans; font-size: 11.5px; font-weight: normal; fill: #000; opacity: 1;">0.5M</text><text text-anchor="end" transform="translate(-4,195.85714285714283)" style="font-family: Benton Gothic, sans; font-size: 11.5px; font-weight: normal; fill: #000; opacity: 1;">1.0M</text><text text-anchor="end" transform="translate(-4,142.28571428571428)" style="font-family: Benton Gothic, sans; font-size: 11.5px; font-weight: normal; fill: #000; opacity: 1;">1.5M</text><text text-anchor="end" transform="translate(-4,88.71428571428571)" style="font-family: Benton Gothic, sans; font-size: 11.5px; font-weight: normal; fill: #000; opacity: 1;">2.0M</text><text text-anchor="end" transform="translate(-4,35.14285714285713)" style="font-family: Benton Gothic, sans; font-size: 11.5px; font-weight: normal; fill: #000; opacity: 1;">2.5M</text></g><g class="mark-rule role-axis-domain" style="pointer-events: none;"><line transform="translate(0,300)" x2="0" y2="-300" style="fill: none; stroke: #888; stroke-width: 1; opacity: 1;"></line></g></g><path class="foreground" d="" style="pointer-events: none; display: none; fill: none;"></path></g></g><g class="mark-group role-scope pathgroup"><g transform="translate(0,0)"><path class="background" d="M0,0h300v300h-300Z" style="fill: none;"></path><g><g class="mark-line role-mark marks"><path d="M0,55.65835714285714L10.730253353204173,76.10989285714285L21.460506706408346,113.95789285714287L32.19076005961252,98.84989285714285L42.92101341281669,71.78410714285714L53.65126676602087,64.44460714285715L64.38152011922504,102.34167857142857L75.11177347242922,72.87139285714287L85.39493293591653,95.42539285714287L96.12518628912072,126.72642857142858L106.85543964232488,117.56935714285716L117.58569299552907,108.37971428571429L128.31594634873323,116.31728571428572L139.0461997019374,140.83360714285715L149.7764530551416,137.22942857142857L160.50670640834576,165.23324999999997L171.23695976154994,197.81796428571428L181.9672131147541,216.46810714285715L192.69746646795826,233.47682142857144L203.42771982116244,236.44639285714285L214.1579731743666,241.27157142857143L224.8882265275708,251.30185714285713L235.61847988077497,264.4895357142857L246.34873323397915,270.1052142857143L257.0789865871833,274.36778571428573L267.80923994038744,278.1580714285714L278.53949329359165,278.6095714285714L289.26974664679585,280.2828214285714L300,280.7140714285714" style="fill: none; stroke: #82C6DF; stroke-width: 4;"></path></g></g><path class="foreground" d="" style="display: none; fill: none;"></path></g><g transform="translate(0,0)"><path class="background" d="M0,0h300v300h-300Z" style="fill: none;"></path><g><g class="mark-line role-mark marks"><path d="M0,53.417249999999996L10.730253353204173,58.08L21.460506706408346,87.90450000000001L32.19076005961252,70.32653571428573L42.92101341281669,42.56871428571427L53.65126676602087,27.461892857142868L64.38152011922504,68.97192857142859L75.11177347242922,33.70392857142859L85.39493293591653,45.14217857142858L96.12518628912072,72.54664285714286L106.85543964232488,65.64664285714285L117.58569299552907,31.722428571428562L128.31594634873323,17.76267857142857L139.0461997019374,56.28664285714285L149.7764530551416,27.241928571428588L160.50670640834576,35.81689285714285L171.23695976154994,66.65046428571429L181.9672131147541,51.33375L192.69746646795826,30.725250000000017L203.42771982116244,25.78853571428571L214.1579731743666,61.3734642857143L224.8882265275708,27.573964285714293L235.61847988077497,39.174642857142864L246.34873323397915,69.43789285714284L257.0789865871833,56.37739285714285L267.80923994038744,33.51835714285715L278.53949329359165,28.030285714285707L289.26974664679585,67.18714285714286L300,31.03992857142859" style="fill: none; stroke: #006D8F; stroke-width: 4;"></path></g></g><path class="foreground" d="" style="display: none; fill: none;"></path></g></g></g><path class="foreground" d="" style="display: none; fill: none;"></path></g></g></g></svg>