<svg class="marks" width="762" height="558" viewBox="0 0 381 279" version="1.1" xmlns="http://www.w3.org/2000/svg" xmlns:xlink="http://www.w3.org/1999/xlink"><rect width="381" height="279" style="fill: #ffffff;"></rect><g transform="translate(53,5)"><g class="mark-group role-frame root"><g transform="translate(0,0)"><path class="background" d="M0.5,0.5h320v250h-320Z" style="fill: none; stroke: #ddd; stroke-opacity: 0;"></path><g><g class="mark-group role-axis"><g transform="translate(0.5,0.5)"><path class="background" d="M0,0h0v0h0Z" style="pointer-events: none; fill: none;"></path><g><g class="mark-rule role-axis-grid" style="pointer-events: none;"><line transform="translate(0,250)" x2="320" y2="0" style="fill: none; stroke: #dddddd; stroke-width: 0.6; opacity: 1;"></line><line transform="translate(0,205)" x2="320" y2="0" style="fill: none; stroke: #dddddd; stroke-width: 0.6; opacity: 1;"></line><line transform="translate(0,161)" x2="320" y2="0" style="fill: none; stroke: #dddddd; stroke-width: 0.6; opacity: 1;"></line><line transform="translate(0,116)" x2="320" y2="0" style="fill: none; stroke: #dddddd; stroke-width: 0.6; opacity: 1;"></line><line transform="translate(0,71)" x2="320" y2="0" style="fill: none; stroke: #dddddd; stroke-width: 0.6; opacity: 1;"></line><line transform="translate(0,27)" x2="320" y2="0" style="fill: none; stroke: #dddddd; stroke-width: 0.6; opacity: 1;"></line></g></g><path class="foreground" d="" style="pointer-events: none; display: none; fill: none;"></path></g></g><g class="mark-group role-axis"><g transform="translate(0.5,250.5)"><path class="background" d="M0,0h0v0h0Z" style="pointer-events: none; fill: none;"></path><g><g class="mark-rule role-axis-tick" style="pointer-events: none;"><line transform="translate(0,0)" x2="0" y2="3" style="fill: none; stroke: #888; stroke-width: 1; opacity: 1;"></line><line transform="translate(194,0)" x2="0" y2="3" style="fill: none; stroke: #888; stroke-width: 1; opacity: 1;"></line></g><g class="mark-text role-axis-label" style="pointer-events: none;"><text text-anchor="middle" transform="translate(0,16)" style="font-family: Benton Gothic, sans; font-size: 11.5px; font-weight: normal; fill: #000; opacity: 1;">Mar. 1</text><text text-anchor="middle" transform="translate(194.40719542109565,16)" style="font-family: Benton Gothic, sans; font-size: 11.5px; font-weight: normal; fill: #000; opacity: 1;">Apr. 1</text></g><g class="mark-rule role-axis-domain" style="pointer-events: none;"><line transform="translate(0,0)" x2="320" y2="0" style="fill: none; stroke: #888; stroke-width: 1; opacity: 1;"></line></g></g><path class="foreground" d="" style="pointer-events: none; display: none; fill: none;"></path></g></g><g class="mark-group role-axis"><g transform="translate(-2.5,0.5)"><path class="background" d="M0,0h0v0h0Z" style="pointer-events: none; fill: none;"></path><g><g class="mark-rule role-axis-tick" style="pointer-events: none;"><line transform="translate(0,250)" x2="0" y2="0" style="fill: none; stroke: #888; stroke-width: 1; opacity: 1;"></line><line transform="translate(0,205)" x2="0" y2="0" style="fill: none; stroke: #888; stroke-width: 1; opacity: 1;"></line><line transform="translate(0,161)" x2="0" y2="0" style="fill: none; stroke: #888; stroke-width: 1; opacity: 1;"></line><line transform="translate(0,116)" x2="0" y2="0" style="fill: none; stroke: #888; stroke-width: 1; opacity: 1;"></line><line transform="translate(0,71)" x2="0" y2="0" style="fill: none; stroke: #888; stroke-width: 1; opacity: 1;"></line><line transform="translate(0,27)" x2="0" y2="0" style="fill: none; stroke: #888; stroke-width: 1; opacity: 1;"></line></g><g class="mark-text role-axis-label" style="pointer-events: none;"><text text-anchor="end" transform="translate(-2,253)" style="font-family: Benton Gothic, sans; font-size: 11.5px; font-weight: normal; fill: #000; opacity: 1;">0.0M</text><text text-anchor="end" transform="translate(-2,208.35714285714286)" style="font-family: Benton Gothic, sans; font-size: 11.5px; font-weight: normal; fill: #000; opacity: 1;">0.5M</text><text text-anchor="end" transform="translate(-2,163.7142857142857)" style="font-family: Benton Gothic, sans; font-size: 11.5px; font-weight: normal; fill: #000; opacity: 1;">1.0M</text><text text-anchor="end" transform="translate(-2,119.07142857142857)" style="font-family: Benton Gothic, sans; font-size: 11.5px; font-weight: normal; fill: #000; opacity: 1;">1.5M</text><text text-anchor="end" transform="translate(-2,74.42857142857143)" style="font-family: Benton Gothic, sans; font-size: 11.5px; font-weight: normal; fill: #000; opacity: 1;">2.0M</text><text text-anchor="end" transform="translate(-2,29.785714285714274)" style="font-family: Benton Gothic, sans; font-size: 11.5px; font-weight: normal; fill: #000; opacity: 1;">2.5M</text></g><g class="mark-rule role-axis-domain" style="pointer-events: none;"><line transform="translate(0,250)" x2="0" y2="-250" style="fill: none; stroke: #888; stroke-opacity: 0; stroke-width: 1; opacity: 1;"></line></g></g><path class="foreground" d="" style="pointer-events: none; display: none; fill: none;"></path></g></g><g class="mark-group role-scope pathgroup"><g transform="translate(0,0)"><path class="background" d="M0,0h320v250h-320Z" style="fill: none;"></path><g><g class="mark-line role-mark marks"><path d="M0,46.38196428571428L6.279640228945217,63.424910714285716L12.559280457890434,94.96491071428572L18.83892068683565,82.3749107142857L25.11856091578087,59.82008928571428L31.398201144726087,53.70383928571429L37.6778413736713,85.28473214285714L43.95748160261651,60.72616071428571L49.97547015535568,79.52116071428573L56.2551103843009,105.60535714285716L62.53475061324612,97.97446428571429L68.81439084219133,90.31642857142857L75.09403107113654,96.93107142857144L81.37367130008175,117.3613392857143L87.65331152902698,114.35785714285716L93.9329517579722,137.69437499999998L100.2125919869174,164.84830357142857L106.49223221586263,180.39008928571428L112.77187244480785,194.56401785714286L119.05151267375305,197.03866071428573L125.33115290269828,201.05964285714288L131.6107931316435,209.41821428571427L137.8904333605887,220.40794642857142L144.17007358953393,225.0876785714286L150.44971381847915,228.63982142857142L156.72935404742435,231.79839285714286L163.0089942763696,232.17464285714286L169.2886345053148,233.56901785714285L175.56827473426,233.92839285714285L181.84791496320526,236.24285714285713L188.12755519215045,236.93321428571429L194.40719542109565,237.85508928571429L200.6868356500409,238.92669642857143L206.9664758789861,238.41401785714285L213.2461161079313,239.43732142857144L219.52575633687655,239.10455357142857L225.80539656582175,240.32946428571427L232.08503679476695,241.32767857142855L238.3646770237122,241.52401785714287L244.6443172526574,240.70625L250.9239574816026,240.26991071428571L257.20359771054785,241.63883928571428L263.48323793949305,241.91875L269.76287816843825,240.87642857142856L276.0425183973835,242.18446428571428L282.3221586263287,241.89428571428573L288.6017988552739,241.51026785714285L294.88143908421915,240.5013392857143L301.16107931316435,241.31821428571428L307.44071954210955,240.59089285714285L313.7203597710548,241.13000000000002L320,241.70901785714287" style="fill: none; stroke: #f29d49; stroke-width: 3;"></path></g></g><path class="foreground" d="" style="display: none; fill: none;"></path></g><g transform="translate(0,0)"><path class="background" d="M0,0h320v250h-320Z" style="fill: none;"></path><g><g class="mark-line role-mark marks"><path d="M0,44.514374999999994L6.279640228945217,48.4L12.559280457890434,73.25375000000001L18.83892068683565,58.60544642857143L25.11856091578087,35.47392857142856L31.398201144726087,22.884910714285724L37.6778413736713,57.476607142857155L43.95748160261651,28.086607142857154L49.97547015535568,37.618482142857154L56.2551103843009,60.455535714285716L62.53475061324612,54.705535714285716L68.81439084219133,26.435357142857136L75.09403107113654,14.802232142857141L81.37367130008175,46.90553571428571L87.65331152902698,22.701607142857156L93.9329517579722,29.847410714285704L100.2125919869174,55.54205357142858L106.49223221586263,42.778125L112.77187244480785,25.60437500000001L119.05151267375305,21.490446428571424L125.33115290269828,51.14455357142858L131.6107931316435,22.978303571428576L137.8904333605887,32.645535714285714L144.17007358953393,57.864910714285706L150.44971381847915,46.98116071428571L156.72935404742435,27.93196428571429L163.0089942763696,23.358571428571423L169.2886345053148,55.989285714285714L175.56827473426,25.866607142857156L181.84791496320526,39.280982142857134L188.12755519215045,69.08428571428571L194.40719542109565,57.890535714285704L200.6868356500409,34.68750000000001L206.9664758789861,28.849642857142864L213.2461161079313,70.38258928571427L219.52575633687655,30.095624999999988L225.80539656582175,37.134732142857146L232.08503679476695,63.29857142857143L238.3646770237122,50.95749999999999L244.6443172526574,27.910892857142848L250.9239574816026,18.705446428571413L257.20359771054785,66.14803571428571L263.48323793949305,31.53562500000001L269.76287816843825,28.16250000000001L276.0425183973835,52.79571428571428L282.3221586263287,43.09098214285714L288.6017988552739,16.414464285714274L294.88143908421915,30.61312499999999L301.16107931316435,72.48169642857144L307.44071954210955,39.57125L313.7203597710548,18.377589285714286L320,51.11830357142858" style="fill: none; stroke: #b65a27; stroke-width: 3;"></path></g></g><path class="foreground" d="" style="display: none; fill: none;"></path></g></g></g><path class="foreground" d="" style="display: none; fill: none;"></path></g></g></g></svg>