<svg class="marks" width="1354" height="758" viewBox="0 0 677 379" version="1.1" xmlns="http://www.w3.org/2000/svg" xmlns:xlink="http://www.w3.org/1999/xlink"><rect width="677" height="379" style="fill: #ffffff;"></rect><g transform="translate(53,5)"><g class="mark-group role-frame root"><g transform="translate(0,0)"><path class="background" d="M0.5,0.5h600v350h-600Z" style="fill: none; stroke: #ddd; stroke-opacity: 0;"></path><g><g class="mark-group role-axis"><g transform="translate(0.5,0.5)"><path class="background" d="M0,0h0v0h0Z" style="pointer-events: none; fill: none;"></path><g><g class="mark-rule role-axis-grid" style="pointer-events: none;"><line transform="translate(0,350)" x2="600" y2="0" style="fill: none; stroke: #dddddd; stroke-width: 0.6; opacity: 1;"></line><line transform="translate(0,288)" x2="600" y2="0" style="fill: none; stroke: #dddddd; stroke-width: 0.6; opacity: 1;"></line><line transform="translate(0,225)" x2="600" y2="0" style="fill: none; stroke: #dddddd; stroke-width: 0.6; opacity: 1;"></line><line transform="translate(0,163)" x2="600" y2="0" style="fill: none; stroke: #dddddd; stroke-width: 0.6; opacity: 1;"></line><line transform="translate(0,100)" x2="600" y2="0" style="fill: none; stroke: #dddddd; stroke-width: 0.6; opacity: 1;"></line><line transform="translate(0,37)" x2="600" y2="0" style="fill: none; stroke: #dddddd; stroke-width: 0.6; opacity: 1;"></line></g></g><path class="foreground" d="" style="pointer-events: none; display: none; fill: none;"></path></g></g><g class="mark-group role-axis"><g transform="translate(0.5,350.5)"><path class="background" d="M0,0h0v0h0Z" style="pointer-events: none; fill: none;"></path><g><g class="mark-rule role-axis-tick" style="pointer-events: none;"><line transform="translate(0,0)" x2="0" y2="3" style="fill: none; stroke: #888; stroke-width: 1; opacity: 1;"></line><line transform="translate(86,0)" x2="0" y2="3" style="fill: none; stroke: #888; stroke-width: 1; opacity: 1;"></line><line transform="translate(171,0)" x2="0" y2="3" style="fill: none; stroke: #888; stroke-width: 1; opacity: 1;"></line><line transform="translate(257,0)" x2="0" y2="3" style="fill: none; stroke: #888; stroke-width: 1; opacity: 1;"></line><line transform="translate(343,0)" x2="0" y2="3" style="fill: none; stroke: #888; stroke-width: 1; opacity: 1;"></line><line transform="translate(428,0)" x2="0" y2="3" style="fill: none; stroke: #888; stroke-width: 1; opacity: 1;"></line><line transform="translate(514,0)" x2="0" y2="3" style="fill: none; stroke: #888; stroke-width: 1; opacity: 1;"></line><line transform="translate(600,0)" x2="0" y2="3" style="fill: none; stroke: #888; stroke-width: 1; opacity: 1;"></line></g><g class="mark-text role-axis-label" style="pointer-events: none;"><text text-anchor="middle" transform="translate(0,16)" style="font-family: Benton Gothic, sans; font-size: 11.5px; font-weight: normal; fill: #000; opacity: 1;">Mar. 1</text><text text-anchor="middle" transform="translate(85.7872340425532,16)" style="font-family: Benton Gothic, sans; font-size: 11.5px; font-weight: normal; fill: #000; opacity: 1;">Mar. 8</text><text text-anchor="middle" transform="translate(171.06382978723406,16)" style="font-family: Benton Gothic, sans; font-size: 11.5px; font-weight: normal; fill: #000; opacity: 1;">Mar. 15</text><text text-anchor="middle" transform="translate(256.8510638297872,16)" style="font-family: Benton Gothic, sans; font-size: 11.5px; font-weight: normal; fill: #000; opacity: 1;">Mar. 22</text><text text-anchor="middle" transform="translate(342.6382978723404,16)" style="font-family: Benton Gothic, sans; font-size: 11.5px; font-weight: normal; fill: #000; opacity: 1;">Mar. 29</text><text text-anchor="middle" transform="translate(428.4255319148936,16)" style="font-family: Benton Gothic, sans; font-size: 11.5px; font-weight: normal; fill: #000; opacity: 1;">Apr. 5</text><text text-anchor="middle" transform="translate(514.2127659574468,16)" style="font-family: Benton Gothic, sans; font-size: 11.5px; font-weight: normal; fill: #000; opacity: 1;">Apr. 12</text><text text-anchor="middle" transform="translate(600,16)" style="font-family: Benton Gothic, sans; font-size: 11.5px; font-weight: normal; fill: #000; opacity: 1;">Apr. 19</text></g><g class="mark-rule role-axis-domain" style="pointer-events: none;"><line transform="translate(0,0)" x2="600" y2="0" style="fill: none; stroke: #888; stroke-width: 1; opacity: 1;"></line></g></g><path class="foreground" d="" style="pointer-events: none; display: none; fill: none;"></path></g></g><g class="mark-group role-axis"><g transform="translate(-2.5,0.5)"><path class="background" d="M0,0h0v0h0Z" style="pointer-events: none; fill: none;"></path><g><g class="mark-rule role-axis-tick" style="pointer-events: none;"><line transform="translate(0,350)" x2="0" y2="0" style="fill: none; stroke: #888; stroke-width: 1; opacity: 1;"></line><line transform="translate(0,288)" x2="0" y2="0" style="fill: none; stroke: #888; stroke-width: 1; opacity: 1;"></line><line transform="translate(0,225)" x2="0" y2="0" style="fill: none; stroke: #888; stroke-width: 1; opacity: 1;"></line><line transform="translate(0,163)" x2="0" y2="0" style="fill: none; stroke: #888; stroke-width: 1; opacity: 1;"></line><line transform="translate(0,100)" x2="0" y2="0" style="fill: none; stroke: #888; stroke-width: 1; opacity: 1;"></line><line transform="translate(0,37)" x2="0" y2="0" style="fill: none; stroke: #888; stroke-width: 1; opacity: 1;"></line></g><g class="mark-text role-axis-label" style="pointer-events: none;"><text text-anchor="end" transform="translate(-2,353)" style="font-family: Benton Gothic, sans; font-size: 11.5px; font-weight: normal; fill: #000; opacity: 1;">0.0M</text><text text-anchor="end" transform="translate(-2,290.5)" style="font-family: Benton Gothic, sans; font-size: 11.5px; font-weight: normal; fill: #000; opacity: 1;">0.5M</text><text text-anchor="end" transform="translate(-2,227.99999999999997)" style="font-family: Benton Gothic, sans; font-size: 11.5px; font-weight: normal; fill: #000; opacity: 1;">1.0M</text><text text-anchor="end" transform="translate(-2,165.5)" style="font-family: Benton Gothic, sans; font-size: 11.5px; font-weight: normal; fill: #000; opacity: 1;">1.5M</text><text text-anchor="end" transform="translate(-2,103)" style="font-family: Benton Gothic, sans; font-size: 11.5px; font-weight: normal; fill: #000; opacity: 1;">2.0M</text><text text-anchor="end" transform="translate(-2,40.499999999999986)" style="font-family: Benton Gothic, sans; font-size: 11.5px; font-weight: normal; fill: #000; opacity: 1;">2.5M</text></g><g class="mark-rule role-axis-domain" style="pointer-events: none;"><line transform="translate(0,350)" x2="0" y2="-350" style="fill: none; stroke: #888; stroke-opacity: 0; stroke-width: 1; opacity: 1;"></line></g></g><path class="foreground" d="" style="pointer-events: none; display: none; fill: none;"></path></g></g><g class="mark-group role-scope pathgroup"><g transform="translate(0,0)"><path class="background" d="M0,0h600v350h-600Z" style="fill: none;"></path><g><g class="mark-line role-mark marks"><path d="M0,64.93475L12.25531914893617,88.794875L24.51063829787234,132.95087500000002L36.76595744680851,115.32487499999999L49.02127659574468,83.74812499999999L61.27659574468085,75.18537500000001L73.53191489361701,119.39862500000001L85.7872340425532,85.016625L97.53191489361703,111.32962500000001L109.78723404255318,147.84750000000003L122.04255319148936,137.16425L134.29787234042553,126.44300000000001L146.5531914893617,135.70350000000002L158.80851063829786,164.30587500000001L171.06382978723406,160.101L183.31914893617022,192.77212499999996L195.5744680851064,230.787625L207.82978723404253,252.54612500000002L220.08510638297872,272.389625L232.3404255319149,275.854125L244.59574468085106,281.4835L256.8510638297872,293.1855L269.1063829787234,308.571125L281.36170212765956,315.12275L293.6170212765957,320.09575L305.87234042553195,324.51775L318.1276595744681,325.04449999999997L330.3829787234043,326.996625L342.6382978723404,327.49975L354.89361702127655,330.74L367.1489361702127,331.7065L379.40425531914894,332.997125L391.6595744680851,334.497375L403.9148936170213,333.779625L416.17021276595744,335.21225000000004L428.4255319148936,334.746375L440.6808510638298,336.46125L452.93617021276594,337.85875L465.19148936170217,338.133625L477.44680851063833,336.98875000000004L489.7021276595745,336.377875L501.95744680851067,338.294375L514.2127659574468,338.68625L526.468085106383,337.22700000000003L538.7234042553191,339.05825L550.9787234042553,338.65200000000004L563.2340425531916,338.114375L575.4893617021277,336.70187500000003L587.7446808510639,337.8455L600,336.82725" style="fill: none; stroke: #c2dfe4; stroke-width: 3;"></path></g></g><path class="foreground" d="" style="display: none; fill: none;"></path></g><g transform="translate(0,0)"><path class="background" d="M0,0h600v350h-600Z" style="fill: none;"></path><g><g class="mark-line role-mark marks"><path d="M0,62.32012499999999L12.25531914893617,67.75999999999999L24.51063829787234,102.55525000000002L36.76595744680851,82.04762500000001L49.02127659574468,49.663499999999985L61.27659574468085,32.03887500000001L73.53191489361701,80.46725000000002L85.7872340425532,39.32125000000002L97.53191489361703,52.665875000000014L109.78723404255318,84.63775000000001L122.04255319148936,76.58775L134.29787234042553,37.00949999999999L146.5531914893617,20.723124999999996L158.80851063829786,65.66775L171.06382978723406,31.78225000000002L183.31914893617022,41.786374999999985L195.5744680851064,77.75887500000002L207.82978723404253,59.889375L220.08510638297872,35.846125000000015L232.3404255319149,30.086624999999994L244.59574468085106,71.60237500000001L256.8510638297872,32.16962500000001L269.1063829787234,45.70375000000001L281.36170212765956,81.01087499999998L293.6170212765957,65.773625L305.87234042553195,39.10475L318.1276595744681,32.70199999999999L330.3829787234043,78.385L342.6382978723404,36.213250000000016L354.89361702127655,54.993374999999986L367.1489361702127,96.71799999999999L379.40425531914894,81.04674999999999L391.6595744680851,48.562500000000014L403.9148936170213,40.38950000000001L416.17021276595744,98.535625L428.4255319148936,42.13387499999998L440.6808510638298,51.988625000000006L452.93617021276594,88.618L465.19148936170217,71.34049999999999L477.44680851063833,39.07524999999999L489.7021276595745,26.187624999999983L501.95744680851067,92.60725L514.2127659574468,44.149875000000016L526.468085106383,39.42750000000001L538.7234042553191,73.91399999999999L550.9787234042553,60.327374999999996L563.2340425531916,22.980249999999984L575.4893617021277,42.85837499999999L587.7446808510639,101.47437500000002L600,55.399750000000004" style="fill: none; stroke: #065360; stroke-width: 3;"></path></g></g><path class="foreground" d="" style="display: none; fill: none;"></path></g></g></g><path class="foreground" d="" style="display: none; fill: none;"></path></g></g></g></svg>