<svg class="marks" width="718" height="658" viewBox="0 0 359 329" version="1.1" xmlns="http://www.w3.org/2000/svg" xmlns:xlink="http://www.w3.org/1999/xlink"><rect width="359" height="329" style="fill: #ffffff;"></rect><g transform="translate(50,5)"><g class="mark-group role-frame root"><g transform="translate(0,0)"><path class="background" d="M0.5,0.5h300v300h-300Z" style="fill: none; stroke: #ddd;"></path><g><g class="mark-group role-axis"><g transform="translate(0.5,0.5)"><path class="background" d="M0,0h0v0h0Z" style="pointer-events: none; fill: none;"></path><g><g class="mark-rule role-axis-grid" style="pointer-events: none;"><line transform="translate(0,300)" x2="300" y2="0" style="fill: none; stroke: #dddddd; stroke-width: 0.8; opacity: 1;"></line><line transform="translate(0,242)" x2="300" y2="0" style="fill: none; stroke: #dddddd; stroke-width: 0.8; opacity: 1;"></line><line transform="translate(0,185)" x2="300" y2="0" style="fill: none; stroke: #dddddd; stroke-width: 0.8; opacity: 1;"></line><line transform="translate(0,127)" x2="300" y2="0" style="fill: none; stroke: #dddddd; stroke-width: 0.8; opacity: 1;"></line><line transform="translate(0,69)" x2="300" y2="0" style="fill: none; stroke: #dddddd; stroke-width: 0.8; opacity: 1;"></line><line transform="translate(0,12)" x2="300" y2="0" style="fill: none; stroke: #dddddd; stroke-width: 0.8; opacity: 1;"></line></g></g><path class="foreground" d="" style="pointer-events: none; display: none; fill: none;"></path></g></g><g class="mark-group role-axis"><g transform="translate(0.5,300.5)"><path class="background" d="M0,0h0v0h0Z" style="pointer-events: none; fill: none;"></path><g><g class="mark-rule role-axis-tick" style="pointer-events: none;"><line transform="translate(13,0)" x2="0" y2="3" style="fill: none; stroke: #888; stroke-width: 1; opacity: 1;"></line><line transform="translate(38,0)" x2="0" y2="3" style="fill: none; stroke: #888; stroke-width: 1; opacity: 1;"></line><line transform="translate(62,0)" x2="0" y2="3" style="fill: none; stroke: #888; stroke-width: 1; opacity: 1;"></line><line transform="translate(87,0)" x2="0" y2="3" style="fill: none; stroke: #888; stroke-width: 1; opacity: 1;"></line><line transform="translate(112,0)" x2="0" y2="3" style="fill: none; stroke: #888; stroke-width: 1; opacity: 1;"></line><line transform="translate(137,0)" x2="0" y2="3" style="fill: none; stroke: #888; stroke-width: 1; opacity: 1;"></line><line transform="translate(162,0)" x2="0" y2="3" style="fill: none; stroke: #888; stroke-width: 1; opacity: 1;"></line><line transform="translate(187,0)" x2="0" y2="3" style="fill: none; stroke: #888; stroke-width: 1; opacity: 1;"></line><line transform="translate(212,0)" x2="0" y2="3" style="fill: none; stroke: #888; stroke-width: 1; opacity: 1;"></line><line transform="translate(237,0)" x2="0" y2="3" style="fill: none; stroke: #888; stroke-width: 1; opacity: 1;"></line><line transform="translate(262,0)" x2="0" y2="3" style="fill: none; stroke: #888; stroke-width: 1; opacity: 1;"></line><line transform="translate(287,0)" x2="0" y2="3" style="fill: none; stroke: #888; stroke-width: 1; opacity: 1;"></line></g><g class="mark-text role-axis-label" style="pointer-events: none;"><text text-anchor="middle" transform="translate(12.521739130434783,16)" style="font-family: Benton Gothic, sans; font-size: 11.5px; font-weight: normal; fill: #000; opacity: 1;">Mar 05</text><text text-anchor="middle" transform="translate(37.56521739130435,16)" style="font-family: Benton Gothic, sans; font-size: 11.5px; font-weight: normal; fill: #000; opacity: 0;">Mar 07</text><text text-anchor="middle" transform="translate(62.086956521739125,16)" style="font-family: Benton Gothic, sans; font-size: 11.5px; font-weight: normal; fill: #000; opacity: 1;">Mar 09</text><text text-anchor="middle" transform="translate(87.1304347826087,16)" style="font-family: Benton Gothic, sans; font-size: 11.5px; font-weight: normal; fill: #000; opacity: 0;">Mar 11</text><text text-anchor="middle" transform="translate(112.17391304347827,16)" style="font-family: Benton Gothic, sans; font-size: 11.5px; font-weight: normal; fill: #000; opacity: 1;">Mar 13</text><text text-anchor="middle" transform="translate(137.21739130434784,16)" style="font-family: Benton Gothic, sans; font-size: 11.5px; font-weight: normal; fill: #000; opacity: 0;">Mar 15</text><text text-anchor="middle" transform="translate(162.26086956521738,16)" style="font-family: Benton Gothic, sans; font-size: 11.5px; font-weight: normal; fill: #000; opacity: 1;">Mar 17</text><text text-anchor="middle" transform="translate(187.30434782608694,16)" style="font-family: Benton Gothic, sans; font-size: 11.5px; font-weight: normal; fill: #000; opacity: 0;">Mar 19</text><text text-anchor="middle" transform="translate(212.3478260869565,16)" style="font-family: Benton Gothic, sans; font-size: 11.5px; font-weight: normal; fill: #000; opacity: 1;">Mar 21</text><text text-anchor="middle" transform="translate(237.3913043478261,16)" style="font-family: Benton Gothic, sans; font-size: 11.5px; font-weight: normal; fill: #000; opacity: 0;">Mar 23</text><text text-anchor="middle" transform="translate(262.4347826086956,16)" style="font-family: Benton Gothic, sans; font-size: 11.5px; font-weight: normal; fill: #000; opacity: 1;">Mar 25</text><text text-anchor="middle" transform="translate(287.4782608695652,16)" style="font-family: Benton Gothic, sans; font-size: 11.5px; font-weight: normal; fill: #000; opacity: 0;">Mar 27</text></g><g class="mark-rule role-axis-domain" style="pointer-events: none;"><line transform="translate(0,0)" x2="300" y2="0" style="fill: none; stroke: #888; stroke-width: 1; opacity: 1;"></line></g></g><path class="foreground" d="" style="pointer-events: none; display: none; fill: none;"></path></g></g><g class="mark-group role-axis"><g transform="translate(0.5,0.5)"><path class="background" d="M0,0h0v0h0Z" style="pointer-events: none; fill: none;"></path><g><g class="mark-rule role-axis-tick" style="pointer-events: none;"><line transform="translate(0,300)" x2="-2" y2="0" style="fill: none; stroke: #888; stroke-width: 1; opacity: 1;"></line><line transform="translate(0,242)" x2="-2" y2="0" style="fill: none; stroke: #888; stroke-width: 1; opacity: 1;"></line><line transform="translate(0,185)" x2="-2" y2="0" style="fill: none; stroke: #888; stroke-width: 1; opacity: 1;"></line><line transform="translate(0,127)" x2="-2" y2="0" style="fill: none; stroke: #888; stroke-width: 1; opacity: 1;"></line><line transform="translate(0,69)" x2="-2" y2="0" style="fill: none; stroke: #888; stroke-width: 1; opacity: 1;"></line><line transform="translate(0,12)" x2="-2" y2="0" style="fill: none; stroke: #888; stroke-width: 1; opacity: 1;"></line></g><g class="mark-text role-axis-label" style="pointer-events: none;"><text text-anchor="end" transform="translate(-4,303)" style="font-family: Benton Gothic, sans; font-size: 11.5px; font-weight: normal; fill: #000; opacity: 1;">0.0M</text><text text-anchor="end" transform="translate(-4,245.30769230769232)" style="font-family: Benton Gothic, sans; font-size: 11.5px; font-weight: normal; fill: #000; opacity: 1;">0.5M</text><text text-anchor="end" transform="translate(-4,187.6153846153846)" style="font-family: Benton Gothic, sans; font-size: 11.5px; font-weight: normal; fill: #000; opacity: 1;">1.0M</text><text text-anchor="end" transform="translate(-4,129.92307692307693)" style="font-family: Benton Gothic, sans; font-size: 11.5px; font-weight: normal; fill: #000; opacity: 1;">1.5M</text><text text-anchor="end" transform="translate(-4,72.23076923076921)" style="font-family: Benton Gothic, sans; font-size: 11.5px; font-weight: normal; fill: #000; opacity: 1;">2.0M</text><text text-anchor="end" transform="translate(-4,14.538461538461531)" style="font-family: Benton Gothic, sans; font-size: 11.5px; font-weight: normal; fill: #000; opacity: 1;">2.5M</text></g><g class="mark-rule role-axis-domain" style="pointer-events: none;"><line transform="translate(0,300)" x2="0" y2="-300" style="fill: none; stroke: #888; stroke-width: 1; opacity: 1;"></line></g></g><path class="foreground" d="" style="pointer-events: none; display: none; fill: none;"></path></g></g><g class="mark-group role-scope pathgroup"><g transform="translate(0,0)"><path class="background" d="M0,0h300v300h-300Z" style="fill: none;"></path><g><g class="mark-line role-mark marks"><path d="M0,82.45973076923076L12.521739130434783,53.85634615384616L25.043478260869566,45.725076923076934L37.56521739130435,86.50223076923076L50.08695652173913,55.22030769230768L62.086956521739125,79.39373076923076L74.6086956521739,113.09273076923077L87.1304347826087,103.15984615384615L99.65217391304348,93.37026923076922L112.17391304347827,101.9353846153846L124.69565217391305,128.43L137.21739130434784,124.67976923076924L149.73913043478262,154.75707692307694L162.26086956521738,186.55084615384615L174.78260869565216,209.4103846153846L187.30434782608694,228.04523076923076L199.82608695652172,231.55765384615384L212.3478260869565,236.754L224.8695652173913,247.55584615384615L237.3913043478261,261.75796153846153L249.91304347826087,267.8056153846154L262.4347826086956,272.3960769230769L274.95652173913044,276.47792307692305L287.4782608695652,276.96415384615386L300,278.7661153846154" style="fill: none; stroke: #82C6DF; stroke-width: 4;"></path></g></g><path class="foreground" d="" style="display: none; fill: none;"></path></g><g transform="translate(0,0)"><path class="background" d="M0,0h300v300h-300Z" style="fill: none;"></path><g><g class="mark-line role-mark marks"><path d="M0,59.989269230769224L12.521739130434783,30.7635L25.043478260869566,14.824153846153843L37.56521739130435,58.796884615384606L50.08695652173913,21.334038461538462L62.086956521739125,33.876230769230766L74.6086956521739,63.03380769230771L87.1304347826087,55.6395L99.65217391304348,19.794576923076924L112.17391304347827,4.7069999999999945L124.69565217391305,45.22569230769232L137.21739130434784,14.356038461538445L149.73913043478262,23.82865384615385L162.26086956521738,55.33626923076922L174.78260869565216,40.46780769230769L187.30434782608694,18.47169230769231L199.82608695652172,4.695346153846169L212.3478260869565,43.017576923076916L224.8695652173913,6.618115384615386L237.3913043478261,19.11115384615385L249.91304347826087,51.702346153846165L262.4347826086956,37.6371923076923L274.95652173913044,13.01976923076924L287.4782608695652,7.109538461538467L300,49.278461538461535" style="fill: none; stroke: #006D8F; stroke-width: 4;"></path></g></g><path class="foreground" d="" style="display: none; fill: none;"></path></g></g></g><path class="foreground" d="" style="display: none; fill: none;"></path></g></g></g></svg>