<svg class="marks" width="718" height="658" viewBox="0 0 359 329" version="1.1" xmlns="http://www.w3.org/2000/svg" xmlns:xlink="http://www.w3.org/1999/xlink"><rect width="359" height="329" style="fill: #ffffff;"></rect><g transform="translate(50,5)"><g class="mark-group role-frame root"><g transform="translate(0,0)"><path class="background" d="M0.5,0.5h300v300h-300Z" style="fill: none; stroke: #ddd; stroke-opacity: 0;"></path><g><g class="mark-group role-axis"><g transform="translate(0.5,0.5)"><path class="background" d="M0,0h0v0h0Z" style="pointer-events: none; fill: none;"></path><g><g class="mark-rule role-axis-grid" style="pointer-events: none;"><line transform="translate(0,300)" x2="300" y2="0" style="fill: none; stroke: #dddddd; stroke-width: 0.8; opacity: 1;"></line><line transform="translate(0,246)" x2="300" y2="0" style="fill: none; stroke: #dddddd; stroke-width: 0.8; opacity: 1;"></line><line transform="translate(0,193)" x2="300" y2="0" style="fill: none; stroke: #dddddd; stroke-width: 0.8; opacity: 1;"></line><line transform="translate(0,139)" x2="300" y2="0" style="fill: none; stroke: #dddddd; stroke-width: 0.8; opacity: 1;"></line><line transform="translate(0,86)" x2="300" y2="0" style="fill: none; stroke: #dddddd; stroke-width: 0.8; opacity: 1;"></line><line transform="translate(0,32)" x2="300" y2="0" style="fill: none; stroke: #dddddd; stroke-width: 0.8; opacity: 1;"></line></g></g><path class="foreground" d="" style="pointer-events: none; display: none; fill: none;"></path></g></g><g class="mark-group role-axis"><g transform="translate(0.5,300.5)"><path class="background" d="M0,0h0v0h0Z" style="pointer-events: none; fill: none;"></path><g><g class="mark-rule role-axis-tick" style="pointer-events: none;"><line transform="translate(0,0)" x2="0" y2="3" style="fill: none; stroke: #888; stroke-width: 1; opacity: 1;"></line><line transform="translate(48,0)" x2="0" y2="3" style="fill: none; stroke: #888; stroke-width: 1; opacity: 1;"></line><line transform="translate(95,0)" x2="0" y2="3" style="fill: none; stroke: #888; stroke-width: 1; opacity: 1;"></line><line transform="translate(143,0)" x2="0" y2="3" style="fill: none; stroke: #888; stroke-width: 1; opacity: 1;"></line><line transform="translate(191,0)" x2="0" y2="3" style="fill: none; stroke: #888; stroke-width: 1; opacity: 1;"></line><line transform="translate(239,0)" x2="0" y2="3" style="fill: none; stroke: #888; stroke-width: 1; opacity: 1;"></line><line transform="translate(286,0)" x2="0" y2="3" style="fill: none; stroke: #888; stroke-width: 1; opacity: 1;"></line></g><g class="mark-text role-axis-label" style="pointer-events: none;"><text text-anchor="middle" transform="translate(0,16)" style="font-family: Benton Gothic, sans; font-size: 11.5px; font-weight: normal; fill: #000; opacity: 1;">Mar 01</text><text text-anchor="middle" transform="translate(47.77251184834123,16)" style="font-family: Benton Gothic, sans; font-size: 11.5px; font-weight: normal; fill: #000; opacity: 1;">Mar 08</text><text text-anchor="middle" transform="translate(95.260663507109,16)" style="font-family: Benton Gothic, sans; font-size: 11.5px; font-weight: normal; fill: #000; opacity: 1;">Mar 15</text><text text-anchor="middle" transform="translate(143.03317535545023,16)" style="font-family: Benton Gothic, sans; font-size: 11.5px; font-weight: normal; fill: #000; opacity: 1;">Mar 22</text><text text-anchor="middle" transform="translate(190.80568720379148,16)" style="font-family: Benton Gothic, sans; font-size: 11.5px; font-weight: normal; fill: #000; opacity: 1;">Mar 29</text><text text-anchor="middle" transform="translate(238.5781990521327,16)" style="font-family: Benton Gothic, sans; font-size: 11.5px; font-weight: normal; fill: #000; opacity: 1;">Apr 05</text><text text-anchor="middle" transform="translate(286.3507109004739,16)" style="font-family: Benton Gothic, sans; font-size: 11.5px; font-weight: normal; fill: #000; opacity: 1;">Apr 12</text></g><g class="mark-rule role-axis-domain" style="pointer-events: none;"><line transform="translate(0,0)" x2="300" y2="0" style="fill: none; stroke: #888; stroke-width: 1; opacity: 1;"></line></g></g><path class="foreground" d="" style="pointer-events: none; display: none; fill: none;"></path></g></g><g class="mark-group role-axis"><g transform="translate(0.5,0.5)"><path class="background" d="M0,0h0v0h0Z" style="pointer-events: none; fill: none;"></path><g><g class="mark-rule role-axis-tick" style="pointer-events: none;"><line transform="translate(0,300)" x2="0" y2="0" style="fill: none; stroke: #888; stroke-width: 1; opacity: 1;"></line><line transform="translate(0,246)" x2="0" y2="0" style="fill: none; stroke: #888; stroke-width: 1; opacity: 1;"></line><line transform="translate(0,193)" x2="0" y2="0" style="fill: none; stroke: #888; stroke-width: 1; opacity: 1;"></line><line transform="translate(0,139)" x2="0" y2="0" style="fill: none; stroke: #888; stroke-width: 1; opacity: 1;"></line><line transform="translate(0,86)" x2="0" y2="0" style="fill: none; stroke: #888; stroke-width: 1; opacity: 1;"></line><line transform="translate(0,32)" x2="0" y2="0" style="fill: none; stroke: #888; stroke-width: 1; opacity: 1;"></line></g><g class="mark-text role-axis-label" style="pointer-events: none;"><text text-anchor="end" transform="translate(-2,303)" style="font-family: Benton Gothic, sans; font-size: 11.5px; font-weight: normal; fill: #000; opacity: 1;">0.0M</text><text text-anchor="end" transform="translate(-2,249.42857142857142)" style="font-family: Benton Gothic, sans; font-size: 11.5px; font-weight: normal; fill: #000; opacity: 1;">0.5M</text><text text-anchor="end" transform="translate(-2,195.85714285714283)" style="font-family: Benton Gothic, sans; font-size: 11.5px; font-weight: normal; fill: #000; opacity: 1;">1.0M</text><text text-anchor="end" transform="translate(-2,142.28571428571428)" style="font-family: Benton Gothic, sans; font-size: 11.5px; font-weight: normal; fill: #000; opacity: 1;">1.5M</text><text text-anchor="end" transform="translate(-2,88.71428571428571)" style="font-family: Benton Gothic, sans; font-size: 11.5px; font-weight: normal; fill: #000; opacity: 1;">2.0M</text><text text-anchor="end" transform="translate(-2,35.14285714285713)" style="font-family: Benton Gothic, sans; font-size: 11.5px; font-weight: normal; fill: #000; opacity: 1;">2.5M</text></g><g class="mark-rule role-axis-domain" style="pointer-events: none;"><line transform="translate(0,300)" x2="0" y2="-300" style="fill: none; stroke: #888; stroke-opacity: 0; stroke-width: 1; opacity: 1;"></line></g></g><path class="foreground" d="" style="pointer-events: none; display: none; fill: none;"></path></g></g><g class="mark-group role-scope pathgroup"><g transform="translate(0,0)"><path class="background" d="M0,0h300v300h-300Z" style="fill: none;"></path><g><g class="mark-line role-mark marks"><path d="M0,55.65835714285714L6.824644549763033,76.10989285714285L13.649289099526065,113.95789285714287L20.473933649289098,98.84989285714285L27.29857819905213,71.78410714285714L34.12322274881517,64.44460714285715L40.947867298578196,102.34167857142857L47.77251184834123,72.87139285714287L54.312796208530806,95.42539285714287L61.137440758293835,126.72642857142858L67.96208530805687,117.56935714285716L74.7867298578199,108.37971428571429L81.61137440758293,116.31728571428572L88.43601895734596,140.83360714285715L95.260663507109,137.22942857142857L102.08530805687204,165.23324999999997L108.90995260663506,197.81796428571428L115.7345971563981,216.46810714285715L122.55924170616113,233.47682142857144L129.38388625592418,236.44639285714285L136.20853080568722,241.27157142857143L143.03317535545023,251.30185714285713L149.85781990521326,264.4895357142857L156.6824644549763,270.1052142857143L163.50710900473933,274.36778571428573L170.33175355450237,278.1580714285714L177.1563981042654,278.6095714285714L183.98104265402844,280.2828214285714L190.80568720379148,280.7140714285714L197.63033175355451,283.49142857142857L204.45497630331755,284.31985714285713L211.2796208530806,285.4261071428571L218.1042654028436,286.7120357142857L224.92890995260663,286.09682142857145L231.75355450236967,287.3247857142857L238.5781990521327,286.92546428571427L245.40284360189574,288.3953571428571L252.22748815165878,289.5932142857143L259.0521327014218,289.8288214285714L265.8767772511849,288.8475L272.70142180094786,288.3238928571429L279.5260663507109,289.96660714285713L286.3507109004739,290.3025L293.17535545023696,289.0517142857143L300,290.6213571428571" style="fill: none; stroke: #82C6DF; stroke-width: 4;"></path></g></g><path class="foreground" d="" style="display: none; fill: none;"></path></g><g transform="translate(0,0)"><path class="background" d="M0,0h300v300h-300Z" style="fill: none;"></path><g><g class="mark-line role-mark marks"><path d="M0,53.417249999999996L6.824644549763033,58.08L13.649289099526065,87.90450000000001L20.473933649289098,70.32653571428573L27.29857819905213,42.56871428571427L34.12322274881517,27.461892857142868L40.947867298578196,68.97192857142859L47.77251184834123,33.70392857142859L54.312796208530806,45.14217857142858L61.137440758293835,72.54664285714286L67.96208530805687,65.64664285714285L74.7867298578199,31.722428571428562L81.61137440758293,17.76267857142857L88.43601895734596,56.28664285714285L95.260663507109,27.241928571428588L102.08530805687204,35.81689285714285L108.90995260663506,66.65046428571429L115.7345971563981,51.33375L122.55924170616113,30.725250000000017L129.38388625592418,25.78853571428571L136.20853080568722,61.3734642857143L143.03317535545023,27.573964285714293L149.85781990521326,39.174642857142864L156.6824644549763,69.43789285714284L163.50710900473933,56.37739285714285L170.33175355450237,33.51835714285715L177.1563981042654,28.030285714285707L183.98104265402844,67.18714285714286L190.80568720379148,31.03992857142859L197.63033175355451,47.137178571428564L204.45497630331755,82.90114285714284L211.2796208530806,69.46864285714285L218.1042654028436,41.625000000000014L224.92890995260663,34.61957142857144L231.75355450236967,84.45910714285714L238.5781990521327,36.11474999999999L245.40284360189574,44.56167857142857L252.22748815165878,75.95828571428571L259.0521327014218,61.14899999999999L265.8767772511849,33.49307142857142L272.70142180094786,22.446535714285698L279.5260663507109,79.37764285714285L286.3507109004739,37.84275000000002L293.17535545023696,33.79500000000001L300,63.354857142857135" style="fill: none; stroke: #006D8F; stroke-width: 4;"></path></g></g><path class="foreground" d="" style="display: none; fill: none;"></path></g></g></g><path class="foreground" d="" style="display: none; fill: none;"></path></g></g></g></svg>