<svg class="marks" width="1322" height="758" viewBox="0 0 661 379" version="1.1" xmlns="http://www.w3.org/2000/svg" xmlns:xlink="http://www.w3.org/1999/xlink"><rect width="661" height="379" style="fill: #ffffff;"></rect><g transform="translate(53,5)"><g class="mark-group role-frame root"><g transform="translate(0,0)"><path class="background" d="M0.5,0.5h600v350h-600Z" style="fill: none; stroke: #ddd; stroke-opacity: 0;"></path><g><g class="mark-group role-axis"><g transform="translate(0.5,0.5)"><path class="background" d="M0,0h0v0h0Z" style="pointer-events: none; fill: none;"></path><g><g class="mark-rule role-axis-grid" style="pointer-events: none;"><line transform="translate(0,350)" x2="600" y2="0" style="fill: none; stroke: #dddddd; stroke-width: 0.6; opacity: 1;"></line><line transform="translate(0,288)" x2="600" y2="0" style="fill: none; stroke: #dddddd; stroke-width: 0.6; opacity: 1;"></line><line transform="translate(0,225)" x2="600" y2="0" style="fill: none; stroke: #dddddd; stroke-width: 0.6; opacity: 1;"></line><line transform="translate(0,163)" x2="600" y2="0" style="fill: none; stroke: #dddddd; stroke-width: 0.6; opacity: 1;"></line><line transform="translate(0,100)" x2="600" y2="0" style="fill: none; stroke: #dddddd; stroke-width: 0.6; opacity: 1;"></line><line transform="translate(0,37)" x2="600" y2="0" style="fill: none; stroke: #dddddd; stroke-width: 0.6; opacity: 1;"></line></g></g><path class="foreground" d="" style="pointer-events: none; display: none; fill: none;"></path></g></g><g class="mark-group role-axis"><g transform="translate(0.5,350.5)"><path class="background" d="M0,0h0v0h0Z" style="pointer-events: none; fill: none;"></path><g><g class="mark-rule role-axis-tick" style="pointer-events: none;"><line transform="translate(0,0)" x2="0" y2="3" style="fill: none; stroke: #888; stroke-width: 1; opacity: 1;"></line><line transform="translate(79,0)" x2="0" y2="3" style="fill: none; stroke: #888; stroke-width: 1; opacity: 1;"></line><line transform="translate(158,0)" x2="0" y2="3" style="fill: none; stroke: #888; stroke-width: 1; opacity: 1;"></line><line transform="translate(237,0)" x2="0" y2="3" style="fill: none; stroke: #888; stroke-width: 1; opacity: 1;"></line><line transform="translate(317,0)" x2="0" y2="3" style="fill: none; stroke: #888; stroke-width: 1; opacity: 1;"></line><line transform="translate(396,0)" x2="0" y2="3" style="fill: none; stroke: #888; stroke-width: 1; opacity: 1;"></line><line transform="translate(475,0)" x2="0" y2="3" style="fill: none; stroke: #888; stroke-width: 1; opacity: 1;"></line><line transform="translate(555,0)" x2="0" y2="3" style="fill: none; stroke: #888; stroke-width: 1; opacity: 1;"></line></g><g class="mark-text role-axis-label" style="pointer-events: none;"><text text-anchor="middle" transform="translate(0,16)" style="font-family: Benton Gothic, sans; font-size: 11.5px; font-weight: normal; fill: #000; opacity: 1;">Mar. 1</text><text text-anchor="middle" transform="translate(79.30763178599527,16)" style="font-family: Benton Gothic, sans; font-size: 11.5px; font-weight: normal; fill: #000; opacity: 1;">Mar. 8</text><text text-anchor="middle" transform="translate(158.14319433516914,16)" style="font-family: Benton Gothic, sans; font-size: 11.5px; font-weight: normal; fill: #000; opacity: 1;">Mar. 15</text><text text-anchor="middle" transform="translate(237.45082612116443,16)" style="font-family: Benton Gothic, sans; font-size: 11.5px; font-weight: normal; fill: #000; opacity: 1;">Mar. 22</text><text text-anchor="middle" transform="translate(316.7584579071597,16)" style="font-family: Benton Gothic, sans; font-size: 11.5px; font-weight: normal; fill: #000; opacity: 1;">Mar. 29</text><text text-anchor="middle" transform="translate(396.06608969315505,16)" style="font-family: Benton Gothic, sans; font-size: 11.5px; font-weight: normal; fill: #000; opacity: 1;">Apr. 5</text><text text-anchor="middle" transform="translate(475.3737214791502,16)" style="font-family: Benton Gothic, sans; font-size: 11.5px; font-weight: normal; fill: #000; opacity: 1;">Apr. 12</text><text text-anchor="middle" transform="translate(554.6813532651455,16)" style="font-family: Benton Gothic, sans; font-size: 11.5px; font-weight: normal; fill: #000; opacity: 1;">Apr. 19</text></g><g class="mark-rule role-axis-domain" style="pointer-events: none;"><line transform="translate(0,0)" x2="600" y2="0" style="fill: none; stroke: #888; stroke-width: 1; opacity: 1;"></line></g></g><path class="foreground" d="" style="pointer-events: none; display: none; fill: none;"></path></g></g><g class="mark-group role-axis"><g transform="translate(-2.5,0.5)"><path class="background" d="M0,0h0v0h0Z" style="pointer-events: none; fill: none;"></path><g><g class="mark-rule role-axis-tick" style="pointer-events: none;"><line transform="translate(0,350)" x2="0" y2="0" style="fill: none; stroke: #888; stroke-width: 1; opacity: 1;"></line><line transform="translate(0,288)" x2="0" y2="0" style="fill: none; stroke: #888; stroke-width: 1; opacity: 1;"></line><line transform="translate(0,225)" x2="0" y2="0" style="fill: none; stroke: #888; stroke-width: 1; opacity: 1;"></line><line transform="translate(0,163)" x2="0" y2="0" style="fill: none; stroke: #888; stroke-width: 1; opacity: 1;"></line><line transform="translate(0,100)" x2="0" y2="0" style="fill: none; stroke: #888; stroke-width: 1; opacity: 1;"></line><line transform="translate(0,37)" x2="0" y2="0" style="fill: none; stroke: #888; stroke-width: 1; opacity: 1;"></line></g><g class="mark-text role-axis-label" style="pointer-events: none;"><text text-anchor="end" transform="translate(-2,353)" style="font-family: Benton Gothic, sans; font-size: 11.5px; font-weight: normal; fill: #000; opacity: 1;">0.0M</text><text text-anchor="end" transform="translate(-2,290.5)" style="font-family: Benton Gothic, sans; font-size: 11.5px; font-weight: normal; fill: #000; opacity: 1;">0.5M</text><text text-anchor="end" transform="translate(-2,227.99999999999997)" style="font-family: Benton Gothic, sans; font-size: 11.5px; font-weight: normal; fill: #000; opacity: 1;">1.0M</text><text text-anchor="end" transform="translate(-2,165.5)" style="font-family: Benton Gothic, sans; font-size: 11.5px; font-weight: normal; fill: #000; opacity: 1;">1.5M</text><text text-anchor="end" transform="translate(-2,103)" style="font-family: Benton Gothic, sans; font-size: 11.5px; font-weight: normal; fill: #000; opacity: 1;">2.0M</text><text text-anchor="end" transform="translate(-2,40.499999999999986)" style="font-family: Benton Gothic, sans; font-size: 11.5px; font-weight: normal; fill: #000; opacity: 1;">2.5M</text></g><g class="mark-rule role-axis-domain" style="pointer-events: none;"><line transform="translate(0,350)" x2="0" y2="-350" style="fill: none; stroke: #888; stroke-opacity: 0; stroke-width: 1; opacity: 1;"></line></g></g><path class="foreground" d="" style="pointer-events: none; display: none; fill: none;"></path></g></g><g class="mark-group role-scope pathgroup"><g transform="translate(0,0)"><path class="background" d="M0,0h600v350h-600Z" style="fill: none;"></path><g><g class="mark-line role-mark marks"><path d="M0,64.93475L11.329661683713612,88.794875L22.659323367427223,132.95087500000002L33.98898505114084,115.32487499999999L45.31864673485445,83.74812499999999L56.648308418568064,75.18537500000001L67.97797010228167,119.39862500000001L79.30763178599527,85.016625L90.16522423288748,111.32962500000001L101.4948859166011,147.84750000000003L112.82454760031472,137.16425L124.15420928402831,126.44300000000001L135.48387096774192,135.70350000000002L146.81353265145555,164.30587500000001L158.14319433516914,160.101L169.47285601888277,192.77212499999996L180.8025177025964,230.787625L192.13217938630999,252.54612500000002L203.4618410700236,272.389625L214.7915027537372,275.854125L226.12116443745083,281.4835L237.45082612116443,293.1855L248.78048780487805,308.571125L260.1101494885917,315.12275L271.43981117230527,320.09575L282.76947285601887,324.51775L294.0991345397325,325.04449999999997L305.4287962234461,326.996625L316.7584579071597,327.49975L328.0881195908733,330.74L339.4177812745869,331.7065L350.74744295830055,332.997125L362.0771046420142,334.497375L373.40676632572774,333.779625L384.7364280094414,335.21225000000004L396.06608969315505,334.746375L407.3957513768686,336.46125L418.72541306058224,337.85875L430.05507474429584,338.133625L441.38473642800943,336.98875000000004L452.714398111723,336.377875L464.0440597954367,338.294375L475.3737214791502,338.68625L486.7033831628639,337.22700000000003L498.0330448465775,339.05825L509.36270653029106,338.65200000000004L520.6923682140047,338.114375L532.0220298977183,336.70187500000003L543.351691581432,337.8455L554.6813532651455,336.82725L566.0110149488592,337.582L577.3406766325728,338.392625L588.6703383162863,337.62899999999996L600,336.046625" style="fill: none; stroke: #C7733E; stroke-width: 3;"></path></g></g><path class="foreground" d="" style="display: none; fill: none;"></path></g><g transform="translate(0,0)"><path class="background" d="M0,0h600v350h-600Z" style="fill: none;"></path><g><g class="mark-line role-mark marks"><path d="M0,62.32012499999999L11.329661683713612,67.75999999999999L22.659323367427223,102.55525000000002L33.98898505114084,82.04762500000001L45.31864673485445,49.663499999999985L56.648308418568064,32.03887500000001L67.97797010228167,80.46725000000002L79.30763178599527,39.32125000000002L90.16522423288748,52.665875000000014L101.4948859166011,84.63775000000001L112.82454760031472,76.58775L124.15420928402831,37.00949999999999L135.48387096774192,20.723124999999996L146.81353265145555,65.66775L158.14319433516914,31.78225000000002L169.47285601888277,41.786374999999985L180.8025177025964,77.75887500000002L192.13217938630999,59.889375L203.4618410700236,35.846125000000015L214.7915027537372,30.086624999999994L226.12116443745083,71.60237500000001L237.45082612116443,32.16962500000001L248.78048780487805,45.70375000000001L260.1101494885917,81.01087499999998L271.43981117230527,65.773625L282.76947285601887,39.10475L294.0991345397325,32.70199999999999L305.4287962234461,78.385L316.7584579071597,36.213250000000016L328.0881195908733,54.993374999999986L339.4177812745869,96.71799999999999L350.74744295830055,81.04674999999999L362.0771046420142,48.562500000000014L373.40676632572774,40.38950000000001L384.7364280094414,98.535625L396.06608969315505,42.13387499999998L407.3957513768686,51.988625000000006L418.72541306058224,88.618L430.05507474429584,71.34049999999999L441.38473642800943,39.07524999999999L452.714398111723,26.187624999999983L464.0440597954367,92.60725L475.3737214791502,44.149875000000016L486.7033831628639,39.42750000000001L498.0330448465775,73.91399999999999L509.36270653029106,60.327374999999996L520.6923682140047,22.980249999999984L532.0220298977183,42.85837499999999L543.351691581432,101.47437500000002L554.6813532651455,55.399750000000004L566.0110149488592,25.728625L577.3406766325728,71.56562500000001L588.6703383162863,68.22387500000002L600,34.12987500000001" style="fill: none; stroke: #C4C1B3; stroke-width: 3;"></path></g></g><path class="foreground" d="" style="display: none; fill: none;"></path></g></g></g><path class="foreground" d="" style="display: none; fill: none;"></path></g></g></g></svg>