<svg class="marks" width="1322" height="758" viewBox="0 0 661 379" version="1.1" xmlns="http://www.w3.org/2000/svg" xmlns:xlink="http://www.w3.org/1999/xlink"><rect width="661" height="379" style="fill: #ffffff;"></rect><g transform="translate(53,5)"><g class="mark-group role-frame root"><g transform="translate(0,0)"><path class="background" d="M0.5,0.5h600v350h-600Z" style="fill: none; stroke: #ddd; stroke-opacity: 0;"></path><g><g class="mark-group role-axis"><g transform="translate(0.5,0.5)"><path class="background" d="M0,0h0v0h0Z" style="pointer-events: none; fill: none;"></path><g><g class="mark-rule role-axis-grid" style="pointer-events: none;"><line transform="translate(0,350)" x2="600" y2="0" style="fill: none; stroke: #dddddd; stroke-width: 0.6; opacity: 1;"></line><line transform="translate(0,288)" x2="600" y2="0" style="fill: none; stroke: #dddddd; stroke-width: 0.6; opacity: 1;"></line><line transform="translate(0,225)" x2="600" y2="0" style="fill: none; stroke: #dddddd; stroke-width: 0.6; opacity: 1;"></line><line transform="translate(0,163)" x2="600" y2="0" style="fill: none; stroke: #dddddd; stroke-width: 0.6; opacity: 1;"></line><line transform="translate(0,100)" x2="600" y2="0" style="fill: none; stroke: #dddddd; stroke-width: 0.6; opacity: 1;"></line><line transform="translate(0,37)" x2="600" y2="0" style="fill: none; stroke: #dddddd; stroke-width: 0.6; opacity: 1;"></line></g></g><path class="foreground" d="" style="pointer-events: none; display: none; fill: none;"></path></g></g><g class="mark-group role-axis"><g transform="translate(0.5,350.5)"><path class="background" d="M0,0h0v0h0Z" style="pointer-events: none; fill: none;"></path><g><g class="mark-rule role-axis-tick" style="pointer-events: none;"><line transform="translate(0,0)" x2="0" y2="3" style="fill: none; stroke: #888; stroke-width: 1; opacity: 1;"></line><line transform="translate(89,0)" x2="0" y2="3" style="fill: none; stroke: #888; stroke-width: 1; opacity: 1;"></line><line transform="translate(178,0)" x2="0" y2="3" style="fill: none; stroke: #888; stroke-width: 1; opacity: 1;"></line><line transform="translate(268,0)" x2="0" y2="3" style="fill: none; stroke: #888; stroke-width: 1; opacity: 1;"></line><line transform="translate(357,0)" x2="0" y2="3" style="fill: none; stroke: #888; stroke-width: 1; opacity: 1;"></line><line transform="translate(447,0)" x2="0" y2="3" style="fill: none; stroke: #888; stroke-width: 1; opacity: 1;"></line><line transform="translate(536,0)" x2="0" y2="3" style="fill: none; stroke: #888; stroke-width: 1; opacity: 1;"></line></g><g class="mark-text role-axis-label" style="pointer-events: none;"><text text-anchor="middle" transform="translate(0,16)" style="font-family: Benton Gothic, sans; font-size: 11.5px; font-weight: normal; fill: #000; opacity: 1;">Mar. 1</text><text text-anchor="middle" transform="translate(89.44099378881988,16)" style="font-family: Benton Gothic, sans; font-size: 11.5px; font-weight: normal; fill: #000; opacity: 1;">Mar. 8</text><text text-anchor="middle" transform="translate(178.34960070984917,16)" style="font-family: Benton Gothic, sans; font-size: 11.5px; font-weight: normal; fill: #000; opacity: 1;">Mar. 15</text><text text-anchor="middle" transform="translate(267.79059449866907,16)" style="font-family: Benton Gothic, sans; font-size: 11.5px; font-weight: normal; fill: #000; opacity: 1;">Mar. 22</text><text text-anchor="middle" transform="translate(357.2315882874889,16)" style="font-family: Benton Gothic, sans; font-size: 11.5px; font-weight: normal; fill: #000; opacity: 1;">Mar. 29</text><text text-anchor="middle" transform="translate(446.6725820763088,16)" style="font-family: Benton Gothic, sans; font-size: 11.5px; font-weight: normal; fill: #000; opacity: 1;">Apr. 5</text><text text-anchor="middle" transform="translate(536.1135758651286,16)" style="font-family: Benton Gothic, sans; font-size: 11.5px; font-weight: normal; fill: #000; opacity: 1;">Apr. 12</text></g><g class="mark-rule role-axis-domain" style="pointer-events: none;"><line transform="translate(0,0)" x2="600" y2="0" style="fill: none; stroke: #888; stroke-width: 1; opacity: 1;"></line></g></g><path class="foreground" d="" style="pointer-events: none; display: none; fill: none;"></path></g></g><g class="mark-group role-axis"><g transform="translate(-2.5,0.5)"><path class="background" d="M0,0h0v0h0Z" style="pointer-events: none; fill: none;"></path><g><g class="mark-rule role-axis-tick" style="pointer-events: none;"><line transform="translate(0,350)" x2="0" y2="0" style="fill: none; stroke: #888; stroke-width: 1; opacity: 1;"></line><line transform="translate(0,288)" x2="0" y2="0" style="fill: none; stroke: #888; stroke-width: 1; opacity: 1;"></line><line transform="translate(0,225)" x2="0" y2="0" style="fill: none; stroke: #888; stroke-width: 1; opacity: 1;"></line><line transform="translate(0,163)" x2="0" y2="0" style="fill: none; stroke: #888; stroke-width: 1; opacity: 1;"></line><line transform="translate(0,100)" x2="0" y2="0" style="fill: none; stroke: #888; stroke-width: 1; opacity: 1;"></line><line transform="translate(0,37)" x2="0" y2="0" style="fill: none; stroke: #888; stroke-width: 1; opacity: 1;"></line></g><g class="mark-text role-axis-label" style="pointer-events: none;"><text text-anchor="end" transform="translate(-2,353)" style="font-family: Benton Gothic, sans; font-size: 11.5px; font-weight: normal; fill: #000; opacity: 1;">0.0M</text><text text-anchor="end" transform="translate(-2,290.5)" style="font-family: Benton Gothic, sans; font-size: 11.5px; font-weight: normal; fill: #000; opacity: 1;">0.5M</text><text text-anchor="end" transform="translate(-2,227.99999999999997)" style="font-family: Benton Gothic, sans; font-size: 11.5px; font-weight: normal; fill: #000; opacity: 1;">1.0M</text><text text-anchor="end" transform="translate(-2,165.5)" style="font-family: Benton Gothic, sans; font-size: 11.5px; font-weight: normal; fill: #000; opacity: 1;">1.5M</text><text text-anchor="end" transform="translate(-2,103)" style="font-family: Benton Gothic, sans; font-size: 11.5px; font-weight: normal; fill: #000; opacity: 1;">2.0M</text><text text-anchor="end" transform="translate(-2,40.499999999999986)" style="font-family: Benton Gothic, sans; font-size: 11.5px; font-weight: normal; fill: #000; opacity: 1;">2.5M</text></g><g class="mark-rule role-axis-domain" style="pointer-events: none;"><line transform="translate(0,350)" x2="0" y2="-350" style="fill: none; stroke: #888; stroke-opacity: 0; stroke-width: 1; opacity: 1;"></line></g></g><path class="foreground" d="" style="pointer-events: none; display: none; fill: none;"></path></g></g><g class="mark-group role-scope pathgroup"><g transform="translate(0,0)"><path class="background" d="M0,0h600v350h-600Z" style="fill: none;"></path><g><g class="mark-line role-mark marks"><path d="M0,64.93475L12.777284826974267,88.794875L25.554569653948533,132.95087500000002L38.3318544809228,115.32487499999999L51.10913930789707,83.74812499999999L63.88642413487134,75.18537500000001L76.6637089618456,119.39862500000001L89.44099378881988,85.016625L101.68589174800354,111.32962500000001L114.46317657497781,147.84750000000003L127.24046140195209,137.16425L140.01774622892634,126.44300000000001L152.7950310559006,135.70350000000002L165.57231588287488,164.30587500000001L178.34960070984917,160.101L191.1268855368234,192.77212499999996L203.90417036379768,230.787625L216.68145519077197,252.54612500000002L229.45874001774624,272.389625L242.23602484472048,275.854125L255.01330967169477,281.4835L267.79059449866907,293.1855L280.5678793256433,308.571125L293.34516415261754,315.12275L306.12244897959187,320.09575L318.8997338065661,324.51775L331.6770186335404,325.04449999999997L344.45430346051467,326.996625L357.2315882874889,327.49975L370.0088731144632,330.74L382.78615794143747,331.7065L395.5634427684117,332.997125L408.340727595386,334.497375L421.11801242236027,333.779625L433.8952972493345,335.21225000000004L446.6725820763088,334.746375L459.44986690328307,336.46125L472.2271517302573,337.85875L485.0044365572316,338.133625L497.78172138420587,336.98875000000004L510.55900621118013,336.377875L523.3362910381544,338.294375L536.1135758651286,338.68625L548.8908606921029,337.22700000000003L561.6681455190771,339.05825L574.4454303460515,338.65200000000004L587.2227151730258,338.114375L600,336.70187500000003" style="fill: none; stroke: #c2dfe4; stroke-width: 3;"></path></g></g><path class="foreground" d="" style="display: none; fill: none;"></path></g><g transform="translate(0,0)"><path class="background" d="M0,0h600v350h-600Z" style="fill: none;"></path><g><g class="mark-line role-mark marks"><path d="M0,62.32012499999999L12.777284826974267,67.75999999999999L25.554569653948533,102.55525000000002L38.3318544809228,82.04762500000001L51.10913930789707,49.663499999999985L63.88642413487134,32.03887500000001L76.6637089618456,80.46725000000002L89.44099378881988,39.32125000000002L101.68589174800354,52.665875000000014L114.46317657497781,84.63775000000001L127.24046140195209,76.58775L140.01774622892634,37.00949999999999L152.7950310559006,20.723124999999996L165.57231588287488,65.66775L178.34960070984917,31.78225000000002L191.1268855368234,41.786374999999985L203.90417036379768,77.75887500000002L216.68145519077197,59.889375L229.45874001774624,35.846125000000015L242.23602484472048,30.086624999999994L255.01330967169477,71.60237500000001L267.79059449866907,32.16962500000001L280.5678793256433,45.70375000000001L293.34516415261754,81.01087499999998L306.12244897959187,65.773625L318.8997338065661,39.10475L331.6770186335404,32.70199999999999L344.45430346051467,78.385L357.2315882874889,36.213250000000016L370.0088731144632,54.993374999999986L382.78615794143747,96.71799999999999L395.5634427684117,81.04674999999999L408.340727595386,48.562500000000014L421.11801242236027,40.38950000000001L433.8952972493345,98.535625L446.6725820763088,42.13387499999998L459.44986690328307,51.988625000000006L472.2271517302573,88.618L485.0044365572316,71.34049999999999L497.78172138420587,39.07524999999999L510.55900621118013,26.187624999999983L523.3362910381544,92.60725L536.1135758651286,44.149875000000016L548.8908606921029,39.42750000000001L561.6681455190771,73.91399999999999L574.4454303460515,60.327374999999996L587.2227151730258,22.980249999999984L600,42.85837499999999" style="fill: none; stroke: #065360; stroke-width: 3;"></path></g></g><path class="foreground" d="" style="display: none; fill: none;"></path></g></g></g><path class="foreground" d="" style="display: none; fill: none;"></path></g></g></g></svg>