<svg class="marks" width="1840" height="570" viewBox="0 0 920 285" version="1.1" xmlns="http://www.w3.org/2000/svg" xmlns:xlink="http://www.w3.org/1999/xlink"><rect width="920" height="285" style="fill: #ffffff;"></rect><g transform="translate(50,11)"><g class="mark-group role-frame root"><g transform="translate(0,0)"><path class="background" d="M0,0h0v250h0Z" style="fill: none;"></path><g><g class="mark-group role-scope concat_0_group"><g transform="translate(0,0)"><path class="background" d="M0.5,0.5h400v250h-400Z" style="fill: none; stroke: #ddd; stroke-opacity: 0;"></path><g><g class="mark-group role-axis"><g transform="translate(0.5,0.5)"><path class="background" d="M0,0h0v0h0Z" style="pointer-events: none; fill: none;"></path><g><g class="mark-rule role-axis-grid" style="pointer-events: none;"><line transform="translate(0,250)" x2="400" y2="0" style="fill: none; stroke: #ddd; stroke-width: 1; opacity: 1;"></line><line transform="translate(0,200)" x2="400" y2="0" style="fill: none; stroke: #ddd; stroke-width: 1; opacity: 1;"></line><line transform="translate(0,150)" x2="400" y2="0" style="fill: none; stroke: #ddd; stroke-width: 1; opacity: 1;"></line><line transform="translate(0,100)" x2="400" y2="0" style="fill: none; stroke: #ddd; stroke-width: 1; opacity: 1;"></line><line transform="translate(0,50)" x2="400" y2="0" style="fill: none; stroke: #ddd; stroke-width: 1; opacity: 1;"></line><line transform="translate(0,0)" x2="400" y2="0" style="fill: none; stroke: #ddd; stroke-width: 1; opacity: 1;"></line></g></g><path class="foreground" d="" style="pointer-events: none; display: none; fill: none;"></path></g></g><g class="mark-group role-axis"><g transform="translate(0.5,250.5)"><path class="background" d="M0,0h0v0h0Z" style="pointer-events: none; fill: none;"></path><g><g class="mark-rule role-axis-tick" style="pointer-events: none;"><line transform="translate(104,0)" x2="0" y2="3" style="fill: none; stroke: #888; stroke-width: 1; opacity: 1;"></line><line transform="translate(341,0)" x2="0" y2="3" style="fill: none; stroke: #888; stroke-width: 1; opacity: 1;"></line></g><g class="mark-text role-axis-label" style="pointer-events: none;"><text text-anchor="middle" transform="translate(104.49304990699846,16)" style="font-family: Benton Gothic, sans; font-size: 11.5px; font-weight: normal; fill: #000; opacity: 1;">Mar 1</text><text text-anchor="middle" transform="translate(341.4268193627835,16)" style="font-family: Benton Gothic, sans; font-size: 11.5px; font-weight: normal; fill: #000; opacity: 1;">Apr 1</text></g><g class="mark-rule role-axis-domain" style="pointer-events: none;"><line transform="translate(0,0)" x2="400" y2="0" style="fill: none; stroke: #888; stroke-width: 1; opacity: 1;"></line></g></g><path class="foreground" d="" style="pointer-events: none; display: none; fill: none;"></path></g></g><g class="mark-group role-axis"><g transform="translate(0.5,0.5)"><path class="background" d="M0,0h0v0h0Z" style="pointer-events: none; fill: none;"></path><g><g class="mark-rule role-axis-tick" style="pointer-events: none;"><line transform="translate(0,250)" x2="0" y2="0" style="fill: none; stroke: #888; stroke-width: 1; opacity: 1;"></line><line transform="translate(0,200)" x2="0" y2="0" style="fill: none; stroke: #888; stroke-width: 1; opacity: 1;"></line><line transform="translate(0,150)" x2="0" y2="0" style="fill: none; stroke: #888; stroke-width: 1; opacity: 1;"></line><line transform="translate(0,100)" x2="0" y2="0" style="fill: none; stroke: #888; stroke-width: 1; opacity: 1;"></line><line transform="translate(0,50)" x2="0" y2="0" style="fill: none; stroke: #888; stroke-width: 1; opacity: 1;"></line><line transform="translate(0,0)" x2="0" y2="0" style="fill: none; stroke: #888; stroke-width: 1; opacity: 1;"></line></g><g class="mark-text role-axis-label" style="pointer-events: none;"><text text-anchor="end" transform="translate(-2,253)" style="font-family: Benton Gothic, sans; font-size: 11.5px; font-weight: normal; fill: #000; opacity: 1;">-100%</text><text text-anchor="end" transform="translate(-2,203)" style="font-family: Benton Gothic, sans; font-size: 11.5px; font-weight: normal; fill: #000; opacity: 1;">-80%</text><text text-anchor="end" transform="translate(-2,153)" style="font-family: Benton Gothic, sans; font-size: 11.5px; font-weight: normal; fill: #000; opacity: 1;">-60%</text><text text-anchor="end" transform="translate(-2,103)" style="font-family: Benton Gothic, sans; font-size: 11.5px; font-weight: normal; fill: #000; opacity: 1;">-40%</text><text text-anchor="end" transform="translate(-2,52.999999999999986)" style="font-family: Benton Gothic, sans; font-size: 11.5px; font-weight: normal; fill: #000; opacity: 1;">-20%</text><text text-anchor="end" transform="translate(-2,3)" style="font-family: Benton Gothic, sans; font-size: 11.5px; font-weight: normal; fill: #000; opacity: 1;">0%</text></g><g class="mark-rule role-axis-domain" style="pointer-events: none;"><line transform="translate(0,250)" x2="0" y2="-250" style="fill: none; stroke: #888; stroke-opacity: 0; stroke-width: 1; opacity: 1;"></line></g></g><path class="foreground" d="" style="pointer-events: none; display: none; fill: none;"></path></g></g><g class="mark-rect role-mark concat_0_marks"><path d="M2.5000000143942493,0h5v5.000000000000004h-5Z" style="fill: #d14e1a;"></path><path d="M10.153311544594573,0h5v7.500000000000007h-5Z" style="fill: #d14e1a;"></path><path d="M17.806623074794896,0h5v5.000000000000004h-5Z" style="fill: #d14e1a;"></path><path d="M25.45993460499522,0h5v7.500000000000007h-5Z" style="fill: #d14e1a;"></path><path d="M33.11324613519554,0h5v7.500000000000007h-5Z" style="fill: #d14e1a;"></path><path d="M40.766557665395865,0h5v5.000000000000004h-5Z" style="fill: #d14e1a;"></path><path d="M48.41986919559619,0h5v5.000000000000004h-5Z" style="fill: #d14e1a;"></path><path d="M56.07318072579651,0h5v5.000000000000004h-5Z" style="fill: #d14e1a;"></path><path d="M63.726492255996845,0h5v7.500000000000007h-5Z" style="fill: #d14e1a;"></path><path d="M71.37980378619716,0h5v7.500000000000007h-5Z" style="fill: #d14e1a;"></path><path d="M79.03311531639748,0h5v12.50000000000001h-5Z" style="fill: #d14e1a;"></path><path d="M86.68642684659781,0h5v7.500000000000007h-5Z" style="fill: #d14e1a;"></path><path d="M94.33973837679814,0h5v7.500000000000007h-5Z" style="fill: #d14e1a;"></path><path d="M101.99304990699846,0h5v7.500000000000007h-5Z" style="fill: #d14e1a;"></path><path d="M170.55396569837637,0h5v7.500000000000007h-5Z" style="fill: #d14e1a;"></path><path d="M178.2072772285767,0h5v10.000000000000009h-5Z" style="fill: #d14e1a;"></path><path d="M185.86058875877703,0h5v7.500000000000007h-5Z" style="fill: #d14e1a;"></path><path d="M193.51390028897734,0h5v10.000000000000009h-5Z" style="fill: #d14e1a;"></path><path d="M201.16721181917765,0h5v10.000000000000009h-5Z" style="fill: #d14e1a;"></path><path d="M208.82052334937796,0h5v12.50000000000001h-5Z" style="fill: #d14e1a;"></path><path d="M216.4738348795783,0h5v15.000000000000014h-5Z" style="fill: #d14e1a;"></path><path d="M224.12714640977862,0h5v19.99999999999999h-5Z" style="fill: #d14e1a;"></path><path d="M231.78045793997896,0h5v32.5h-5Z" style="fill: #d14e1a;"></path><path d="M239.43376947017927,0h5v47.499999999999986h-5Z" style="fill: #d14e1a;"></path><path d="M109.64636143719878,0h5v7.500000000000007h-5Z" style="fill: #d14e1a;"></path><path d="M247.0870810003796,0h5v57.49999999999999h-5Z" style="fill: #d14e1a;"></path><path d="M254.74039253057992,0h5v67.5h-5Z" style="fill: #d14e1a;"></path><path d="M262.39370406078024,0h5v80.00000000000001h-5Z" style="fill: #d14e1a;"></path><path d="M270.04701559098055,0h5v100h-5Z" style="fill: #d14e1a;"></path><path d="M277.7003271211809,0h5v107.49999999999999h-5Z" style="fill: #d14e1a;"></path><path d="M285.35363865138123,0h5v117.5h-5Z" style="fill: #d14e1a;"></path><path d="M293.00695018158154,0h5v127.5h-5Z" style="fill: #d14e1a;"></path><path d="M300.66026171178186,0h5v135h-5Z" style="fill: #d14e1a;"></path><path d="M308.3135732419822,0h5v132.5h-5Z" style="fill: #d14e1a;"></path><path d="M315.9668847721825,0h5v132.5h-5Z" style="fill: #d14e1a;"></path><path d="M117.2996729673991,0h5v7.500000000000007h-5Z" style="fill: #d14e1a;"></path><path d="M323.62019630238285,0h5v137.5h-5Z" style="fill: #d14e1a;"></path><path d="M331.27350783258316,0h5v135h-5Z" style="fill: #d14e1a;"></path><path d="M124.95298449759943,0h5v7.500000000000007h-5Z" style="fill: #d14e1a;"></path><path d="M132.60629602779974,0h5v15.000000000000014h-5Z" style="fill: #d14e1a;"></path><path d="M140.25960755800008,0h5v7.500000000000007h-5Z" style="fill: #d14e1a;"></path><path d="M147.9129190882004,0h5v7.500000000000007h-5Z" style="fill: #d14e1a;"></path><path d="M155.56623061840074,0h5v7.500000000000007h-5Z" style="fill: #d14e1a;"></path><path d="M162.90065416817603,0h5v7.500000000000007h-5Z" style="fill: #d14e1a;"></path><path d="M338.9268193627835,0h5v132.5h-5Z" style="fill: #d14e1a;"></path><path d="M346.5801308929838,0h5v145h-5Z" style="fill: #d14e1a;"></path><path d="M354.23344242318416,0h5v142.5h-5Z" style="fill: #d14e1a;"></path><path d="M361.88675395338447,0h5v142.5h-5Z" style="fill: #d14e1a;"></path><path d="M369.5400654835848,0h5v142.5h-5Z" style="fill: #d14e1a;"></path><path d="M377.1933770137851,0h5v127.5h-5Z" style="fill: #d14e1a;"></path><path d="M384.84668854398547,0h5v127.5h-5Z" style="fill: #d14e1a;"></path><path d="M392.5000000741857,0h5v127.5h-5Z" style="fill: #d14e1a;"></path></g></g><path class="foreground" d="" style="display: none; fill: none;"></path></g></g><g class="mark-group role-scope concat_1_group"><g transform="translate(465,0)"><path class="background" d="M0.5,0.5h400v250h-400Z" style="fill: none; stroke: #ddd; stroke-opacity: 0;"></path><g><g class="mark-group role-axis"><g transform="translate(0.5,0.5)"><path class="background" d="M0,0h0v0h0Z" style="pointer-events: none; fill: none;"></path><g><g class="mark-rule role-axis-grid" style="pointer-events: none;"><line transform="translate(0,250)" x2="400" y2="0" style="fill: none; stroke: #ddd; stroke-width: 1; opacity: 1;"></line><line transform="translate(0,200)" x2="400" y2="0" style="fill: none; stroke: #ddd; stroke-width: 1; opacity: 1;"></line><line transform="translate(0,150)" x2="400" y2="0" style="fill: none; stroke: #ddd; stroke-width: 1; opacity: 1;"></line><line transform="translate(0,100)" x2="400" y2="0" style="fill: none; stroke: #ddd; stroke-width: 1; opacity: 1;"></line><line transform="translate(0,50)" x2="400" y2="0" style="fill: none; stroke: #ddd; stroke-width: 1; opacity: 1;"></line><line transform="translate(0,0)" x2="400" y2="0" style="fill: none; stroke: #ddd; stroke-width: 1; opacity: 1;"></line></g></g><path class="foreground" d="" style="pointer-events: none; display: none; fill: none;"></path></g></g><g class="mark-group role-axis"><g transform="translate(0.5,250.5)"><path class="background" d="M0,0h0v0h0Z" style="pointer-events: none; fill: none;"></path><g><g class="mark-rule role-axis-tick" style="pointer-events: none;"><line transform="translate(121,0)" x2="0" y2="3" style="fill: none; stroke: #888; stroke-width: 1; opacity: 1;"></line><line transform="translate(344,0)" x2="0" y2="3" style="fill: none; stroke: #888; stroke-width: 1; opacity: 1;"></line></g><g class="mark-text role-axis-label" style="pointer-events: none;"><text text-anchor="middle" transform="translate(120.64478767767879,16)" style="font-family: Benton Gothic, sans; font-size: 11.5px; font-weight: normal; fill: #000; opacity: 1;">Mar. 1</text><text text-anchor="middle" transform="translate(344.4054054634948,16)" style="font-family: Benton Gothic, sans; font-size: 11.5px; font-weight: normal; fill: #000; opacity: 1;">Apr. 1</text></g><g class="mark-rule role-axis-domain" style="pointer-events: none;"><line transform="translate(0,0)" x2="400" y2="0" style="fill: none; stroke: #888; stroke-width: 1; opacity: 1;"></line></g></g><path class="foreground" d="" style="pointer-events: none; display: none; fill: none;"></path></g></g><g class="mark-group role-axis"><g transform="translate(0.5,0.5)"><path class="background" d="M0,0h0v0h0Z" style="pointer-events: none; fill: none;"></path><g><g class="mark-rule role-axis-tick" style="pointer-events: none;"><line transform="translate(0,250)" x2="0" y2="0" style="fill: none; stroke: #888; stroke-width: 1; opacity: 1;"></line><line transform="translate(0,200)" x2="0" y2="0" style="fill: none; stroke: #888; stroke-width: 1; opacity: 1;"></line><line transform="translate(0,150)" x2="0" y2="0" style="fill: none; stroke: #888; stroke-width: 1; opacity: 1;"></line><line transform="translate(0,100)" x2="0" y2="0" style="fill: none; stroke: #888; stroke-width: 1; opacity: 1;"></line><line transform="translate(0,50)" x2="0" y2="0" style="fill: none; stroke: #888; stroke-width: 1; opacity: 1;"></line><line transform="translate(0,0)" x2="0" y2="0" style="fill: none; stroke: #888; stroke-width: 1; opacity: 1;"></line></g><g class="mark-text role-axis-label" style="pointer-events: none;"><text text-anchor="end" transform="translate(-2,253)" style="font-family: Benton Gothic, sans; font-size: 11.5px; font-weight: normal; fill: #000; opacity: 1;">-100%</text><text text-anchor="end" transform="translate(-2,203)" style="font-family: Benton Gothic, sans; font-size: 11.5px; font-weight: normal; fill: #000; opacity: 1;">-80%</text><text text-anchor="end" transform="translate(-2,153)" style="font-family: Benton Gothic, sans; font-size: 11.5px; font-weight: normal; fill: #000; opacity: 1;">-60%</text><text text-anchor="end" transform="translate(-2,103)" style="font-family: Benton Gothic, sans; font-size: 11.5px; font-weight: normal; fill: #000; opacity: 1;">-40%</text><text text-anchor="end" transform="translate(-2,52.999999999999986)" style="font-family: Benton Gothic, sans; font-size: 11.5px; font-weight: normal; fill: #000; opacity: 1;">-20%</text><text text-anchor="end" transform="translate(-2,3)" style="font-family: Benton Gothic, sans; font-size: 11.5px; font-weight: normal; fill: #000; opacity: 1;">0%</text></g><g class="mark-rule role-axis-domain" style="pointer-events: none;"><line transform="translate(0,250)" x2="0" y2="-250" style="fill: none; stroke: #888; stroke-opacity: 0; stroke-width: 1; opacity: 1;"></line></g></g><path class="foreground" d="" style="pointer-events: none; display: none; fill: none;"></path></g></g><g class="mark-rect role-mark concat_1_marks"><path d="M2.5000000198680823,0h5v5.000000000000004h-5Z" style="fill: #ee9774;"></path><path d="M9.72779924848125,0h5v10.000000000000009h-5Z" style="fill: #ee9774;"></path><path d="M16.955598477094423,0h5v12.50000000000001h-5Z" style="fill: #ee9774;"></path><path d="M24.18339770570759,0h5v7.500000000000007h-5Z" style="fill: #ee9774;"></path><path d="M31.411196934320756,0h5v5.000000000000004h-5Z" style="fill: #ee9774;"></path><path d="M38.63899616293393,0h5v7.500000000000007h-5Z" style="fill: #ee9774;"></path><path d="M45.86679539154709,0h5v7.500000000000007h-5Z" style="fill: #ee9774;"></path><path d="M53.094594620160265,0h5v5.000000000000004h-5Z" style="fill: #ee9774;"></path><path d="M60.32239384877344,0h5v7.500000000000007h-5Z" style="fill: #ee9774;"></path><path d="M67.55019307738661,0h5v19.99999999999999h-5Z" style="fill: #ee9774;"></path><path d="M74.77799230599977,0h5v15.000000000000014h-5Z" style="fill: #ee9774;"></path><path d="M82.00579153461294,0h5v19.99999999999999h-5Z" style="fill: #ee9774;"></path><path d="M89.23359076322612,0h5v19.99999999999999h-5Z" style="fill: #ee9774;"></path><path d="M96.46138999183928,0h5v19.99999999999999h-5Z" style="fill: #ee9774;"></path><path d="M103.68918922045243,0h5v15.000000000000014h-5Z" style="fill: #ee9774;"></path><path d="M110.91698844906563,0h5v19.99999999999999h-5Z" style="fill: #ee9774;"></path><path d="M118.14478767767879,0h5v17.500000000000014h-5Z" style="fill: #ee9774;"></path><path d="M182.8938224340051,0h5v52.49999999999999h-5Z" style="fill: #ee9774;"></path><path d="M190.12162166261828,0h5v60h-5Z" style="fill: #ee9774;"></path><path d="M197.34942089123143,0h5v57.49999999999999h-5Z" style="fill: #ee9774;"></path><path d="M204.5772201198446,0h5v60h-5Z" style="fill: #ee9774;"></path><path d="M211.8050193484578,0h5v70h-5Z" style="fill: #ee9774;"></path><path d="M219.03281857707094,0h5v75.00000000000001h-5Z" style="fill: #ee9774;"></path><path d="M226.26061780568412,0h5v97.5h-5Z" style="fill: #ee9774;"></path><path d="M233.48841703429727,0h5v122.5h-5Z" style="fill: #ee9774;"></path><path d="M240.71621626291042,0h5v142.5h-5Z" style="fill: #ee9774;"></path><path d="M247.9440154915236,0h5v155h-5Z" style="fill: #ee9774;"></path><path d="M125.37258690629196,0h5v17.500000000000014h-5Z" style="fill: #ee9774;"></path><path d="M255.1718147201368,0h5v162.5h-5Z" style="fill: #ee9774;"></path><path d="M262.39961394874996,0h5v167.5h-5Z" style="fill: #ee9774;"></path><path d="M269.6274131773631,0h5v172.5h-5Z" style="fill: #ee9774;"></path><path d="M276.8552124059763,0h5v192.5h-5Z" style="fill: #ee9774;"></path><path d="M284.08301163458947,0h5v195h-5Z" style="fill: #ee9774;"></path><path d="M291.3108108632026,0h5v197.5h-5Z" style="fill: #ee9774;"></path><path d="M298.53861009181577,0h5v200h-5Z" style="fill: #ee9774;"></path><path d="M305.766409320429,0h5v192.5h-5Z" style="fill: #ee9774;"></path><path d="M312.9942085490421,0h5v192.5h-5Z" style="fill: #ee9774;"></path><path d="M320.22200777765534,0h5v202.5h-5Z" style="fill: #ee9774;"></path><path d="M132.60038613490514,0h5v22.499999999999993h-5Z" style="fill: #ee9774;"></path><path d="M327.4498070062685,0h5v195h-5Z" style="fill: #ee9774;"></path><path d="M334.67760623488164,0h5v197.5h-5Z" style="fill: #ee9774;"></path><path d="M139.8281853635183,0h5v24.999999999999993h-5Z" style="fill: #ee9774;"></path><path d="M147.05598459213147,0h5v27.499999999999996h-5Z" style="fill: #ee9774;"></path><path d="M154.28378382074462,0h5v22.499999999999993h-5Z" style="fill: #ee9774;"></path><path d="M161.51158304935782,0h5v30h-5Z" style="fill: #ee9774;"></path><path d="M168.73938227797098,0h5v27.499999999999996h-5Z" style="fill: #ee9774;"></path><path d="M175.66602320539192,0h5v37.50000000000001h-5Z" style="fill: #ee9774;"></path><path d="M341.9054054634948,0h5v202.5h-5Z" style="fill: #ee9774;"></path><path d="M349.133204692108,0h5v202.5h-5Z" style="fill: #ee9774;"></path><path d="M356.3610039207212,0h5v200h-5Z" style="fill: #ee9774;"></path><path d="M363.58880314933435,0h5v205h-5Z" style="fill: #ee9774;"></path><path d="M370.8166023779475,0h5v190h-5Z" style="fill: #ee9774;"></path><path d="M378.04440160656065,0h5v192.5h-5Z" style="fill: #ee9774;"></path><path d="M385.2722008351738,0h5v200h-5Z" style="fill: #ee9774;"></path><path d="M392.500000063787,0h5v200h-5Z" style="fill: #ee9774;"></path></g></g><path class="foreground" d="" style="display: none; fill: none;"></path></g></g></g><path class="foreground" d="" style="display: none; fill: none;"></path></g></g></g></svg>