<svg class="marks" width="2252" height="770" viewBox="0 0 1126 385" version="1.1" xmlns="http://www.w3.org/2000/svg" xmlns:xlink="http://www.w3.org/1999/xlink"><rect width="1126" height="385" style="fill: #ffffff;"></rect><g transform="translate(53,11)"><g class="mark-group role-frame root"><g transform="translate(0,0)"><path class="background" d="M0,0h0v350h0Z" style="fill: none;"></path><g><g class="mark-group role-scope concat_0_group"><g transform="translate(0,0)"><path class="background" d="M0.5,0.5h500v350h-500Z" style="fill: none; stroke: #ddd; stroke-opacity: 0;"></path><g><g class="mark-group role-axis"><g transform="translate(0.5,0.5)"><path class="background" d="M0,0h0v0h0Z" style="pointer-events: none; fill: none;"></path><g><g class="mark-rule role-axis-grid" style="pointer-events: none;"><line transform="translate(0,350)" x2="500" y2="0" style="fill: none; stroke: #dddddd; stroke-width: 0.6; opacity: 1;"></line><line transform="translate(0,280)" x2="500" y2="0" style="fill: none; stroke: #dddddd; stroke-width: 0.6; opacity: 1;"></line><line transform="translate(0,210)" x2="500" y2="0" style="fill: none; stroke: #dddddd; stroke-width: 0.6; opacity: 1;"></line><line transform="translate(0,140)" x2="500" y2="0" style="fill: none; stroke: #dddddd; stroke-width: 0.6; opacity: 1;"></line><line transform="translate(0,70)" x2="500" y2="0" style="fill: none; stroke: #dddddd; stroke-width: 0.6; opacity: 1;"></line><line transform="translate(0,0)" x2="500" y2="0" style="fill: none; stroke: #dddddd; stroke-width: 0.6; opacity: 1;"></line></g></g><path class="foreground" d="" style="pointer-events: none; display: none; fill: none;"></path></g></g><g class="mark-group role-axis"><g transform="translate(0.5,350.5)"><path class="background" d="M0,0h0v0h0Z" style="pointer-events: none; fill: none;"></path><g><g class="mark-rule role-axis-tick" style="pointer-events: none;"><line transform="translate(130,0)" x2="0" y2="3" style="fill: none; stroke: #888; stroke-width: 1; opacity: 1;"></line><line transform="translate(428,0)" x2="0" y2="3" style="fill: none; stroke: #888; stroke-width: 1; opacity: 1;"></line></g><g class="mark-text role-axis-label" style="pointer-events: none;"><text text-anchor="middle" transform="translate(130.00408835709115,16)" style="font-family: Benton Gothic, sans; font-size: 11.5px; font-weight: normal; fill: #000; opacity: 1;">Mar 1</text><text text-anchor="middle" transform="translate(427.6901063605187,16)" style="font-family: Benton Gothic, sans; font-size: 11.5px; font-weight: normal; fill: #000; opacity: 1;">Apr 1</text></g><g class="mark-rule role-axis-domain" style="pointer-events: none;"><line transform="translate(0,0)" x2="500" y2="0" style="fill: none; stroke: #888; stroke-width: 1; opacity: 1;"></line></g></g><path class="foreground" d="" style="pointer-events: none; display: none; fill: none;"></path></g></g><g class="mark-group role-axis"><g transform="translate(-2.5,0.5)"><path class="background" d="M0,0h0v0h0Z" style="pointer-events: none; fill: none;"></path><g><g class="mark-rule role-axis-tick" style="pointer-events: none;"><line transform="translate(0,350)" x2="0" y2="0" style="fill: none; stroke: #888; stroke-width: 1; opacity: 1;"></line><line transform="translate(0,280)" x2="0" y2="0" style="fill: none; stroke: #888; stroke-width: 1; opacity: 1;"></line><line transform="translate(0,210)" x2="0" y2="0" style="fill: none; stroke: #888; stroke-width: 1; opacity: 1;"></line><line transform="translate(0,140)" x2="0" y2="0" style="fill: none; stroke: #888; stroke-width: 1; opacity: 1;"></line><line transform="translate(0,70)" x2="0" y2="0" style="fill: none; stroke: #888; stroke-width: 1; opacity: 1;"></line><line transform="translate(0,0)" x2="0" y2="0" style="fill: none; stroke: #888; stroke-width: 1; opacity: 1;"></line></g><g class="mark-text role-axis-label" style="pointer-events: none;"><text text-anchor="end" transform="translate(-2,353)" style="font-family: Benton Gothic, sans; font-size: 11.5px; font-weight: normal; fill: #000; opacity: 1;">-100%</text><text text-anchor="end" transform="translate(-2,283)" style="font-family: Benton Gothic, sans; font-size: 11.5px; font-weight: normal; fill: #000; opacity: 1;">-80%</text><text text-anchor="end" transform="translate(-2,213)" style="font-family: Benton Gothic, sans; font-size: 11.5px; font-weight: normal; fill: #000; opacity: 1;">-60%</text><text text-anchor="end" transform="translate(-2,143)" style="font-family: Benton Gothic, sans; font-size: 11.5px; font-weight: normal; fill: #000; opacity: 1;">-40%</text><text text-anchor="end" transform="translate(-2,72.99999999999999)" style="font-family: Benton Gothic, sans; font-size: 11.5px; font-weight: normal; fill: #000; opacity: 1;">-20%</text><text text-anchor="end" transform="translate(-2,3)" style="font-family: Benton Gothic, sans; font-size: 11.5px; font-weight: normal; fill: #000; opacity: 1;">0%</text></g><g class="mark-rule role-axis-domain" style="pointer-events: none;"><line transform="translate(0,350)" x2="0" y2="-350" style="fill: none; stroke: #888; stroke-opacity: 0; stroke-width: 1; opacity: 1;"></line></g></g><path class="foreground" d="" style="pointer-events: none; display: none; fill: none;"></path></g></g><g class="mark-rect role-mark concat_0_marks"><path d="M2.0000000434041967,0h6v7.000000000000006h-6Z" style="fill: #b33026;"></path><path d="M11.61569914445704,0h6v10.500000000000009h-6Z" style="fill: #b33026;"></path><path d="M21.23139824550988,0h6v7.000000000000006h-6Z" style="fill: #b33026;"></path><path d="M30.84709734656272,0h6v10.500000000000009h-6Z" style="fill: #b33026;"></path><path d="M40.46279644761557,0h6v10.500000000000009h-6Z" style="fill: #b33026;"></path><path d="M50.07849554866841,0h6v7.000000000000006h-6Z" style="fill: #b33026;"></path><path d="M59.694194649721254,0h6v7.000000000000006h-6Z" style="fill: #b33026;"></path><path d="M69.3098937507741,0h6v7.000000000000006h-6Z" style="fill: #b33026;"></path><path d="M78.92559285182693,0h6v10.500000000000009h-6Z" style="fill: #b33026;"></path><path d="M88.54129195287977,0h6v10.500000000000009h-6Z" style="fill: #b33026;"></path><path d="M98.15699105393263,0h6v17.500000000000014h-6Z" style="fill: #b33026;"></path><path d="M107.77269015498547,0h6v10.500000000000009h-6Z" style="fill: #b33026;"></path><path d="M117.3883892560383,0h6v10.500000000000009h-6Z" style="fill: #b33026;"></path><path d="M127.00408835709115,0h6v10.500000000000009h-6Z" style="fill: #b33026;"></path><path d="M213.1447261373562,0h6v10.500000000000009h-6Z" style="fill: #b33026;"></path><path d="M222.76042523840903,0h6v14.000000000000012h-6Z" style="fill: #b33026;"></path><path d="M232.37612433946185,0h6v10.500000000000009h-6Z" style="fill: #b33026;"></path><path d="M241.9918234405147,0h6v14.000000000000012h-6Z" style="fill: #b33026;"></path><path d="M251.60752254156753,0h6v14.000000000000012h-6Z" style="fill: #b33026;"></path><path d="M261.2232216426204,0h6v17.500000000000014h-6Z" style="fill: #b33026;"></path><path d="M270.8389207436732,0h6v21.000000000000018h-6Z" style="fill: #b33026;"></path><path d="M280.4546198447261,0h6v27.999999999999986h-6Z" style="fill: #b33026;"></path><path d="M290.070318945779,0h6v45.5h-6Z" style="fill: #b33026;"></path><path d="M299.68601804683175,0h6v66.49999999999999h-6Z" style="fill: #b33026;"></path><path d="M136.619787458144,0h6v10.500000000000009h-6Z" style="fill: #b33026;"></path><path d="M309.30171714788463,0h6v80.5h-6Z" style="fill: #b33026;"></path><path d="M318.91741624893746,0h6v94.5h-6Z" style="fill: #b33026;"></path><path d="M328.5331153499903,0h6v112.00000000000003h-6Z" style="fill: #b33026;"></path><path d="M338.1488144510431,0h6v140h-6Z" style="fill: #b33026;"></path><path d="M347.764513552096,0h6v150.49999999999997h-6Z" style="fill: #b33026;"></path><path d="M357.3802126531489,0h6v164.5h-6Z" style="fill: #b33026;"></path><path d="M366.99591175420164,0h6v178.5h-6Z" style="fill: #b33026;"></path><path d="M376.6116108552545,0h6v189h-6Z" style="fill: #b33026;"></path><path d="M386.22730995630735,0h6v185.5h-6Z" style="fill: #b33026;"></path><path d="M395.8430090573602,0h6v185.5h-6Z" style="fill: #b33026;"></path><path d="M146.23548655919683,0h6v10.500000000000009h-6Z" style="fill: #b33026;"></path><path d="M405.458708158413,0h6v192.50000000000003h-6Z" style="fill: #b33026;"></path><path d="M415.0744072594659,0h6v189h-6Z" style="fill: #b33026;"></path><path d="M155.85118566024966,0h6v10.500000000000009h-6Z" style="fill: #b33026;"></path><path d="M165.4668847613025,0h6v21.000000000000018h-6Z" style="fill: #b33026;"></path><path d="M175.08258386235536,0h6v10.500000000000009h-6Z" style="fill: #b33026;"></path><path d="M184.69828296340822,0h6v10.500000000000009h-6Z" style="fill: #b33026;"></path><path d="M194.31398206446104,0h6v10.500000000000009h-6Z" style="fill: #b33026;"></path><path d="M203.52902703630335,0h6v10.500000000000009h-6Z" style="fill: #b33026;"></path><path d="M424.6901063605187,0h6v185.5h-6Z" style="fill: #b33026;"></path><path d="M434.30580546157154,0h6v203h-6Z" style="fill: #b33026;"></path><path d="M443.9215045626244,0h6v199.49999999999997h-6Z" style="fill: #b33026;"></path><path d="M453.53720366367725,0h6v199.49999999999997h-6Z" style="fill: #b33026;"></path><path d="M463.1529027647301,0h6v199.49999999999997h-6Z" style="fill: #b33026;"></path><path d="M472.76860186578295,0h6v178.5h-6Z" style="fill: #b33026;"></path><path d="M482.3843009668358,0h6v178.5h-6Z" style="fill: #b33026;"></path><path d="M492.0000000678886,0h6v178.5h-6Z" style="fill: #b33026;"></path></g></g><path class="foreground" d="" style="display: none; fill: none;"></path></g></g><g class="mark-group role-scope concat_1_group"><g transform="translate(568,0)"><path class="background" d="M0.5,0.5h500v350h-500Z" style="fill: none; stroke: #ddd; stroke-opacity: 0;"></path><g><g class="mark-group role-axis"><g transform="translate(0.5,0.5)"><path class="background" d="M0,0h0v0h0Z" style="pointer-events: none; fill: none;"></path><g><g class="mark-rule role-axis-grid" style="pointer-events: none;"><line transform="translate(0,350)" x2="500" y2="0" style="fill: none; stroke: #dddddd; stroke-width: 0.6; opacity: 1;"></line><line transform="translate(0,280)" x2="500" y2="0" style="fill: none; stroke: #dddddd; stroke-width: 0.6; opacity: 1;"></line><line transform="translate(0,210)" x2="500" y2="0" style="fill: none; stroke: #dddddd; stroke-width: 0.6; opacity: 1;"></line><line transform="translate(0,140)" x2="500" y2="0" style="fill: none; stroke: #dddddd; stroke-width: 0.6; opacity: 1;"></line><line transform="translate(0,70)" x2="500" y2="0" style="fill: none; stroke: #dddddd; stroke-width: 0.6; opacity: 1;"></line><line transform="translate(0,0)" x2="500" y2="0" style="fill: none; stroke: #dddddd; stroke-width: 0.6; opacity: 1;"></line></g></g><path class="foreground" d="" style="pointer-events: none; display: none; fill: none;"></path></g></g><g class="mark-group role-axis"><g transform="translate(0.5,350.5)"><path class="background" d="M0,0h0v0h0Z" style="pointer-events: none; fill: none;"></path><g><g class="mark-rule role-axis-tick" style="pointer-events: none;"><line transform="translate(150,0)" x2="0" y2="3" style="fill: none; stroke: #888; stroke-width: 1; opacity: 1;"></line><line transform="translate(431,0)" x2="0" y2="3" style="fill: none; stroke: #888; stroke-width: 1; opacity: 1;"></line></g><g class="mark-text role-axis-label" style="pointer-events: none;"><text text-anchor="middle" transform="translate(150.29729734685577,16)" style="font-family: Benton Gothic, sans; font-size: 11.5px; font-weight: normal; fill: #000; opacity: 1;">Mar. 1</text><text text-anchor="middle" transform="translate(431.43243249043337,16)" style="font-family: Benton Gothic, sans; font-size: 11.5px; font-weight: normal; fill: #000; opacity: 1;">Apr. 1</text></g><g class="mark-rule role-axis-domain" style="pointer-events: none;"><line transform="translate(0,0)" x2="500" y2="0" style="fill: none; stroke: #888; stroke-width: 1; opacity: 1;"></line></g></g><path class="foreground" d="" style="pointer-events: none; display: none; fill: none;"></path></g></g><g class="mark-group role-axis"><g transform="translate(-2.5,0.5)"><path class="background" d="M0,0h0v0h0Z" style="pointer-events: none; fill: none;"></path><g><g class="mark-rule role-axis-tick" style="pointer-events: none;"><line transform="translate(0,350)" x2="0" y2="0" style="fill: none; stroke: #888; stroke-width: 1; opacity: 1;"></line><line transform="translate(0,280)" x2="0" y2="0" style="fill: none; stroke: #888; stroke-width: 1; opacity: 1;"></line><line transform="translate(0,210)" x2="0" y2="0" style="fill: none; stroke: #888; stroke-width: 1; opacity: 1;"></line><line transform="translate(0,140)" x2="0" y2="0" style="fill: none; stroke: #888; stroke-width: 1; opacity: 1;"></line><line transform="translate(0,70)" x2="0" y2="0" style="fill: none; stroke: #888; stroke-width: 1; opacity: 1;"></line><line transform="translate(0,0)" x2="0" y2="0" style="fill: none; stroke: #888; stroke-width: 1; opacity: 1;"></line></g><g class="mark-text role-axis-label" style="pointer-events: none;"><text text-anchor="end" transform="translate(-2,353)" style="font-family: Benton Gothic, sans; font-size: 11.5px; font-weight: normal; fill: #000; opacity: 1;">-100%</text><text text-anchor="end" transform="translate(-2,283)" style="font-family: Benton Gothic, sans; font-size: 11.5px; font-weight: normal; fill: #000; opacity: 1;">-80%</text><text text-anchor="end" transform="translate(-2,213)" style="font-family: Benton Gothic, sans; font-size: 11.5px; font-weight: normal; fill: #000; opacity: 1;">-60%</text><text text-anchor="end" transform="translate(-2,143)" style="font-family: Benton Gothic, sans; font-size: 11.5px; font-weight: normal; fill: #000; opacity: 1;">-40%</text><text text-anchor="end" transform="translate(-2,72.99999999999999)" style="font-family: Benton Gothic, sans; font-size: 11.5px; font-weight: normal; fill: #000; opacity: 1;">-20%</text><text text-anchor="end" transform="translate(-2,3)" style="font-family: Benton Gothic, sans; font-size: 11.5px; font-weight: normal; fill: #000; opacity: 1;">0%</text></g><g class="mark-rule role-axis-domain" style="pointer-events: none;"><line transform="translate(0,350)" x2="0" y2="-350" style="fill: none; stroke: #888; stroke-opacity: 0; stroke-width: 1; opacity: 1;"></line></g></g><path class="foreground" d="" style="pointer-events: none; display: none; fill: none;"></path></g></g><g class="mark-rect role-mark concat_1_marks"><path d="M2.000000045195195,0h6v7.000000000000006h-6Z" style="fill: #f36e57;"></path><path d="M11.081081126548982,0h6v14.000000000000012h-6Z" style="fill: #f36e57;"></path><path d="M20.162162207902767,0h6v17.500000000000014h-6Z" style="fill: #f36e57;"></path><path d="M29.243243289256554,0h6v10.500000000000009h-6Z" style="fill: #f36e57;"></path><path d="M38.324324370610334,0h6v7.000000000000006h-6Z" style="fill: #f36e57;"></path><path d="M47.40540545196413,0h6v10.500000000000009h-6Z" style="fill: #f36e57;"></path><path d="M56.486486533317915,0h6v10.500000000000009h-6Z" style="fill: #f36e57;"></path><path d="M65.5675676146717,0h6v7.000000000000006h-6Z" style="fill: #f36e57;"></path><path d="M74.64864869602549,0h6v10.500000000000009h-6Z" style="fill: #f36e57;"></path><path d="M83.72972977737928,0h6v27.999999999999986h-6Z" style="fill: #f36e57;"></path><path d="M92.81081085873305,0h6v21.000000000000018h-6Z" style="fill: #f36e57;"></path><path d="M101.89189194008684,0h6v27.999999999999986h-6Z" style="fill: #f36e57;"></path><path d="M110.97297302144064,0h6v27.999999999999986h-6Z" style="fill: #f36e57;"></path><path d="M120.05405410279442,0h6v27.999999999999986h-6Z" style="fill: #f36e57;"></path><path d="M129.13513518414823,0h6v21.000000000000018h-6Z" style="fill: #f36e57;"></path><path d="M138.216216265502,0h6v27.999999999999986h-6Z" style="fill: #f36e57;"></path><path d="M147.29729734685577,0h6v24.50000000000002h-6Z" style="fill: #f36e57;"></path><path d="M228.6486487006501,0h6v73.49999999999999h-6Z" style="fill: #f36e57;"></path><path d="M237.72972978200391,0h6v84h-6Z" style="fill: #f36e57;"></path><path d="M246.8108108633577,0h6v80.5h-6Z" style="fill: #f36e57;"></path><path d="M255.89189194471146,0h6v84h-6Z" style="fill: #f36e57;"></path><path d="M264.9729730260653,0h6v98.00000000000001h-6Z" style="fill: #f36e57;"></path><path d="M274.05405410741906,0h6v105.00000000000001h-6Z" style="fill: #f36e57;"></path><path d="M283.13513518877284,0h6v136.5h-6Z" style="fill: #f36e57;"></path><path d="M292.2162162701266,0h6v171.5h-6Z" style="fill: #f36e57;"></path><path d="M301.29729735148044,0h6v199.49999999999997h-6Z" style="fill: #f36e57;"></path><path d="M310.37837843283415,0h6v217h-6Z" style="fill: #f36e57;"></path><path d="M156.37837842820957,0h6v24.50000000000002h-6Z" style="fill: #f36e57;"></path><path d="M319.459459514188,0h6v227.5h-6Z" style="fill: #f36e57;"></path><path d="M328.54054059554176,0h6v234.5h-6Z" style="fill: #f36e57;"></path><path d="M337.62162167689553,0h6v241.49999999999997h-6Z" style="fill: #f36e57;"></path><path d="M346.7027027582493,0h6v269.5h-6Z" style="fill: #f36e57;"></path><path d="M355.78378383960313,0h6v273h-6Z" style="fill: #f36e57;"></path><path d="M364.8648649209569,0h6v276.5h-6Z" style="fill: #f36e57;"></path><path d="M373.9459460023107,0h6v280h-6Z" style="fill: #f36e57;"></path><path d="M383.0270270836645,0h6v269.5h-6Z" style="fill: #f36e57;"></path><path d="M392.1081081650182,0h6v269.5h-6Z" style="fill: #f36e57;"></path><path d="M401.18918924637205,0h6v283.5h-6Z" style="fill: #f36e57;"></path><path d="M165.45945950956335,0h6v31.49999999999999h-6Z" style="fill: #f36e57;"></path><path d="M410.2702703277258,0h6v273h-6Z" style="fill: #f36e57;"></path><path d="M419.35135140907965,0h6v276.5h-6Z" style="fill: #f36e57;"></path><path d="M174.54054059091715,0h6v34.99999999999999h-6Z" style="fill: #f36e57;"></path><path d="M183.62162167227092,0h6v38.49999999999999h-6Z" style="fill: #f36e57;"></path><path d="M192.7027027536247,0h6v31.49999999999999h-6Z" style="fill: #f36e57;"></path><path d="M201.7837838349785,0h6v42h-6Z" style="fill: #f36e57;"></path><path d="M210.86486491633227,0h6v38.49999999999999h-6Z" style="fill: #f36e57;"></path><path d="M219.56756761929634,0h6v52.50000000000001h-6Z" style="fill: #f36e57;"></path><path d="M428.43243249043337,0h6v283.5h-6Z" style="fill: #f36e57;"></path><path d="M437.5135135717872,0h6v283.5h-6Z" style="fill: #f36e57;"></path><path d="M446.594594653141,0h6v280h-6Z" style="fill: #f36e57;"></path><path d="M455.67567573449475,0h6v287h-6Z" style="fill: #f36e57;"></path><path d="M464.7567568158486,0h6v266h-6Z" style="fill: #f36e57;"></path><path d="M473.83783789720235,0h6v269.5h-6Z" style="fill: #f36e57;"></path><path d="M482.9189189785561,0h6v280h-6Z" style="fill: #f36e57;"></path><path d="M492.0000000599099,0h6v280h-6Z" style="fill: #f36e57;"></path></g></g><path class="foreground" d="" style="display: none; fill: none;"></path></g></g></g><path class="foreground" d="" style="display: none; fill: none;"></path></g></g></g></svg>